<ttFont>
    <TTGlyph name="A" xMin="0" yMin="0" xMax="813" yMax="1462">
      <contour>
        <pt x="813" y="0" on="1"/>
        <pt x="713" y="0" on="1"/>
        <pt x="584" y="530" on="1"/>
        <pt x="229" y="530" on="1"/>
        <pt x="102" y="0" on="1"/>
        <pt x="0" y="0" on="1"/>
        <pt x="352" y="1462" on="1"/>
        <pt x="453" y="1462" on="1"/>
      </contour>
      <contour>
        <pt x="561" y="629" on="1"/>
        <pt x="432" y="1174" on="1"/>
        <pt x="410" y="1277" on="0"/>
        <pt x="401" y="1348" on="1"/>
        <pt x="392" y="1257" on="0"/>
        <pt x="373" y="1174" on="1"/>
        <pt x="248" y="629" on="1"/>
      </contour>
    </TTGlyph>
    <TTGlyph name="AE" xMin="0" yMin="0" xMax="1055" yMax="1462">
      <contour>
        <pt x="1055" y="1366" on="1"/>
        <pt x="623" y="1366" on="1"/>
        <pt x="623" y="813" on="1"/>
        <pt x="1030" y="813" on="1"/>
        <pt x="1030" y="719" on="1"/>
        <pt x="623" y="719" on="1"/>
        <pt x="623" y="94" on="1"/>
        <pt x="1055" y="94" on="1"/>
        <pt x="1055" y="0" on="1"/>
        <pt x="524" y="0" on="1"/>
        <pt x="524" y="530" on="1"/>
        <pt x="256" y="530" on="1"/>
        <pt x="104" y="0" on="1"/>
        <pt x="0" y="0" on="1"/>
        <pt x="434" y="1462" on="1"/>
        <pt x="1055" y="1462" on="1"/>
      </contour>
      <contour>
        <pt x="524" y="629" on="1"/>
        <pt x="524" y="1364" on="1"/>
        <pt x="496" y="1364" on="1"/>
        <pt x="283" y="629" on="1"/>
      </contour>
    </TTGlyph>
    <TTGlyph name="Aacute" xMin="0" yMin="0" xMax="813" yMax="1907">
      <contour>
        <pt x="655" y="1907" on="1"/>
        <pt x="655" y="1890" on="1"/>
        <pt x="618" y="1824" on="0"/>
        <pt x="456" y="1638" on="0"/>
        <pt x="386" y="1579" on="1"/>
        <pt x="339" y="1579" on="1"/>
        <pt x="339" y="1600" on="1"/>
        <pt x="465" y="1764" on="0"/>
        <pt x="530" y="1907" on="1"/>
      </contour>
      <contour>
        <pt x="813" y="0" on="1"/>
        <pt x="713" y="0" on="1"/>
        <pt x="584" y="530" on="1"/>
        <pt x="229" y="530" on="1"/>
        <pt x="102" y="0" on="1"/>
        <pt x="0" y="0" on="1"/>
        <pt x="352" y="1462" on="1"/>
        <pt x="453" y="1462" on="1"/>
      </contour>
      <contour>
        <pt x="561" y="629" on="1"/>
        <pt x="432" y="1174" on="1"/>
        <pt x="410" y="1277" on="0"/>
        <pt x="401" y="1348" on="1"/>
        <pt x="392" y="1257" on="0"/>
        <pt x="373" y="1174" on="1"/>
        <pt x="248" y="629" on="1"/>
      </contour>
    </TTGlyph>
    <TTGlyph name="Acircumflex" xMin="0" yMin="0" xMax="813" yMax="1907">
      <contour>
        <pt x="638" y="1579" on="1"/>
        <pt x="591" y="1579" on="1"/>
        <pt x="549" y="1621" on="0"/>
        <pt x="500" y="1680" on="1"/>
        <pt x="403" y="1792" on="1"/>
        <pt x="384" y="1771" on="0"/>
        <pt x="340" y="1720" on="1"/>
        <pt x="259" y="1626" on="0"/>
        <pt x="210" y="1579" on="1"/>
        <pt x="167" y="1579" on="1"/>
        <pt x="167" y="1598" on="1"/>
        <pt x="288" y="1766" on="0"/>
        <pt x="353" y="1907" on="1"/>
        <pt x="448" y="1907" on="1"/>
        <pt x="471" y="1853" on="0"/>
        <pt x="526" y="1762" on="1"/>
        <pt x="586" y="1667" on="0"/>
        <pt x="638" y="1598" on="1"/>
      </contour>
      <contour>
        <pt x="813" y="0" on="1"/>
        <pt x="713" y="0" on="1"/>
        <pt x="584" y="530" on="1"/>
        <pt x="229" y="530" on="1"/>
        <pt x="102" y="0" on="1"/>
        <pt x="0" y="0" on="1"/>
        <pt x="352" y="1462" on="1"/>
        <pt x="453" y="1462" on="1"/>
      </contour>
      <contour>
        <pt x="561" y="629" on="1"/>
        <pt x="432" y="1174" on="1"/>
        <pt x="410" y="1277" on="0"/>
        <pt x="401" y="1348" on="1"/>
        <pt x="392" y="1257" on="0"/>
        <pt x="373" y="1174" on="1"/>
        <pt x="248" y="629" on="1"/>
      </contour>
    </TTGlyph>
    <TTGlyph name="Adieresis" xMin="0" yMin="0" xMax="813" yMax="1808">
      <contour>
        <pt x="191" y="1767" on="0"/>
        <pt x="228" y="1808" on="0"/>
        <pt x="281" y="1808" on="0"/>
        <pt x="316" y="1767" on="0"/>
        <pt x="316" y="1685" on="0"/>
        <pt x="281" y="1643" on="0"/>
        <pt x="228" y="1643" on="0"/>
        <pt x="191" y="1685" on="0"/>
      </contour>
      <contour>
        <pt x="496" y="1767" on="0"/>
        <pt x="532" y="1808" on="0"/>
        <pt x="585" y="1808" on="0"/>
        <pt x="621" y="1767" on="0"/>
        <pt x="621" y="1685" on="0"/>
        <pt x="585" y="1643" on="0"/>
        <pt x="532" y="1643" on="0"/>
        <pt x="496" y="1686" on="0"/>
      </contour>
      <contour>
        <pt x="813" y="0" on="1"/>
        <pt x="713" y="0" on="1"/>
        <pt x="584" y="530" on="1"/>
        <pt x="229" y="530" on="1"/>
        <pt x="102" y="0" on="1"/>
        <pt x="0" y="0" on="1"/>
        <pt x="352" y="1462" on="1"/>
        <pt x="453" y="1462" on="1"/>
      </contour>
      <contour>
        <pt x="561" y="629" on="1"/>
        <pt x="432" y="1174" on="1"/>
        <pt x="410" y="1277" on="0"/>
        <pt x="401" y="1348" on="1"/>
        <pt x="392" y="1257" on="0"/>
        <pt x="373" y="1174" on="1"/>
        <pt x="248" y="629" on="1"/>
      </contour>
    </TTGlyph>
    <TTGlyph name="Agrave" xMin="0" yMin="0" xMax="813" yMax="1907">
      <contour>
        <pt x="146" y="1907" on="1"/>
        <pt x="271" y="1907" on="1"/>
        <pt x="300" y="1840" on="0"/>
        <pt x="406" y="1670" on="0"/>
        <pt x="462" y="1600" on="1"/>
        <pt x="462" y="1579" on="1"/>
        <pt x="414" y="1579" on="1"/>
        <pt x="351" y="1630" on="0"/>
        <pt x="183" y="1821" on="0"/>
        <pt x="146" y="1890" on="1"/>
      </contour>
      <contour>
        <pt x="813" y="0" on="1"/>
        <pt x="713" y="0" on="1"/>
        <pt x="584" y="530" on="1"/>
        <pt x="229" y="530" on="1"/>
        <pt x="102" y="0" on="1"/>
        <pt x="0" y="0" on="1"/>
        <pt x="352" y="1462" on="1"/>
        <pt x="453" y="1462" on="1"/>
      </contour>
      <contour>
        <pt x="561" y="629" on="1"/>
        <pt x="432" y="1174" on="1"/>
        <pt x="410" y="1277" on="0"/>
        <pt x="401" y="1348" on="1"/>
        <pt x="392" y="1257" on="0"/>
        <pt x="373" y="1174" on="1"/>
        <pt x="248" y="629" on="1"/>
      </contour>
    </TTGlyph>
    <TTGlyph name="Aring" xMin="0" yMin="0" xMax="813" yMax="1771">
      <contour>
        <pt x="276" y="1423" on="0"/>
        <pt x="206" y="1516" on="0"/>
        <pt x="206" y="1670" on="0"/>
        <pt x="313" y="1771" on="0"/>
        <pt x="492" y="1771" on="0"/>
        <pt x="604" y="1671" on="0"/>
        <pt x="604" y="1517" on="0"/>
        <pt x="531" y="1421" on="0"/>
        <pt x="467" y="1405" on="1"/>
        <pt x="813" y="0" on="1"/>
        <pt x="713" y="0" on="1"/>
        <pt x="584" y="530" on="1"/>
        <pt x="229" y="530" on="1"/>
        <pt x="102" y="0" on="1"/>
        <pt x="0" y="0" on="1"/>
        <pt x="339" y="1406" on="1"/>
      </contour>
      <contour>
        <pt x="351" y="1701" on="0"/>
        <pt x="284" y="1636" on="0"/>
        <pt x="284" y="1531" on="0"/>
        <pt x="346" y="1468" on="0"/>
        <pt x="459" y="1468" on="0"/>
        <pt x="526" y="1532" on="0"/>
        <pt x="526" y="1637" on="0"/>
        <pt x="463" y="1701" on="0"/>
      </contour>
      <contour>
        <pt x="561" y="629" on="1"/>
        <pt x="432" y="1174" on="1"/>
        <pt x="410" y="1277" on="0"/>
        <pt x="401" y="1348" on="1"/>
        <pt x="392" y="1257" on="0"/>
        <pt x="373" y="1174" on="1"/>
        <pt x="248" y="629" on="1"/>
      </contour>
    </TTGlyph>
    <TTGlyph name="Atilde" xMin="0" yMin="0" xMax="813" yMax="1792">
      <contour>
        <pt x="527" y="1581" on="1"/>
        <pt x="495" y="1581" on="0"/>
        <pt x="421" y="1621" on="0"/>
        <pt x="393" y="1644" on="1"/>
        <pt x="317" y="1708" on="0"/>
        <pt x="253" y="1708" on="0"/>
        <pt x="209" y="1638" on="0"/>
        <pt x="200" y="1579" on="1"/>
        <pt x="126" y="1579" on="1"/>
        <pt x="138" y="1679" on="0"/>
        <pt x="222" y="1790" on="0"/>
        <pt x="292" y="1790" on="1"/>
        <pt x="324" y="1790" on="0"/>
        <pt x="397" y="1750" on="0"/>
        <pt x="424" y="1726" on="1"/>
        <pt x="497" y="1663" on="0"/>
        <pt x="534" y="1663" on="1"/>
        <pt x="593" y="1663" on="0"/>
        <pt x="613" y="1792" on="1"/>
        <pt x="687" y="1792" on="1"/>
        <pt x="678" y="1691" on="0"/>
        <pt x="594" y="1581" on="0"/>
      </contour>
      <contour>
        <pt x="813" y="0" on="1"/>
        <pt x="713" y="0" on="1"/>
        <pt x="584" y="530" on="1"/>
        <pt x="229" y="530" on="1"/>
        <pt x="102" y="0" on="1"/>
        <pt x="0" y="0" on="1"/>
        <pt x="352" y="1462" on="1"/>
        <pt x="453" y="1462" on="1"/>
      </contour>
      <contour>
        <pt x="561" y="629" on="1"/>
        <pt x="432" y="1174" on="1"/>
        <pt x="410" y="1277" on="0"/>
        <pt x="401" y="1348" on="1"/>
        <pt x="392" y="1257" on="0"/>
        <pt x="373" y="1174" on="1"/>
        <pt x="248" y="629" on="1"/>
      </contour>
    </TTGlyph>
    <TTGlyph name="B" xMin="160" yMin="0" xMax="827" yMax="1462">
      <contour>
        <pt x="160" y="1462" on="1"/>
        <pt x="440" y="1462" on="1"/>
        <pt x="613" y="1462" on="0"/>
        <pt x="797" y="1285" on="0"/>
        <pt x="797" y="1114" on="1"/>
        <pt x="797" y="817" on="0"/>
        <pt x="580" y="774" on="1"/>
        <pt x="580" y="766" on="1"/>
        <pt x="706" y="740" on="0"/>
        <pt x="827" y="569" on="0"/>
        <pt x="827" y="416" on="1"/>
        <pt x="827" y="220" on="0"/>
        <pt x="653" y="0" on="0"/>
        <pt x="496" y="0" on="1"/>
        <pt x="160" y="0" on="1"/>
      </contour>
      <contour>
        <pt x="258" y="1372" on="1"/>
        <pt x="258" y="811" on="1"/>
        <pt x="442" y="811" on="1"/>
        <pt x="577" y="811" on="0"/>
        <pt x="696" y="959" on="0"/>
        <pt x="696" y="1116" on="1"/>
        <pt x="696" y="1240" on="0"/>
        <pt x="566" y="1372" on="0"/>
        <pt x="440" y="1372" on="1"/>
      </contour>
      <contour>
        <pt x="258" y="721" on="1"/>
        <pt x="258" y="90" on="1"/>
        <pt x="483" y="90" on="1"/>
        <pt x="725" y="90" on="0"/>
        <pt x="725" y="418" on="1"/>
        <pt x="725" y="564" on="0"/>
        <pt x="584" y="721" on="0"/>
        <pt x="455" y="721" on="1"/>
      </contour>
    </TTGlyph>
    <TTGlyph name="C" xMin="111" yMin="-20" xMax="809" yMax="1485">
      <contour>
        <pt x="567" y="-20" on="1"/>
        <pt x="361" y="-20" on="0"/>
        <pt x="111" y="384" on="0"/>
        <pt x="111" y="724" on="1"/>
        <pt x="111" y="730" on="0"/>
        <pt x="111" y="735" on="1"/>
        <pt x="111" y="1086" on="0"/>
        <pt x="360" y="1485" on="0"/>
        <pt x="575" y="1485" on="1"/>
        <pt x="708" y="1485" on="0"/>
        <pt x="809" y="1423" on="1"/>
        <pt x="764" y="1337" on="1"/>
        <pt x="680" y="1391" on="0"/>
        <pt x="573" y="1391" on="1"/>
        <pt x="407" y="1391" on="0"/>
        <pt x="213" y="1043" on="0"/>
        <pt x="213" y="733" on="1"/>
        <pt x="213" y="727" on="0"/>
        <pt x="213" y="722" on="1"/>
        <pt x="213" y="430" on="0"/>
        <pt x="413" y="74" on="0"/>
        <pt x="577" y="74" on="1"/>
        <pt x="579" y="74" on="0"/>
        <pt x="582" y="74" on="1"/>
        <pt x="694" y="74" on="0"/>
        <pt x="778" y="115" on="1"/>
        <pt x="778" y="25" on="1"/>
        <pt x="700" y="-20" on="0"/>
        <pt x="573" y="-20" on="1"/>
        <pt x="570" y="-20" on="0"/>
      </contour>
    </TTGlyph>
    <TTGlyph name="Ccedilla" xMin="111" yMin="-492" xMax="809" yMax="1485">
      <contour>
        <pt x="573" y="1391" on="1"/>
        <pt x="407" y="1391" on="0"/>
        <pt x="213" y="1043" on="0"/>
        <pt x="213" y="733" on="1"/>
        <pt x="213" y="727" on="0"/>
        <pt x="213" y="722" on="1"/>
        <pt x="213" y="430" on="0"/>
        <pt x="413" y="74" on="0"/>
        <pt x="577" y="74" on="1"/>
        <pt x="579" y="74" on="0"/>
        <pt x="582" y="74" on="1"/>
        <pt x="694" y="74" on="0"/>
        <pt x="778" y="115" on="1"/>
        <pt x="778" y="25" on="1"/>
        <pt x="700" y="-20" on="0"/>
        <pt x="574" y="-20" on="1"/>
        <pt x="532" y="-115" on="1"/>
        <pt x="692" y="-154" on="0"/>
        <pt x="692" y="-291" on="1"/>
        <pt x="692" y="-389" on="0"/>
        <pt x="569" y="-492" on="0"/>
        <pt x="458" y="-492" on="1"/>
        <pt x="397" y="-492" on="0"/>
        <pt x="372" y="-481" on="1"/>
        <pt x="372" y="-403" on="1"/>
        <pt x="405" y="-414" on="0"/>
        <pt x="450" y="-414" on="1"/>
        <pt x="526" y="-414" on="0"/>
        <pt x="602" y="-349" on="0"/>
        <pt x="602" y="-235" on="0"/>
        <pt x="518" y="-173" on="0"/>
        <pt x="436" y="-160" on="1"/>
        <pt x="502" y="-14" on="1"/>
        <pt x="321" y="19" on="0"/>
        <pt x="111" y="414" on="0"/>
        <pt x="111" y="723" on="1"/>
        <pt x="111" y="729" on="0"/>
        <pt x="111" y="735" on="1"/>
        <pt x="111" y="1086" on="0"/>
        <pt x="360" y="1485" on="0"/>
        <pt x="575" y="1485" on="1"/>
        <pt x="708" y="1485" on="0"/>
        <pt x="809" y="1423" on="1"/>
        <pt x="764" y="1337" on="1"/>
        <pt x="680" y="1391" on="0"/>
      </contour>
    </TTGlyph>
    <TTGlyph name="D" xMin="160" yMin="0" xMax="885" yMax="1462">
      <contour>
        <pt x="160" y="1462" on="1"/>
        <pt x="426" y="1462" on="1"/>
        <pt x="652" y="1462" on="0"/>
        <pt x="885" y="1097" on="0"/>
        <pt x="885" y="745" on="1"/>
        <pt x="885" y="0" on="0"/>
        <pt x="420" y="0" on="1"/>
        <pt x="160" y="0" on="1"/>
      </contour>
      <contour>
        <pt x="258" y="1372" on="1"/>
        <pt x="258" y="90" on="1"/>
        <pt x="414" y="90" on="1"/>
        <pt x="782" y="90" on="0"/>
        <pt x="782" y="739" on="1"/>
        <pt x="782" y="1049" on="0"/>
        <pt x="599" y="1372" on="0"/>
        <pt x="422" y="1372" on="1"/>
      </contour>
    </TTGlyph>
    <TTGlyph name="E" xMin="160" yMin="0" xMax="690" yMax="1462">
      <contour>
        <pt x="690" y="1368" on="1"/>
        <pt x="258" y="1368" on="1"/>
        <pt x="258" y="813" on="1"/>
        <pt x="666" y="813" on="1"/>
        <pt x="666" y="719" on="1"/>
        <pt x="258" y="719" on="1"/>
        <pt x="258" y="94" on="1"/>
        <pt x="690" y="94" on="1"/>
        <pt x="690" y="0" on="1"/>
        <pt x="160" y="0" on="1"/>
        <pt x="160" y="1462" on="1"/>
        <pt x="690" y="1462" on="1"/>
      </contour>
    </TTGlyph>
    <TTGlyph name="Eacute" xMin="160" yMin="0" xMax="690" yMax="1907">
      <contour>
        <pt x="640" y="1907" on="1"/>
        <pt x="640" y="1890" on="1"/>
        <pt x="603" y="1824" on="0"/>
        <pt x="442" y="1638" on="0"/>
        <pt x="371" y="1579" on="1"/>
        <pt x="324" y="1579" on="1"/>
        <pt x="324" y="1600" on="1"/>
        <pt x="450" y="1764" on="0"/>
        <pt x="515" y="1907" on="1"/>
      </contour>
      <contour>
        <pt x="690" y="1368" on="1"/>
        <pt x="258" y="1368" on="1"/>
        <pt x="258" y="813" on="1"/>
        <pt x="666" y="813" on="1"/>
        <pt x="666" y="719" on="1"/>
        <pt x="258" y="719" on="1"/>
        <pt x="258" y="94" on="1"/>
        <pt x="690" y="94" on="1"/>
        <pt x="690" y="0" on="1"/>
        <pt x="160" y="0" on="1"/>
        <pt x="160" y="1462" on="1"/>
        <pt x="690" y="1462" on="1"/>
      </contour>
    </TTGlyph>
    <TTGlyph name="Ecircumflex" xMin="160" yMin="0" xMax="690" yMax="1907">
      <contour>
        <pt x="652" y="1579" on="1"/>
        <pt x="605" y="1579" on="1"/>
        <pt x="563" y="1621" on="0"/>
        <pt x="514" y="1680" on="1"/>
        <pt x="417" y="1792" on="1"/>
        <pt x="398" y="1771" on="0"/>
        <pt x="354" y="1720" on="1"/>
        <pt x="273" y="1626" on="0"/>
        <pt x="224" y="1579" on="1"/>
        <pt x="181" y="1579" on="1"/>
        <pt x="181" y="1598" on="1"/>
        <pt x="302" y="1766" on="0"/>
        <pt x="367" y="1907" on="1"/>
        <pt x="462" y="1907" on="1"/>
        <pt x="485" y="1853" on="0"/>
        <pt x="540" y="1762" on="1"/>
        <pt x="600" y="1667" on="0"/>
        <pt x="652" y="1598" on="1"/>
      </contour>
      <contour>
        <pt x="690" y="1368" on="1"/>
        <pt x="258" y="1368" on="1"/>
        <pt x="258" y="813" on="1"/>
        <pt x="666" y="813" on="1"/>
        <pt x="666" y="719" on="1"/>
        <pt x="258" y="719" on="1"/>
        <pt x="258" y="94" on="1"/>
        <pt x="690" y="94" on="1"/>
        <pt x="690" y="0" on="1"/>
        <pt x="160" y="0" on="1"/>
        <pt x="160" y="1462" on="1"/>
        <pt x="690" y="1462" on="1"/>
      </contour>
    </TTGlyph>
    <TTGlyph name="Edieresis" xMin="160" yMin="0" xMax="690" yMax="1808">
      <contour>
        <pt x="202" y="1767" on="0"/>
        <pt x="239" y="1808" on="0"/>
        <pt x="292" y="1808" on="0"/>
        <pt x="327" y="1767" on="0"/>
        <pt x="327" y="1685" on="0"/>
        <pt x="292" y="1643" on="0"/>
        <pt x="239" y="1643" on="0"/>
        <pt x="202" y="1685" on="0"/>
      </contour>
      <contour>
        <pt x="507" y="1767" on="0"/>
        <pt x="543" y="1808" on="0"/>
        <pt x="596" y="1808" on="0"/>
        <pt x="632" y="1767" on="0"/>
        <pt x="632" y="1685" on="0"/>
        <pt x="596" y="1643" on="0"/>
        <pt x="543" y="1643" on="0"/>
        <pt x="507" y="1686" on="0"/>
      </contour>
      <contour>
        <pt x="690" y="1368" on="1"/>
        <pt x="258" y="1368" on="1"/>
        <pt x="258" y="813" on="1"/>
        <pt x="666" y="813" on="1"/>
        <pt x="666" y="719" on="1"/>
        <pt x="258" y="719" on="1"/>
        <pt x="258" y="94" on="1"/>
        <pt x="690" y="94" on="1"/>
        <pt x="690" y="0" on="1"/>
        <pt x="160" y="0" on="1"/>
        <pt x="160" y="1462" on="1"/>
        <pt x="690" y="1462" on="1"/>
      </contour>
    </TTGlyph>
    <TTGlyph name="Egrave" xMin="160" yMin="0" xMax="690" yMax="1907">
      <contour>
        <pt x="199" y="1907" on="1"/>
        <pt x="324" y="1907" on="1"/>
        <pt x="353" y="1840" on="0"/>
        <pt x="459" y="1670" on="0"/>
        <pt x="515" y="1600" on="1"/>
        <pt x="515" y="1579" on="1"/>
        <pt x="467" y="1579" on="1"/>
        <pt x="404" y="1630" on="0"/>
        <pt x="236" y="1821" on="0"/>
        <pt x="199" y="1890" on="1"/>
      </contour>
      <contour>
        <pt x="690" y="1368" on="1"/>
        <pt x="258" y="1368" on="1"/>
        <pt x="258" y="813" on="1"/>
        <pt x="666" y="813" on="1"/>
        <pt x="666" y="719" on="1"/>
        <pt x="258" y="719" on="1"/>
        <pt x="258" y="94" on="1"/>
        <pt x="690" y="94" on="1"/>
        <pt x="690" y="0" on="1"/>
        <pt x="160" y="0" on="1"/>
        <pt x="160" y="1462" on="1"/>
        <pt x="690" y="1462" on="1"/>
      </contour>
    </TTGlyph>
    <TTGlyph name="Eth" xMin="61" yMin="0" xMax="885" yMax="1462">
      <contour>
        <pt x="160" y="1462" on="1"/>
        <pt x="426" y="1462" on="1"/>
        <pt x="652" y="1462" on="0"/>
        <pt x="885" y="1097" on="0"/>
        <pt x="885" y="745" on="1"/>
        <pt x="885" y="0" on="0"/>
        <pt x="420" y="0" on="1"/>
        <pt x="160" y="0" on="1"/>
        <pt x="160" y="700" on="1"/>
        <pt x="61" y="700" on="1"/>
        <pt x="61" y="791" on="1"/>
        <pt x="160" y="791" on="1"/>
      </contour>
      <contour>
        <pt x="258" y="1372" on="1"/>
        <pt x="258" y="791" on="1"/>
        <pt x="483" y="791" on="1"/>
        <pt x="483" y="700" on="1"/>
        <pt x="258" y="700" on="1"/>
        <pt x="258" y="90" on="1"/>
        <pt x="414" y="90" on="1"/>
        <pt x="782" y="90" on="0"/>
        <pt x="782" y="739" on="1"/>
        <pt x="782" y="1049" on="0"/>
        <pt x="599" y="1372" on="0"/>
        <pt x="422" y="1372" on="1"/>
      </contour>
    </TTGlyph>
    <TTGlyph name="Euro" xMin="35" yMin="-20" xMax="772" yMax="1485">
      <contour>
        <pt x="35" y="899" on="1"/>
        <pt x="176" y="899" on="1"/>
        <pt x="192" y="1168" on="0"/>
        <pt x="395" y="1485" on="0"/>
        <pt x="549" y="1485" on="1"/>
        <pt x="671" y="1485" on="0"/>
        <pt x="772" y="1411" on="1"/>
        <pt x="721" y="1325" on="1"/>
        <pt x="635" y="1386" on="0"/>
        <pt x="553" y="1386" on="1"/>
        <pt x="316" y="1386" on="0"/>
        <pt x="279" y="899" on="1"/>
        <pt x="604" y="899" on="1"/>
        <pt x="604" y="817" on="1"/>
        <pt x="274" y="817" on="1"/>
        <pt x="272" y="741" on="1"/>
        <pt x="272" y="668" on="1"/>
        <pt x="274" y="616" on="1"/>
        <pt x="571" y="616" on="1"/>
        <pt x="571" y="535" on="1"/>
        <pt x="279" y="535" on="1"/>
        <pt x="294" y="302" on="0"/>
        <pt x="437" y="78" on="0"/>
        <pt x="569" y="78" on="1"/>
        <pt x="670" y="78" on="0"/>
        <pt x="756" y="125" on="1"/>
        <pt x="756" y="25" on="1"/>
        <pt x="670" y="-20" on="0"/>
        <pt x="569" y="-20" on="1"/>
        <pt x="393" y="-20" on="0"/>
        <pt x="198" y="255" on="0"/>
        <pt x="176" y="535" on="1"/>
        <pt x="35" y="535" on="1"/>
        <pt x="35" y="616" on="1"/>
        <pt x="172" y="616" on="1"/>
        <pt x="170" y="717" on="1"/>
        <pt x="170" y="756" on="1"/>
        <pt x="172" y="817" on="1"/>
        <pt x="35" y="817" on="1"/>
      </contour>
    </TTGlyph>
    <TTGlyph name="F" xMin="160" yMin="0" xMax="692" yMax="1462">
      <contour>
        <pt x="692" y="1368" on="1"/>
        <pt x="258" y="1368" on="1"/>
        <pt x="258" y="748" on="1"/>
        <pt x="668" y="748" on="1"/>
        <pt x="668" y="653" on="1"/>
        <pt x="258" y="653" on="1"/>
        <pt x="258" y="0" on="1"/>
        <pt x="160" y="0" on="1"/>
        <pt x="160" y="1462" on="1"/>
        <pt x="692" y="1462" on="1"/>
      </contour>
    </TTGlyph>
    <TTGlyph name="G" xMin="111" yMin="-20" xMax="961" yMax="1483">
      <contour>
        <pt x="961" y="737" on="1"/>
        <pt x="961" y="45" on="1"/>
        <pt x="793" y="-20" on="0"/>
        <pt x="614" y="-20" on="1"/>
        <pt x="375" y="-20" on="0"/>
        <pt x="111" y="380" on="0"/>
        <pt x="111" y="1091" on="0"/>
        <pt x="383" y="1483" on="0"/>
        <pt x="631" y="1483" on="1"/>
        <pt x="798" y="1483" on="0"/>
        <pt x="944" y="1389" on="1"/>
        <pt x="897" y="1303" on="1"/>
        <pt x="760" y="1391" on="0"/>
        <pt x="631" y="1391" on="1"/>
        <pt x="427" y="1391" on="0"/>
        <pt x="215" y="1055" on="0"/>
        <pt x="215" y="418" on="0"/>
        <pt x="427" y="74" on="0"/>
        <pt x="623" y="74" on="1"/>
        <pt x="764" y="74" on="0"/>
        <pt x="862" y="111" on="1"/>
        <pt x="862" y="643" on="1"/>
        <pt x="641" y="643" on="1"/>
        <pt x="641" y="737" on="1"/>
      </contour>
    </TTGlyph>
    <TTGlyph name="H" xMin="160" yMin="0" xMax="866" yMax="1462">
      <contour>
        <pt x="866" y="0" on="1"/>
        <pt x="768" y="0" on="1"/>
        <pt x="768" y="719" on="1"/>
        <pt x="258" y="719" on="1"/>
        <pt x="258" y="0" on="1"/>
        <pt x="160" y="0" on="1"/>
        <pt x="160" y="1462" on="1"/>
        <pt x="258" y="1462" on="1"/>
        <pt x="258" y="813" on="1"/>
        <pt x="768" y="813" on="1"/>
        <pt x="768" y="1462" on="1"/>
        <pt x="866" y="1462" on="1"/>
      </contour>
    </TTGlyph>
    <TTGlyph name="I" xMin="160" yMin="0" xMax="258" yMax="1462">
      <contour>
        <pt x="258" y="0" on="1"/>
        <pt x="160" y="0" on="1"/>
        <pt x="160" y="1462" on="1"/>
        <pt x="258" y="1462" on="1"/>
      </contour>
    </TTGlyph>
    <TTGlyph name="Iacute" xMin="154" yMin="0" xMax="470" yMax="1907">
      <contour>
        <pt x="470" y="1907" on="1"/>
        <pt x="470" y="1890" on="1"/>
        <pt x="433" y="1824" on="0"/>
        <pt x="272" y="1638" on="0"/>
        <pt x="201" y="1579" on="1"/>
        <pt x="154" y="1579" on="1"/>
        <pt x="154" y="1600" on="1"/>
        <pt x="280" y="1764" on="0"/>
        <pt x="345" y="1907" on="1"/>
      </contour>
      <contour>
        <pt x="258" y="0" on="1"/>
        <pt x="160" y="0" on="1"/>
        <pt x="160" y="1462" on="1"/>
        <pt x="258" y="1462" on="1"/>
      </contour>
    </TTGlyph>
    <TTGlyph name="Icircumflex" xMin="-26" yMin="0" xMax="445" yMax="1907">
      <contour>
        <pt x="445" y="1579" on="1"/>
        <pt x="398" y="1579" on="1"/>
        <pt x="356" y="1621" on="0"/>
        <pt x="307" y="1680" on="1"/>
        <pt x="210" y="1792" on="1"/>
        <pt x="191" y="1771" on="0"/>
        <pt x="147" y="1720" on="1"/>
        <pt x="66" y="1626" on="0"/>
        <pt x="17" y="1579" on="1"/>
        <pt x="-26" y="1579" on="1"/>
        <pt x="-26" y="1598" on="1"/>
        <pt x="96" y="1766" on="0"/>
        <pt x="160" y="1907" on="1"/>
        <pt x="255" y="1907" on="1"/>
        <pt x="278" y="1853" on="0"/>
        <pt x="333" y="1762" on="1"/>
        <pt x="393" y="1667" on="0"/>
        <pt x="445" y="1598" on="1"/>
      </contour>
      <contour>
        <pt x="258" y="0" on="1"/>
        <pt x="160" y="0" on="1"/>
        <pt x="160" y="1462" on="1"/>
        <pt x="258" y="1462" on="1"/>
      </contour>
    </TTGlyph>
    <TTGlyph name="Idieresis" xMin="-5" yMin="0" xMax="425" yMax="1808">
      <contour>
        <pt x="-5" y="1767" on="0"/>
        <pt x="32" y="1808" on="0"/>
        <pt x="85" y="1808" on="0"/>
        <pt x="120" y="1767" on="0"/>
        <pt x="120" y="1685" on="0"/>
        <pt x="85" y="1643" on="0"/>
        <pt x="32" y="1643" on="0"/>
        <pt x="-5" y="1685" on="0"/>
      </contour>
      <contour>
        <pt x="300" y="1767" on="0"/>
        <pt x="336" y="1808" on="0"/>
        <pt x="389" y="1808" on="0"/>
        <pt x="425" y="1767" on="0"/>
        <pt x="425" y="1685" on="0"/>
        <pt x="389" y="1643" on="0"/>
        <pt x="336" y="1643" on="0"/>
        <pt x="300" y="1686" on="0"/>
      </contour>
      <contour>
        <pt x="258" y="0" on="1"/>
        <pt x="160" y="0" on="1"/>
        <pt x="160" y="1462" on="1"/>
        <pt x="258" y="1462" on="1"/>
      </contour>
    </TTGlyph>
    <TTGlyph name="Igrave" xMin="-34" yMin="0" xMax="282" yMax="1907">
      <contour>
        <pt x="-34" y="1907" on="1"/>
        <pt x="91" y="1907" on="1"/>
        <pt x="120" y="1840" on="0"/>
        <pt x="226" y="1670" on="0"/>
        <pt x="282" y="1600" on="1"/>
        <pt x="282" y="1579" on="1"/>
        <pt x="234" y="1579" on="1"/>
        <pt x="171" y="1630" on="0"/>
        <pt x="3" y="1821" on="0"/>
        <pt x="-34" y="1890" on="1"/>
      </contour>
      <contour>
        <pt x="258" y="0" on="1"/>
        <pt x="160" y="0" on="1"/>
        <pt x="160" y="1462" on="1"/>
        <pt x="258" y="1462" on="1"/>
      </contour>
    </TTGlyph>
    <TTGlyph name="J" xMin="-90" yMin="-369" xMax="248" yMax="1462">
      <contour>
        <pt x="248" y="1462" on="1"/>
        <pt x="248" y="-23" on="1"/>
        <pt x="248" y="-194" on="0"/>
        <pt x="136" y="-369" on="0"/>
        <pt x="27" y="-369" on="1"/>
        <pt x="-41" y="-369" on="0"/>
        <pt x="-90" y="-344" on="1"/>
        <pt x="-90" y="-252" on="1"/>
        <pt x="-39" y="-272" on="0"/>
        <pt x="89" y="-272" on="0"/>
        <pt x="150" y="-155" on="0"/>
        <pt x="150" y="-25" on="1"/>
        <pt x="150" y="1462" on="1"/>
      </contour>
    </TTGlyph>
    <TTGlyph name="K" xMin="160" yMin="0" xMax="825" yMax="1462">
      <contour>
        <pt x="258" y="0" on="1"/>
        <pt x="160" y="0" on="1"/>
        <pt x="160" y="1462" on="1"/>
        <pt x="258" y="1462" on="1"/>
        <pt x="258" y="688" on="1"/>
        <pt x="309" y="784" on="0"/>
        <pt x="690" y="1462" on="1"/>
        <pt x="797" y="1462" on="1"/>
        <pt x="430" y="819" on="1"/>
        <pt x="825" y="0" on="1"/>
        <pt x="715" y="0" on="1"/>
        <pt x="371" y="729" on="1"/>
        <pt x="258" y="580" on="1"/>
      </contour>
    </TTGlyph>
    <TTGlyph name="L" xMin="160" yMin="0" xMax="670" yMax="1462">
      <contour>
        <pt x="258" y="94" on="1"/>
        <pt x="670" y="94" on="1"/>
        <pt x="670" y="0" on="1"/>
        <pt x="160" y="0" on="1"/>
        <pt x="160" y="1462" on="1"/>
        <pt x="258" y="1462" on="1"/>
      </contour>
    </TTGlyph>
    <TTGlyph name="M" xMin="160" yMin="0" xMax="1235" yMax="1462">
      <contour>
        <pt x="1235" y="0" on="1"/>
        <pt x="1137" y="0" on="1"/>
        <pt x="1137" y="1057" on="1"/>
        <pt x="1137" y="1129" on="0"/>
        <pt x="1147" y="1329" on="1"/>
        <pt x="1139" y="1329" on="1"/>
        <pt x="752" y="0" on="1"/>
        <pt x="641" y="0" on="1"/>
        <pt x="252" y="1331" on="1"/>
        <pt x="244" y="1331" on="1"/>
        <pt x="254" y="1131" on="0"/>
        <pt x="254" y="1065" on="1"/>
        <pt x="254" y="0" on="1"/>
        <pt x="160" y="0" on="1"/>
        <pt x="160" y="1462" on="1"/>
        <pt x="305" y="1462" on="1"/>
        <pt x="633" y="344" on="1"/>
        <pt x="676" y="196" on="0"/>
        <pt x="690" y="92" on="1"/>
        <pt x="698" y="92" on="1"/>
        <pt x="710" y="174" on="0"/>
        <pt x="760" y="342" on="1"/>
        <pt x="1085" y="1462" on="1"/>
        <pt x="1235" y="1462" on="1"/>
      </contour>
    </TTGlyph>
    <TTGlyph name="N" xMin="160" yMin="0" xMax="930" yMax="1462">
      <contour>
        <pt x="930" y="0" on="1"/>
        <pt x="805" y="0" on="1"/>
        <pt x="252" y="1311" on="1"/>
        <pt x="244" y="1311" on="1"/>
        <pt x="256" y="1174" on="0"/>
        <pt x="256" y="1049" on="1"/>
        <pt x="256" y="0" on="1"/>
        <pt x="160" y="0" on="1"/>
        <pt x="160" y="1462" on="1"/>
        <pt x="287" y="1462" on="1"/>
        <pt x="836" y="166" on="1"/>
        <pt x="842" y="166" on="1"/>
        <pt x="834" y="340" on="0"/>
        <pt x="834" y="440" on="1"/>
        <pt x="834" y="1462" on="1"/>
        <pt x="930" y="1462" on="1"/>
      </contour>
    </TTGlyph>
    <TTGlyph name="Ntilde" xMin="160" yMin="0" xMax="930" yMax="1792">
      <contour>
        <pt x="685" y="1581" on="1"/>
        <pt x="653" y="1581" on="0"/>
        <pt x="579" y="1621" on="0"/>
        <pt x="551" y="1644" on="1"/>
        <pt x="475" y="1708" on="0"/>
        <pt x="411" y="1708" on="0"/>
        <pt x="367" y="1638" on="0"/>
        <pt x="358" y="1579" on="1"/>
        <pt x="284" y="1579" on="1"/>
        <pt x="296" y="1679" on="0"/>
        <pt x="380" y="1790" on="0"/>
        <pt x="450" y="1790" on="1"/>
        <pt x="482" y="1790" on="0"/>
        <pt x="555" y="1750" on="0"/>
        <pt x="582" y="1726" on="1"/>
        <pt x="655" y="1663" on="0"/>
        <pt x="692" y="1663" on="1"/>
        <pt x="751" y="1663" on="0"/>
        <pt x="771" y="1792" on="1"/>
        <pt x="845" y="1792" on="1"/>
        <pt x="836" y="1691" on="0"/>
        <pt x="752" y="1581" on="0"/>
      </contour>
      <contour>
        <pt x="930" y="0" on="1"/>
        <pt x="805" y="0" on="1"/>
        <pt x="252" y="1311" on="1"/>
        <pt x="244" y="1311" on="1"/>
        <pt x="256" y="1174" on="0"/>
        <pt x="256" y="1049" on="1"/>
        <pt x="256" y="0" on="1"/>
        <pt x="160" y="0" on="1"/>
        <pt x="160" y="1462" on="1"/>
        <pt x="287" y="1462" on="1"/>
        <pt x="836" y="166" on="1"/>
        <pt x="842" y="166" on="1"/>
        <pt x="834" y="340" on="0"/>
        <pt x="834" y="440" on="1"/>
        <pt x="834" y="1462" on="1"/>
        <pt x="930" y="1462" on="1"/>
      </contour>
    </TTGlyph>
    <TTGlyph name="O" xMin="111" yMin="-20" xMax="954" yMax="1483">
      <contour>
        <pt x="535" y="1483" on="1"/>
        <pt x="740" y="1483" on="0"/>
        <pt x="846" y="1288" on="1"/>
        <pt x="954" y="1094" on="0"/>
        <pt x="954" y="369" on="0"/>
        <pt x="737" y="-20" on="0"/>
        <pt x="324" y="-20" on="0"/>
        <pt x="111" y="373" on="0"/>
        <pt x="111" y="735" on="1"/>
        <pt x="111" y="1483" on="0"/>
      </contour>
      <contour>
        <pt x="852" y="1058" on="0"/>
        <pt x="692" y="1389" on="0"/>
        <pt x="375" y="1389" on="0"/>
        <pt x="213" y="1056" on="0"/>
        <pt x="213" y="408" on="0"/>
        <pt x="376" y="74" on="0"/>
        <pt x="690" y="74" on="0"/>
        <pt x="852" y="405" on="0"/>
      </contour>
    </TTGlyph>
    <TTGlyph name="OE" xMin="111" yMin="-6" xMax="1135" yMax="1468">
      <contour>
        <pt x="1135" y="1462" on="1"/>
        <pt x="1135" y="1368" on="1"/>
        <pt x="702" y="1368" on="1"/>
        <pt x="702" y="813" on="1"/>
        <pt x="1110" y="813" on="1"/>
        <pt x="1110" y="719" on="1"/>
        <pt x="702" y="719" on="1"/>
        <pt x="702" y="94" on="1"/>
        <pt x="1135" y="94" on="1"/>
        <pt x="1135" y="0" on="1"/>
        <pt x="711" y="0" on="1"/>
        <pt x="586" y="-6" on="1"/>
        <pt x="111" y="-6" on="0"/>
        <pt x="111" y="735" on="1"/>
        <pt x="111" y="1097" on="0"/>
        <pt x="357" y="1468" on="0"/>
        <pt x="594" y="1468" on="1"/>
        <pt x="709" y="1462" on="1"/>
      </contour>
      <contour>
        <pt x="604" y="88" on="1"/>
        <pt x="604" y="1374" on="1"/>
        <pt x="403" y="1374" on="0"/>
        <pt x="308" y="1224" on="1"/>
        <pt x="215" y="1074" on="0"/>
        <pt x="215" y="394" on="0"/>
        <pt x="307" y="240" on="1"/>
        <pt x="400" y="88" on="0"/>
      </contour>
    </TTGlyph>
    <TTGlyph name="Oacute" xMin="111" yMin="-20" xMax="954" yMax="1907">
      <contour>
        <pt x="775" y="1907" on="1"/>
        <pt x="775" y="1890" on="1"/>
        <pt x="738" y="1824" on="0"/>
        <pt x="576" y="1638" on="0"/>
        <pt x="506" y="1579" on="1"/>
        <pt x="459" y="1579" on="1"/>
        <pt x="459" y="1600" on="1"/>
        <pt x="585" y="1764" on="0"/>
        <pt x="650" y="1907" on="1"/>
      </contour>
      <contour>
        <pt x="535" y="1483" on="1"/>
        <pt x="740" y="1483" on="0"/>
        <pt x="846" y="1288" on="1"/>
        <pt x="954" y="1094" on="0"/>
        <pt x="954" y="369" on="0"/>
        <pt x="737" y="-20" on="0"/>
        <pt x="324" y="-20" on="0"/>
        <pt x="111" y="373" on="0"/>
        <pt x="111" y="735" on="1"/>
        <pt x="111" y="1483" on="0"/>
      </contour>
      <contour>
        <pt x="852" y="1058" on="0"/>
        <pt x="692" y="1389" on="0"/>
        <pt x="375" y="1389" on="0"/>
        <pt x="213" y="1056" on="0"/>
        <pt x="213" y="408" on="0"/>
        <pt x="376" y="74" on="0"/>
        <pt x="690" y="74" on="0"/>
        <pt x="852" y="405" on="0"/>
      </contour>
    </TTGlyph>
    <TTGlyph name="Ocircumflex" xMin="111" yMin="-20" xMax="954" yMax="1907">
      <contour>
        <pt x="767" y="1579" on="1"/>
        <pt x="720" y="1579" on="1"/>
        <pt x="678" y="1621" on="0"/>
        <pt x="629" y="1680" on="1"/>
        <pt x="532" y="1792" on="1"/>
        <pt x="513" y="1771" on="0"/>
        <pt x="469" y="1720" on="1"/>
        <pt x="388" y="1626" on="0"/>
        <pt x="339" y="1579" on="1"/>
        <pt x="296" y="1579" on="1"/>
        <pt x="296" y="1598" on="1"/>
        <pt x="418" y="1766" on="0"/>
        <pt x="482" y="1907" on="1"/>
        <pt x="577" y="1907" on="1"/>
        <pt x="600" y="1853" on="0"/>
        <pt x="655" y="1762" on="1"/>
        <pt x="715" y="1667" on="0"/>
        <pt x="767" y="1598" on="1"/>
      </contour>
      <contour>
        <pt x="535" y="1483" on="1"/>
        <pt x="740" y="1483" on="0"/>
        <pt x="846" y="1288" on="1"/>
        <pt x="954" y="1094" on="0"/>
        <pt x="954" y="369" on="0"/>
        <pt x="737" y="-20" on="0"/>
        <pt x="324" y="-20" on="0"/>
        <pt x="111" y="373" on="0"/>
        <pt x="111" y="735" on="1"/>
        <pt x="111" y="1483" on="0"/>
      </contour>
      <contour>
        <pt x="852" y="1058" on="0"/>
        <pt x="692" y="1389" on="0"/>
        <pt x="375" y="1389" on="0"/>
        <pt x="213" y="1056" on="0"/>
        <pt x="213" y="408" on="0"/>
        <pt x="376" y="74" on="0"/>
        <pt x="690" y="74" on="0"/>
        <pt x="852" y="405" on="0"/>
      </contour>
    </TTGlyph>
    <TTGlyph name="Odieresis" xMin="111" yMin="-20" xMax="954" yMax="1808">
      <contour>
        <pt x="326" y="1767" on="0"/>
        <pt x="363" y="1808" on="0"/>
        <pt x="416" y="1808" on="0"/>
        <pt x="451" y="1767" on="0"/>
        <pt x="451" y="1685" on="0"/>
        <pt x="416" y="1643" on="0"/>
        <pt x="363" y="1643" on="0"/>
        <pt x="326" y="1685" on="0"/>
      </contour>
      <contour>
        <pt x="631" y="1767" on="0"/>
        <pt x="667" y="1808" on="0"/>
        <pt x="720" y="1808" on="0"/>
        <pt x="756" y="1767" on="0"/>
        <pt x="756" y="1685" on="0"/>
        <pt x="720" y="1643" on="0"/>
        <pt x="667" y="1643" on="0"/>
        <pt x="631" y="1686" on="0"/>
      </contour>
      <contour>
        <pt x="535" y="1483" on="1"/>
        <pt x="740" y="1483" on="0"/>
        <pt x="846" y="1288" on="1"/>
        <pt x="954" y="1094" on="0"/>
        <pt x="954" y="369" on="0"/>
        <pt x="737" y="-20" on="0"/>
        <pt x="324" y="-20" on="0"/>
        <pt x="111" y="373" on="0"/>
        <pt x="111" y="735" on="1"/>
        <pt x="111" y="1483" on="0"/>
      </contour>
      <contour>
        <pt x="852" y="1058" on="0"/>
        <pt x="692" y="1389" on="0"/>
        <pt x="375" y="1389" on="0"/>
        <pt x="213" y="1056" on="0"/>
        <pt x="213" y="408" on="0"/>
        <pt x="376" y="74" on="0"/>
        <pt x="690" y="74" on="0"/>
        <pt x="852" y="405" on="0"/>
      </contour>
    </TTGlyph>
    <TTGlyph name="Ograve" xMin="111" yMin="-20" xMax="954" yMax="1907">
      <contour>
        <pt x="283" y="1907" on="1"/>
        <pt x="408" y="1907" on="1"/>
        <pt x="437" y="1840" on="0"/>
        <pt x="543" y="1670" on="0"/>
        <pt x="599" y="1600" on="1"/>
        <pt x="599" y="1579" on="1"/>
        <pt x="551" y="1579" on="1"/>
        <pt x="488" y="1630" on="0"/>
        <pt x="320" y="1821" on="0"/>
        <pt x="283" y="1890" on="1"/>
      </contour>
      <contour>
        <pt x="535" y="1483" on="1"/>
        <pt x="740" y="1483" on="0"/>
        <pt x="846" y="1288" on="1"/>
        <pt x="954" y="1094" on="0"/>
        <pt x="954" y="369" on="0"/>
        <pt x="737" y="-20" on="0"/>
        <pt x="324" y="-20" on="0"/>
        <pt x="111" y="373" on="0"/>
        <pt x="111" y="735" on="1"/>
        <pt x="111" y="1483" on="0"/>
      </contour>
      <contour>
        <pt x="852" y="1058" on="0"/>
        <pt x="692" y="1389" on="0"/>
        <pt x="375" y="1389" on="0"/>
        <pt x="213" y="1056" on="0"/>
        <pt x="213" y="408" on="0"/>
        <pt x="376" y="74" on="0"/>
        <pt x="690" y="74" on="0"/>
        <pt x="852" y="405" on="0"/>
      </contour>
    </TTGlyph>
    <TTGlyph name="Oslash" xMin="96" yMin="-94" xMax="983" yMax="1542">
      <contour>
        <pt x="860" y="1262" on="1"/>
        <pt x="954" y="1073" on="0"/>
        <pt x="954" y="369" on="0"/>
        <pt x="737" y="-20" on="0"/>
        <pt x="532" y="-20" on="1"/>
        <pt x="374" y="-20" on="0"/>
        <pt x="272" y="94" on="1"/>
        <pt x="178" y="-94" on="1"/>
        <pt x="96" y="-57" on="1"/>
        <pt x="215" y="180" on="1"/>
        <pt x="111" y="374" on="0"/>
        <pt x="111" y="735" on="1"/>
        <pt x="111" y="1483" on="0"/>
        <pt x="535" y="1483" on="1"/>
        <pt x="698" y="1483" on="0"/>
        <pt x="805" y="1352" on="1"/>
        <pt x="901" y="1542" on="1"/>
        <pt x="983" y="1501" on="1"/>
      </contour>
      <contour>
        <pt x="535" y="1389" on="1"/>
        <pt x="375" y="1389" on="0"/>
        <pt x="213" y="1056" on="0"/>
        <pt x="213" y="452" on="0"/>
        <pt x="272" y="293" on="1"/>
        <pt x="756" y="1251" on="1"/>
        <pt x="676" y="1389" on="0"/>
      </contour>
      <contour>
        <pt x="532" y="74" on="1"/>
        <pt x="690" y="74" on="0"/>
        <pt x="852" y="405" on="0"/>
        <pt x="852" y="733" on="1"/>
        <pt x="852" y="986" on="0"/>
        <pt x="803" y="1145" on="1"/>
        <pt x="322" y="190" on="1"/>
        <pt x="399" y="74" on="0"/>
      </contour>
    </TTGlyph>
    <TTGlyph name="Otilde" xMin="111" yMin="-20" xMax="954" yMax="1792">
      <contour>
        <pt x="662" y="1581" on="1"/>
        <pt x="630" y="1581" on="0"/>
        <pt x="556" y="1621" on="0"/>
        <pt x="528" y="1644" on="1"/>
        <pt x="452" y="1708" on="0"/>
        <pt x="388" y="1708" on="0"/>
        <pt x="344" y="1638" on="0"/>
        <pt x="335" y="1579" on="1"/>
        <pt x="261" y="1579" on="1"/>
        <pt x="273" y="1679" on="0"/>
        <pt x="357" y="1790" on="0"/>
        <pt x="427" y="1790" on="1"/>
        <pt x="459" y="1790" on="0"/>
        <pt x="532" y="1750" on="0"/>
        <pt x="559" y="1726" on="1"/>
        <pt x="632" y="1663" on="0"/>
        <pt x="669" y="1663" on="1"/>
        <pt x="728" y="1663" on="0"/>
        <pt x="748" y="1792" on="1"/>
        <pt x="822" y="1792" on="1"/>
        <pt x="813" y="1691" on="0"/>
        <pt x="729" y="1581" on="0"/>
      </contour>
      <contour>
        <pt x="535" y="1483" on="1"/>
        <pt x="740" y="1483" on="0"/>
        <pt x="846" y="1288" on="1"/>
        <pt x="954" y="1094" on="0"/>
        <pt x="954" y="369" on="0"/>
        <pt x="737" y="-20" on="0"/>
        <pt x="324" y="-20" on="0"/>
        <pt x="111" y="373" on="0"/>
        <pt x="111" y="735" on="1"/>
        <pt x="111" y="1483" on="0"/>
      </contour>
      <contour>
        <pt x="852" y="1058" on="0"/>
        <pt x="692" y="1389" on="0"/>
        <pt x="375" y="1389" on="0"/>
        <pt x="213" y="1056" on="0"/>
        <pt x="213" y="408" on="0"/>
        <pt x="376" y="74" on="0"/>
        <pt x="690" y="74" on="0"/>
        <pt x="852" y="405" on="0"/>
      </contour>
    </TTGlyph>
    <TTGlyph name="P" xMin="160" yMin="0" xMax="772" yMax="1462">
      <contour>
        <pt x="160" y="1462" on="1"/>
        <pt x="360" y="1462" on="1"/>
        <pt x="574" y="1462" on="0"/>
        <pt x="772" y="1260" on="0"/>
        <pt x="772" y="818" on="0"/>
        <pt x="567" y="604" on="0"/>
        <pt x="362" y="604" on="1"/>
        <pt x="258" y="604" on="1"/>
        <pt x="258" y="0" on="1"/>
        <pt x="160" y="0" on="1"/>
      </contour>
      <contour>
        <pt x="258" y="1372" on="1"/>
        <pt x="258" y="694" on="1"/>
        <pt x="356" y="694" on="1"/>
        <pt x="528" y="694" on="0"/>
        <pt x="672" y="856" on="0"/>
        <pt x="672" y="1217" on="0"/>
        <pt x="525" y="1372" on="0"/>
        <pt x="367" y="1372" on="1"/>
      </contour>
    </TTGlyph>
    <TTGlyph name="Q" xMin="111" yMin="-348" xMax="954" yMax="1483">
      <contour>
        <pt x="111" y="735" on="1"/>
        <pt x="111" y="1483" on="0"/>
        <pt x="535" y="1483" on="1"/>
        <pt x="740" y="1483" on="0"/>
        <pt x="846" y="1288" on="1"/>
        <pt x="954" y="1094" on="0"/>
        <pt x="954" y="733" on="1"/>
        <pt x="954" y="443" on="0"/>
        <pt x="813" y="72" on="0"/>
        <pt x="680" y="10" on="1"/>
        <pt x="893" y="-348" on="1"/>
        <pt x="768" y="-348" on="1"/>
        <pt x="582" y="-16" on="1"/>
        <pt x="532" y="-20" on="1"/>
        <pt x="324" y="-20" on="0"/>
        <pt x="111" y="373" on="0"/>
      </contour>
      <contour>
        <pt x="852" y="1058" on="0"/>
        <pt x="692" y="1389" on="0"/>
        <pt x="375" y="1389" on="0"/>
        <pt x="213" y="1056" on="0"/>
        <pt x="213" y="408" on="0"/>
        <pt x="376" y="74" on="0"/>
        <pt x="690" y="74" on="0"/>
        <pt x="852" y="405" on="0"/>
      </contour>
    </TTGlyph>
    <TTGlyph name="R" xMin="160" yMin="0" xMax="827" yMax="1462">
      <contour>
        <pt x="160" y="1462" on="1"/>
        <pt x="360" y="1462" on="1"/>
        <pt x="572" y="1462" on="0"/>
        <pt x="772" y="1262" on="0"/>
        <pt x="772" y="1059" on="1"/>
        <pt x="772" y="903" on="0"/>
        <pt x="661" y="710" on="0"/>
        <pt x="537" y="662" on="1"/>
        <pt x="827" y="0" on="1"/>
        <pt x="717" y="0" on="1"/>
        <pt x="444" y="639" on="1"/>
        <pt x="258" y="639" on="1"/>
        <pt x="258" y="0" on="1"/>
        <pt x="160" y="0" on="1"/>
      </contour>
      <contour>
        <pt x="258" y="1366" on="1"/>
        <pt x="258" y="729" on="1"/>
        <pt x="395" y="729" on="1"/>
        <pt x="529" y="729" on="0"/>
        <pt x="672" y="894" on="0"/>
        <pt x="672" y="1219" on="0"/>
        <pt x="526" y="1366" on="0"/>
        <pt x="367" y="1366" on="1"/>
      </contour>
    </TTGlyph>
    <TTGlyph name="S" xMin="86" yMin="-20" xMax="721" yMax="1483">
      <contour>
        <pt x="367" y="74" on="1"/>
        <pt x="479" y="74" on="0"/>
        <pt x="623" y="244" on="0"/>
        <pt x="623" y="496" on="0"/>
        <pt x="520" y="639" on="0"/>
        <pt x="377" y="709" on="1"/>
        <pt x="263" y="767" on="0"/>
        <pt x="152" y="873" on="0"/>
        <pt x="98" y="1014" on="0"/>
        <pt x="98" y="1114" on="1"/>
        <pt x="98" y="1120" on="0"/>
        <pt x="98" y="1126" on="1"/>
        <pt x="98" y="1277" on="0"/>
        <pt x="293" y="1483" on="0"/>
        <pt x="433" y="1483" on="1"/>
        <pt x="435" y="1483" on="0"/>
        <pt x="438" y="1483" on="1"/>
        <pt x="592" y="1483" on="0"/>
        <pt x="702" y="1423" on="1"/>
        <pt x="664" y="1329" on="1"/>
        <pt x="553" y="1386" on="0"/>
        <pt x="330" y="1386" on="0"/>
        <pt x="195" y="1239" on="0"/>
        <pt x="195" y="994" on="0"/>
        <pt x="294" y="860" on="0"/>
        <pt x="436" y="786" on="1"/>
        <pt x="584" y="714" on="0"/>
        <pt x="721" y="521" on="0"/>
        <pt x="721" y="383" on="1"/>
        <pt x="721" y="203" on="0"/>
        <pt x="621" y="91" on="1"/>
        <pt x="520" y="-20" on="0"/>
        <pt x="367" y="-20" on="1"/>
        <pt x="192" y="-20" on="0"/>
        <pt x="86" y="31" on="1"/>
        <pt x="86" y="137" on="1"/>
        <pt x="142" y="107" on="0"/>
        <pt x="294" y="74" on="0"/>
      </contour>
    </TTGlyph>
    <TTGlyph name="Scaron" xMin="86" yMin="-20" xMax="721" yMax="1907">
      <contour>
        <pt x="675" y="1907" on="1"/>
        <pt x="675" y="1888" on="1"/>
        <pt x="619" y="1816" on="0"/>
        <pt x="509" y="1633" on="0"/>
        <pt x="485" y="1579" on="1"/>
        <pt x="390" y="1579" on="1"/>
        <pt x="320" y="1728" on="0"/>
        <pt x="204" y="1888" on="1"/>
        <pt x="204" y="1907" on="1"/>
        <pt x="247" y="1907" on="1"/>
        <pt x="296" y="1860" on="0"/>
        <pt x="421" y="1715" on="0"/>
        <pt x="440" y="1694" on="1"/>
        <pt x="489" y="1749" on="1"/>
        <pt x="600" y="1882" on="0"/>
        <pt x="628" y="1907" on="1"/>
      </contour>
      <contour>
        <pt x="367" y="74" on="1"/>
        <pt x="479" y="74" on="0"/>
        <pt x="623" y="244" on="0"/>
        <pt x="623" y="496" on="0"/>
        <pt x="520" y="639" on="0"/>
        <pt x="377" y="709" on="1"/>
        <pt x="263" y="767" on="0"/>
        <pt x="152" y="873" on="0"/>
        <pt x="98" y="1014" on="0"/>
        <pt x="98" y="1114" on="1"/>
        <pt x="98" y="1120" on="0"/>
        <pt x="98" y="1126" on="1"/>
        <pt x="98" y="1277" on="0"/>
        <pt x="293" y="1483" on="0"/>
        <pt x="433" y="1483" on="1"/>
        <pt x="435" y="1483" on="0"/>
        <pt x="438" y="1483" on="1"/>
        <pt x="592" y="1483" on="0"/>
        <pt x="702" y="1423" on="1"/>
        <pt x="664" y="1329" on="1"/>
        <pt x="553" y="1386" on="0"/>
        <pt x="330" y="1386" on="0"/>
        <pt x="195" y="1239" on="0"/>
        <pt x="195" y="994" on="0"/>
        <pt x="294" y="860" on="0"/>
        <pt x="436" y="786" on="1"/>
        <pt x="584" y="714" on="0"/>
        <pt x="721" y="521" on="0"/>
        <pt x="721" y="383" on="1"/>
        <pt x="721" y="203" on="0"/>
        <pt x="621" y="91" on="1"/>
        <pt x="520" y="-20" on="0"/>
        <pt x="367" y="-20" on="1"/>
        <pt x="192" y="-20" on="0"/>
        <pt x="86" y="31" on="1"/>
        <pt x="86" y="137" on="1"/>
        <pt x="142" y="107" on="0"/>
        <pt x="294" y="74" on="0"/>
      </contour>
    </TTGlyph>
    <TTGlyph name="T" xMin="14" yMin="0" xMax="694" yMax="1462">
      <contour>
        <pt x="694" y="1368" on="1"/>
        <pt x="403" y="1368" on="1"/>
        <pt x="403" y="0" on="1"/>
        <pt x="305" y="0" on="1"/>
        <pt x="305" y="1368" on="1"/>
        <pt x="14" y="1368" on="1"/>
        <pt x="14" y="1462" on="1"/>
        <pt x="694" y="1462" on="1"/>
      </contour>
    </TTGlyph>
    <TTGlyph name="Thorn" xMin="160" yMin="0" xMax="772" yMax="1462">
      <contour>
        <pt x="258" y="1192" on="1"/>
        <pt x="360" y="1192" on="1"/>
        <pt x="573" y="1192" on="0"/>
        <pt x="772" y="994" on="0"/>
        <pt x="772" y="784" on="1"/>
        <pt x="772" y="334" on="0"/>
        <pt x="365" y="334" on="1"/>
        <pt x="258" y="334" on="1"/>
        <pt x="258" y="0" on="1"/>
        <pt x="160" y="0" on="1"/>
        <pt x="160" y="1462" on="1"/>
        <pt x="258" y="1462" on="1"/>
      </contour>
      <contour>
        <pt x="258" y="1096" on="1"/>
        <pt x="258" y="428" on="1"/>
        <pt x="356" y="428" on="1"/>
        <pt x="525" y="428" on="0"/>
        <pt x="599" y="505" on="1"/>
        <pt x="672" y="582" on="0"/>
        <pt x="672" y="945" on="0"/>
        <pt x="600" y="1020" on="1"/>
        <pt x="530" y="1096" on="0"/>
        <pt x="367" y="1096" on="1"/>
      </contour>
    </TTGlyph>
    <TTGlyph name="U" xMin="147" yMin="-20" xMax="864" yMax="1462">
      <contour>
        <pt x="864" y="1462" on="1"/>
        <pt x="864" y="475" on="1"/>
        <pt x="864" y="-20" on="0"/>
        <pt x="510" y="-20" on="1"/>
        <pt x="333" y="-20" on="0"/>
        <pt x="147" y="235" on="0"/>
        <pt x="147" y="475" on="1"/>
        <pt x="147" y="1462" on="1"/>
        <pt x="246" y="1462" on="1"/>
        <pt x="246" y="463" on="1"/>
        <pt x="246" y="274" on="0"/>
        <pt x="383" y="74" on="0"/>
        <pt x="636" y="74" on="0"/>
        <pt x="766" y="273" on="0"/>
        <pt x="766" y="467" on="1"/>
        <pt x="766" y="1462" on="1"/>
      </contour>
    </TTGlyph>
    <TTGlyph name="Uacute" xMin="147" yMin="-20" xMax="864" yMax="1907">
      <contour>
        <pt x="739" y="1907" on="1"/>
        <pt x="739" y="1890" on="1"/>
        <pt x="702" y="1824" on="0"/>
        <pt x="540" y="1638" on="0"/>
        <pt x="470" y="1579" on="1"/>
        <pt x="423" y="1579" on="1"/>
        <pt x="423" y="1600" on="1"/>
        <pt x="549" y="1764" on="0"/>
        <pt x="614" y="1907" on="1"/>
      </contour>
      <contour>
        <pt x="864" y="1462" on="1"/>
        <pt x="864" y="475" on="1"/>
        <pt x="864" y="-20" on="0"/>
        <pt x="510" y="-20" on="1"/>
        <pt x="333" y="-20" on="0"/>
        <pt x="147" y="235" on="0"/>
        <pt x="147" y="475" on="1"/>
        <pt x="147" y="1462" on="1"/>
        <pt x="246" y="1462" on="1"/>
        <pt x="246" y="463" on="1"/>
        <pt x="246" y="274" on="0"/>
        <pt x="383" y="74" on="0"/>
        <pt x="636" y="74" on="0"/>
        <pt x="766" y="273" on="0"/>
        <pt x="766" y="467" on="1"/>
        <pt x="766" y="1462" on="1"/>
      </contour>
    </TTGlyph>
    <TTGlyph name="Ucircumflex" xMin="147" yMin="-20" xMax="864" yMax="1907">
      <contour>
        <pt x="742" y="1579" on="1"/>
        <pt x="695" y="1579" on="1"/>
        <pt x="653" y="1621" on="0"/>
        <pt x="604" y="1680" on="1"/>
        <pt x="507" y="1792" on="1"/>
        <pt x="488" y="1771" on="0"/>
        <pt x="444" y="1720" on="1"/>
        <pt x="363" y="1626" on="0"/>
        <pt x="314" y="1579" on="1"/>
        <pt x="271" y="1579" on="1"/>
        <pt x="271" y="1598" on="1"/>
        <pt x="392" y="1766" on="0"/>
        <pt x="457" y="1907" on="1"/>
        <pt x="552" y="1907" on="1"/>
        <pt x="575" y="1853" on="0"/>
        <pt x="630" y="1762" on="1"/>
        <pt x="690" y="1667" on="0"/>
        <pt x="742" y="1598" on="1"/>
      </contour>
      <contour>
        <pt x="864" y="1462" on="1"/>
        <pt x="864" y="475" on="1"/>
        <pt x="864" y="-20" on="0"/>
        <pt x="510" y="-20" on="1"/>
        <pt x="333" y="-20" on="0"/>
        <pt x="147" y="235" on="0"/>
        <pt x="147" y="475" on="1"/>
        <pt x="147" y="1462" on="1"/>
        <pt x="246" y="1462" on="1"/>
        <pt x="246" y="463" on="1"/>
        <pt x="246" y="274" on="0"/>
        <pt x="383" y="74" on="0"/>
        <pt x="636" y="74" on="0"/>
        <pt x="766" y="273" on="0"/>
        <pt x="766" y="467" on="1"/>
        <pt x="766" y="1462" on="1"/>
      </contour>
    </TTGlyph>
    <TTGlyph name="Udieresis" xMin="147" yMin="-20" xMax="864" yMax="1808">
      <contour>
        <pt x="292" y="1767" on="0"/>
        <pt x="329" y="1808" on="0"/>
        <pt x="382" y="1808" on="0"/>
        <pt x="417" y="1767" on="0"/>
        <pt x="417" y="1685" on="0"/>
        <pt x="382" y="1643" on="0"/>
        <pt x="329" y="1643" on="0"/>
        <pt x="292" y="1685" on="0"/>
      </contour>
      <contour>
        <pt x="597" y="1767" on="0"/>
        <pt x="633" y="1808" on="0"/>
        <pt x="686" y="1808" on="0"/>
        <pt x="722" y="1767" on="0"/>
        <pt x="722" y="1685" on="0"/>
        <pt x="686" y="1643" on="0"/>
        <pt x="633" y="1643" on="0"/>
        <pt x="597" y="1686" on="0"/>
      </contour>
      <contour>
        <pt x="864" y="1462" on="1"/>
        <pt x="864" y="475" on="1"/>
        <pt x="864" y="-20" on="0"/>
        <pt x="510" y="-20" on="1"/>
        <pt x="333" y="-20" on="0"/>
        <pt x="147" y="235" on="0"/>
        <pt x="147" y="475" on="1"/>
        <pt x="147" y="1462" on="1"/>
        <pt x="246" y="1462" on="1"/>
        <pt x="246" y="463" on="1"/>
        <pt x="246" y="274" on="0"/>
        <pt x="383" y="74" on="0"/>
        <pt x="636" y="74" on="0"/>
        <pt x="766" y="273" on="0"/>
        <pt x="766" y="467" on="1"/>
        <pt x="766" y="1462" on="1"/>
      </contour>
    </TTGlyph>
    <TTGlyph name="Ugrave" xMin="147" yMin="-20" xMax="864" yMax="1907">
      <contour>
        <pt x="277" y="1907" on="1"/>
        <pt x="402" y="1907" on="1"/>
        <pt x="431" y="1840" on="0"/>
        <pt x="537" y="1670" on="0"/>
        <pt x="593" y="1600" on="1"/>
        <pt x="593" y="1579" on="1"/>
        <pt x="545" y="1579" on="1"/>
        <pt x="482" y="1630" on="0"/>
        <pt x="314" y="1821" on="0"/>
        <pt x="277" y="1890" on="1"/>
      </contour>
      <contour>
        <pt x="864" y="1462" on="1"/>
        <pt x="864" y="475" on="1"/>
        <pt x="864" y="-20" on="0"/>
        <pt x="510" y="-20" on="1"/>
        <pt x="333" y="-20" on="0"/>
        <pt x="147" y="235" on="0"/>
        <pt x="147" y="475" on="1"/>
        <pt x="147" y="1462" on="1"/>
        <pt x="246" y="1462" on="1"/>
        <pt x="246" y="463" on="1"/>
        <pt x="246" y="274" on="0"/>
        <pt x="383" y="74" on="0"/>
        <pt x="636" y="74" on="0"/>
        <pt x="766" y="273" on="0"/>
        <pt x="766" y="467" on="1"/>
        <pt x="766" y="1462" on="1"/>
      </contour>
    </TTGlyph>
    <TTGlyph name="V" xMin="0" yMin="0" xMax="799" yMax="1462">
      <contour>
        <pt x="453" y="0" on="1"/>
        <pt x="344" y="0" on="1"/>
        <pt x="0" y="1462" on="1"/>
        <pt x="102" y="1462" on="1"/>
        <pt x="340" y="434" on="1"/>
        <pt x="367" y="322" on="0"/>
        <pt x="386" y="204" on="0"/>
        <pt x="395" y="121" on="1"/>
        <pt x="416" y="270" on="0"/>
        <pt x="429" y="329" on="1"/>
        <pt x="698" y="1462" on="1"/>
        <pt x="799" y="1462" on="1"/>
      </contour>
    </TTGlyph>
    <TTGlyph name="W" xMin="10" yMin="0" xMax="1384" yMax="1462">
      <contour>
        <pt x="1073" y="0" on="1"/>
        <pt x="954" y="0" on="1"/>
        <pt x="731" y="1094" on="1"/>
        <pt x="724" y="1126" on="0"/>
        <pt x="696" y="1333" on="1"/>
        <pt x="659" y="1096" on="1"/>
        <pt x="440" y="0" on="1"/>
        <pt x="324" y="0" on="1"/>
        <pt x="10" y="1462" on="1"/>
        <pt x="113" y="1462" on="1"/>
        <pt x="319" y="455" on="1"/>
        <pt x="368" y="201" on="0"/>
        <pt x="381" y="111" on="1"/>
        <pt x="403" y="270" on="0"/>
        <pt x="438" y="451" on="1"/>
        <pt x="643" y="1462" on="1"/>
        <pt x="754" y="1462" on="1"/>
        <pt x="958" y="455" on="1"/>
        <pt x="992" y="276" on="0"/>
        <pt x="1004" y="185" on="1"/>
        <pt x="1014" y="111" on="1"/>
        <pt x="1042" y="320" on="0"/>
        <pt x="1071" y="455" on="1"/>
        <pt x="1284" y="1462" on="1"/>
        <pt x="1384" y="1462" on="1"/>
      </contour>
    </TTGlyph>
    <TTGlyph name="X" xMin="20" yMin="0" xMax="694" yMax="1462">
      <contour>
        <pt x="436" y="754" on="1"/>
        <pt x="694" y="0" on="1"/>
        <pt x="592" y="0" on="1"/>
        <pt x="373" y="672" on="1"/>
        <pt x="119" y="0" on="1"/>
        <pt x="20" y="0" on="1"/>
        <pt x="326" y="776" on="1"/>
        <pt x="63" y="1462" on="1"/>
        <pt x="166" y="1462" on="1"/>
        <pt x="383" y="854" on="1"/>
        <pt x="594" y="1462" on="1"/>
        <pt x="694" y="1462" on="1"/>
      </contour>
    </TTGlyph>
    <TTGlyph name="Y" xMin="0" yMin="0" xMax="686" yMax="1462">
      <contour>
        <pt x="391" y="0" on="1"/>
        <pt x="293" y="0" on="1"/>
        <pt x="293" y="571" on="1"/>
        <pt x="0" y="1462" on="1"/>
        <pt x="104" y="1462" on="1"/>
        <pt x="344" y="707" on="1"/>
        <pt x="582" y="1462" on="1"/>
        <pt x="686" y="1462" on="1"/>
        <pt x="391" y="571" on="1"/>
      </contour>
    </TTGlyph>
    <TTGlyph name="Yacute" xMin="0" yMin="0" xMax="686" yMax="1907">
      <contour>
        <pt x="587" y="1907" on="1"/>
        <pt x="587" y="1890" on="1"/>
        <pt x="550" y="1824" on="0"/>
        <pt x="388" y="1638" on="0"/>
        <pt x="318" y="1579" on="1"/>
        <pt x="271" y="1579" on="1"/>
        <pt x="271" y="1600" on="1"/>
        <pt x="397" y="1764" on="0"/>
        <pt x="462" y="1907" on="1"/>
      </contour>
      <contour>
        <pt x="391" y="0" on="1"/>
        <pt x="293" y="0" on="1"/>
        <pt x="293" y="571" on="1"/>
        <pt x="0" y="1462" on="1"/>
        <pt x="104" y="1462" on="1"/>
        <pt x="344" y="707" on="1"/>
        <pt x="582" y="1462" on="1"/>
        <pt x="686" y="1462" on="1"/>
        <pt x="391" y="571" on="1"/>
      </contour>
    </TTGlyph>
    <TTGlyph name="Ydieresis" xMin="0" yMin="0" xMax="686" yMax="1808">
      <contour>
        <pt x="130" y="1767" on="0"/>
        <pt x="167" y="1808" on="0"/>
        <pt x="220" y="1808" on="0"/>
        <pt x="255" y="1767" on="0"/>
        <pt x="255" y="1685" on="0"/>
        <pt x="220" y="1643" on="0"/>
        <pt x="167" y="1643" on="0"/>
        <pt x="130" y="1685" on="0"/>
      </contour>
      <contour>
        <pt x="435" y="1767" on="0"/>
        <pt x="471" y="1808" on="0"/>
        <pt x="524" y="1808" on="0"/>
        <pt x="560" y="1767" on="0"/>
        <pt x="560" y="1685" on="0"/>
        <pt x="524" y="1643" on="0"/>
        <pt x="471" y="1643" on="0"/>
        <pt x="435" y="1686" on="0"/>
      </contour>
      <contour>
        <pt x="391" y="0" on="1"/>
        <pt x="293" y="0" on="1"/>
        <pt x="293" y="571" on="1"/>
        <pt x="0" y="1462" on="1"/>
        <pt x="104" y="1462" on="1"/>
        <pt x="344" y="707" on="1"/>
        <pt x="582" y="1462" on="1"/>
        <pt x="686" y="1462" on="1"/>
        <pt x="391" y="571" on="1"/>
      </contour>
    </TTGlyph>
    <TTGlyph name="Z" xMin="57" yMin="0" xMax="602" yMax="1462">
      <contour>
        <pt x="602" y="94" on="1"/>
        <pt x="602" y="0" on="1"/>
        <pt x="57" y="0" on="1"/>
        <pt x="57" y="88" on="1"/>
        <pt x="481" y="1366" on="1"/>
        <pt x="63" y="1366" on="1"/>
        <pt x="63" y="1462" on="1"/>
        <pt x="590" y="1462" on="1"/>
        <pt x="590" y="1372" on="1"/>
        <pt x="160" y="94" on="1"/>
      </contour>
    </TTGlyph>
    <TTGlyph name="Zcaron" xMin="57" yMin="0" xMax="602" yMax="1907">
      <contour>
        <pt x="562" y="1907" on="1"/>
        <pt x="562" y="1888" on="1"/>
        <pt x="506" y="1816" on="0"/>
        <pt x="396" y="1633" on="0"/>
        <pt x="372" y="1579" on="1"/>
        <pt x="277" y="1579" on="1"/>
        <pt x="206" y="1728" on="0"/>
        <pt x="91" y="1888" on="1"/>
        <pt x="91" y="1907" on="1"/>
        <pt x="134" y="1907" on="1"/>
        <pt x="183" y="1860" on="0"/>
        <pt x="308" y="1715" on="0"/>
        <pt x="327" y="1694" on="1"/>
        <pt x="376" y="1749" on="1"/>
        <pt x="487" y="1882" on="0"/>
        <pt x="515" y="1907" on="1"/>
      </contour>
      <contour>
        <pt x="602" y="94" on="1"/>
        <pt x="602" y="0" on="1"/>
        <pt x="57" y="0" on="1"/>
        <pt x="57" y="88" on="1"/>
        <pt x="481" y="1366" on="1"/>
        <pt x="63" y="1366" on="1"/>
        <pt x="63" y="1462" on="1"/>
        <pt x="590" y="1462" on="1"/>
        <pt x="590" y="1372" on="1"/>
        <pt x="160" y="94" on="1"/>
      </contour>
    </TTGlyph>
    <TTGlyph name="a" xMin="78" yMin="-20" xMax="643" yMax="1106">
      <contour>
        <pt x="154" y="1036" on="1"/>
        <pt x="266" y="1106" on="0"/>
        <pt x="526" y="1106" on="0"/>
        <pt x="643" y="936" on="0"/>
        <pt x="643" y="739" on="1"/>
        <pt x="643" y="0" on="1"/>
        <pt x="565" y="0" on="1"/>
        <pt x="553" y="152" on="1"/>
        <pt x="549" y="152" on="1"/>
        <pt x="471" y="-20" on="0"/>
        <pt x="313" y="-20" on="1"/>
        <pt x="206" y="-20" on="0"/>
        <pt x="142" y="64" on="1"/>
        <pt x="78" y="149" on="0"/>
        <pt x="78" y="446" on="0"/>
        <pt x="264" y="627" on="0"/>
        <pt x="432" y="635" on="1"/>
        <pt x="549" y="641" on="1"/>
        <pt x="549" y="731" on="1"/>
        <pt x="549" y="884" on="0"/>
        <pt x="472" y="1022" on="0"/>
        <pt x="292" y="1022" on="0"/>
        <pt x="195" y="961" on="1"/>
      </contour>
      <contour>
        <pt x="178" y="289" on="1"/>
        <pt x="178" y="174" on="0"/>
        <pt x="260" y="61" on="0"/>
        <pt x="334" y="61" on="1"/>
        <pt x="436" y="61" on="0"/>
        <pt x="549" y="263" on="0"/>
        <pt x="549" y="446" on="1"/>
        <pt x="549" y="559" on="1"/>
        <pt x="436" y="553" on="1"/>
        <pt x="178" y="540" on="0"/>
      </contour>
    </TTGlyph>
    <TTGlyph name="aacute" xMin="78" yMin="-20" xMax="643" yMax="1569">
      <contour>
        <pt x="606" y="1569" on="1"/>
        <pt x="606" y="1552" on="1"/>
        <pt x="569" y="1486" on="0"/>
        <pt x="408" y="1300" on="0"/>
        <pt x="337" y="1241" on="1"/>
        <pt x="290" y="1241" on="1"/>
        <pt x="290" y="1262" on="1"/>
        <pt x="416" y="1426" on="0"/>
        <pt x="481" y="1569" on="1"/>
      </contour>
      <contour>
        <pt x="154" y="1036" on="1"/>
        <pt x="266" y="1106" on="0"/>
        <pt x="526" y="1106" on="0"/>
        <pt x="643" y="936" on="0"/>
        <pt x="643" y="739" on="1"/>
        <pt x="643" y="0" on="1"/>
        <pt x="565" y="0" on="1"/>
        <pt x="553" y="152" on="1"/>
        <pt x="549" y="152" on="1"/>
        <pt x="471" y="-20" on="0"/>
        <pt x="313" y="-20" on="1"/>
        <pt x="206" y="-20" on="0"/>
        <pt x="142" y="64" on="1"/>
        <pt x="78" y="149" on="0"/>
        <pt x="78" y="446" on="0"/>
        <pt x="264" y="627" on="0"/>
        <pt x="432" y="635" on="1"/>
        <pt x="549" y="641" on="1"/>
        <pt x="549" y="731" on="1"/>
        <pt x="549" y="884" on="0"/>
        <pt x="472" y="1022" on="0"/>
        <pt x="292" y="1022" on="0"/>
        <pt x="195" y="961" on="1"/>
      </contour>
      <contour>
        <pt x="178" y="289" on="1"/>
        <pt x="178" y="174" on="0"/>
        <pt x="260" y="61" on="0"/>
        <pt x="334" y="61" on="1"/>
        <pt x="436" y="61" on="0"/>
        <pt x="549" y="263" on="0"/>
        <pt x="549" y="446" on="1"/>
        <pt x="549" y="559" on="1"/>
        <pt x="436" y="553" on="1"/>
        <pt x="178" y="540" on="0"/>
      </contour>
    </TTGlyph>
    <TTGlyph name="acircumflex" xMin="78" yMin="-20" xMax="643" yMax="1571">
      <contour>
        <pt x="621" y="1243" on="1"/>
        <pt x="574" y="1243" on="1"/>
        <pt x="532" y="1285" on="0"/>
        <pt x="483" y="1344" on="1"/>
        <pt x="386" y="1456" on="1"/>
        <pt x="367" y="1435" on="0"/>
        <pt x="323" y="1384" on="1"/>
        <pt x="242" y="1290" on="0"/>
        <pt x="193" y="1243" on="1"/>
        <pt x="150" y="1243" on="1"/>
        <pt x="150" y="1262" on="1"/>
        <pt x="272" y="1430" on="0"/>
        <pt x="336" y="1571" on="1"/>
        <pt x="431" y="1571" on="1"/>
        <pt x="454" y="1517" on="0"/>
        <pt x="509" y="1426" on="1"/>
        <pt x="569" y="1331" on="0"/>
        <pt x="621" y="1262" on="1"/>
      </contour>
      <contour>
        <pt x="154" y="1036" on="1"/>
        <pt x="266" y="1106" on="0"/>
        <pt x="526" y="1106" on="0"/>
        <pt x="643" y="936" on="0"/>
        <pt x="643" y="739" on="1"/>
        <pt x="643" y="0" on="1"/>
        <pt x="565" y="0" on="1"/>
        <pt x="553" y="152" on="1"/>
        <pt x="549" y="152" on="1"/>
        <pt x="471" y="-20" on="0"/>
        <pt x="313" y="-20" on="1"/>
        <pt x="206" y="-20" on="0"/>
        <pt x="142" y="64" on="1"/>
        <pt x="78" y="149" on="0"/>
        <pt x="78" y="446" on="0"/>
        <pt x="264" y="627" on="0"/>
        <pt x="432" y="635" on="1"/>
        <pt x="549" y="641" on="1"/>
        <pt x="549" y="731" on="1"/>
        <pt x="549" y="884" on="0"/>
        <pt x="472" y="1022" on="0"/>
        <pt x="292" y="1022" on="0"/>
        <pt x="195" y="961" on="1"/>
      </contour>
      <contour>
        <pt x="178" y="289" on="1"/>
        <pt x="178" y="174" on="0"/>
        <pt x="260" y="61" on="0"/>
        <pt x="334" y="61" on="1"/>
        <pt x="436" y="61" on="0"/>
        <pt x="549" y="263" on="0"/>
        <pt x="549" y="446" on="1"/>
        <pt x="549" y="559" on="1"/>
        <pt x="436" y="553" on="1"/>
        <pt x="178" y="540" on="0"/>
      </contour>
    </TTGlyph>
    <TTGlyph name="acute" xMin="434" yMin="1241" xMax="750" yMax="1569">
      <contour>
        <pt x="750" y="1569" on="1"/>
        <pt x="750" y="1552" on="1"/>
        <pt x="713" y="1486" on="0"/>
        <pt x="552" y="1300" on="0"/>
        <pt x="481" y="1241" on="1"/>
        <pt x="434" y="1241" on="1"/>
        <pt x="434" y="1262" on="1"/>
        <pt x="560" y="1426" on="0"/>
        <pt x="625" y="1569" on="1"/>
      </contour>
    </TTGlyph>
    <TTGlyph name="adieresis" xMin="78" yMin="-20" xMax="643" yMax="1470">
      <contour>
        <pt x="165" y="1429" on="0"/>
        <pt x="202" y="1470" on="0"/>
        <pt x="255" y="1470" on="0"/>
        <pt x="290" y="1429" on="0"/>
        <pt x="290" y="1347" on="0"/>
        <pt x="255" y="1305" on="0"/>
        <pt x="202" y="1305" on="0"/>
        <pt x="165" y="1347" on="0"/>
      </contour>
      <contour>
        <pt x="470" y="1429" on="0"/>
        <pt x="506" y="1470" on="0"/>
        <pt x="559" y="1470" on="0"/>
        <pt x="595" y="1429" on="0"/>
        <pt x="595" y="1347" on="0"/>
        <pt x="559" y="1305" on="0"/>
        <pt x="506" y="1305" on="0"/>
        <pt x="470" y="1348" on="0"/>
      </contour>
      <contour>
        <pt x="154" y="1036" on="1"/>
        <pt x="266" y="1106" on="0"/>
        <pt x="526" y="1106" on="0"/>
        <pt x="643" y="936" on="0"/>
        <pt x="643" y="739" on="1"/>
        <pt x="643" y="0" on="1"/>
        <pt x="565" y="0" on="1"/>
        <pt x="553" y="152" on="1"/>
        <pt x="549" y="152" on="1"/>
        <pt x="471" y="-20" on="0"/>
        <pt x="313" y="-20" on="1"/>
        <pt x="206" y="-20" on="0"/>
        <pt x="142" y="64" on="1"/>
        <pt x="78" y="149" on="0"/>
        <pt x="78" y="446" on="0"/>
        <pt x="264" y="627" on="0"/>
        <pt x="432" y="635" on="1"/>
        <pt x="549" y="641" on="1"/>
        <pt x="549" y="731" on="1"/>
        <pt x="549" y="884" on="0"/>
        <pt x="472" y="1022" on="0"/>
        <pt x="292" y="1022" on="0"/>
        <pt x="195" y="961" on="1"/>
      </contour>
      <contour>
        <pt x="178" y="289" on="1"/>
        <pt x="178" y="174" on="0"/>
        <pt x="260" y="61" on="0"/>
        <pt x="334" y="61" on="1"/>
        <pt x="436" y="61" on="0"/>
        <pt x="549" y="263" on="0"/>
        <pt x="549" y="446" on="1"/>
        <pt x="549" y="559" on="1"/>
        <pt x="436" y="553" on="1"/>
        <pt x="178" y="540" on="0"/>
      </contour>
    </TTGlyph>
    <TTGlyph name="ae" xMin="78" yMin="-20" xMax="1163" yMax="1106">
      <contour>
        <pt x="389" y="1106" on="1"/>
        <pt x="567" y="1106" on="0"/>
        <pt x="618" y="934" on="1"/>
        <pt x="702" y="1106" on="0"/>
        <pt x="868" y="1106" on="1"/>
        <pt x="1004" y="1106" on="0"/>
        <pt x="1163" y="851" on="0"/>
        <pt x="1163" y="631" on="1"/>
        <pt x="1163" y="543" on="1"/>
        <pt x="649" y="543" on="1"/>
        <pt x="658" y="66" on="0"/>
        <pt x="907" y="66" on="1"/>
        <pt x="1020" y="66" on="0"/>
        <pt x="1128" y="133" on="1"/>
        <pt x="1128" y="45" on="1"/>
        <pt x="1027" y="-20" on="0"/>
        <pt x="800" y="-20" on="0"/>
        <pt x="639" y="107" on="0"/>
        <pt x="600" y="221" on="1"/>
        <pt x="555" y="95" on="0"/>
        <pt x="414" y="-20" on="0"/>
        <pt x="206" y="-20" on="0"/>
        <pt x="142" y="64" on="1"/>
        <pt x="78" y="149" on="0"/>
        <pt x="78" y="446" on="0"/>
        <pt x="264" y="627" on="0"/>
        <pt x="432" y="635" on="1"/>
        <pt x="549" y="641" on="1"/>
        <pt x="549" y="731" on="1"/>
        <pt x="549" y="878" on="0"/>
        <pt x="469" y="1022" on="0"/>
        <pt x="292" y="1022" on="0"/>
        <pt x="195" y="961" on="1"/>
        <pt x="154" y="1036" on="1"/>
        <pt x="267" y="1106" on="0"/>
      </contour>
      <contour>
        <pt x="1069" y="629" on="1"/>
        <pt x="1069" y="641" on="1"/>
        <pt x="1069" y="814" on="0"/>
        <pt x="959" y="1018" on="0"/>
        <pt x="866" y="1018" on="1"/>
        <pt x="672" y="1018" on="0"/>
        <pt x="651" y="629" on="1"/>
      </contour>
      <contour>
        <pt x="303" y="546" on="0"/>
        <pt x="178" y="420" on="0"/>
        <pt x="178" y="174" on="0"/>
        <pt x="260" y="61" on="0"/>
        <pt x="334" y="61" on="1"/>
        <pt x="436" y="61" on="0"/>
        <pt x="549" y="263" on="0"/>
        <pt x="549" y="446" on="1"/>
        <pt x="549" y="559" on="1"/>
        <pt x="436" y="553" on="1"/>
      </contour>
    </TTGlyph>
    <TTGlyph name="agrave" xMin="78" yMin="-20" xMax="643" yMax="1569">
      <contour>
        <pt x="163" y="1569" on="1"/>
        <pt x="288" y="1569" on="1"/>
        <pt x="317" y="1502" on="0"/>
        <pt x="423" y="1332" on="0"/>
        <pt x="479" y="1262" on="1"/>
        <pt x="479" y="1241" on="1"/>
        <pt x="431" y="1241" on="1"/>
        <pt x="368" y="1292" on="0"/>
        <pt x="200" y="1483" on="0"/>
        <pt x="163" y="1552" on="1"/>
      </contour>
      <contour>
        <pt x="154" y="1036" on="1"/>
        <pt x="266" y="1106" on="0"/>
        <pt x="526" y="1106" on="0"/>
        <pt x="643" y="936" on="0"/>
        <pt x="643" y="739" on="1"/>
        <pt x="643" y="0" on="1"/>
        <pt x="565" y="0" on="1"/>
        <pt x="553" y="152" on="1"/>
        <pt x="549" y="152" on="1"/>
        <pt x="471" y="-20" on="0"/>
        <pt x="313" y="-20" on="1"/>
        <pt x="206" y="-20" on="0"/>
        <pt x="142" y="64" on="1"/>
        <pt x="78" y="149" on="0"/>
        <pt x="78" y="446" on="0"/>
        <pt x="264" y="627" on="0"/>
        <pt x="432" y="635" on="1"/>
        <pt x="549" y="641" on="1"/>
        <pt x="549" y="731" on="1"/>
        <pt x="549" y="884" on="0"/>
        <pt x="472" y="1022" on="0"/>
        <pt x="292" y="1022" on="0"/>
        <pt x="195" y="961" on="1"/>
      </contour>
      <contour>
        <pt x="178" y="289" on="1"/>
        <pt x="178" y="174" on="0"/>
        <pt x="260" y="61" on="0"/>
        <pt x="334" y="61" on="1"/>
        <pt x="436" y="61" on="0"/>
        <pt x="549" y="263" on="0"/>
        <pt x="549" y="446" on="1"/>
        <pt x="549" y="559" on="1"/>
        <pt x="436" y="553" on="1"/>
        <pt x="178" y="540" on="0"/>
      </contour>
    </TTGlyph>
    <TTGlyph name="alefdageshhb" xMin="72" yMin="0" xMax="703" yMax="1290">
      <contour>
        <pt x="692" y="1290" on="1"/>
        <pt x="692" y="822" on="1"/>
        <pt x="692" y="761" on="0"/>
        <pt x="682" y="668" on="0"/>
        <pt x="666" y="611" on="1"/>
        <pt x="633" y="495" on="0"/>
        <pt x="522" y="440" on="1"/>
        <pt x="703" y="0" on="1"/>
        <pt x="600" y="0" on="1"/>
        <pt x="284" y="771" on="1"/>
        <pt x="219" y="729" on="0"/>
        <pt x="163" y="576" on="0"/>
        <pt x="163" y="452" on="1"/>
        <pt x="163" y="0" on="1"/>
        <pt x="72" y="0" on="1"/>
        <pt x="72" y="453" on="1"/>
        <pt x="72" y="570" on="0"/>
        <pt x="100" y="672" on="1"/>
        <pt x="117" y="732" on="0"/>
        <pt x="193" y="827" on="0"/>
        <pt x="250" y="855" on="1"/>
        <pt x="72" y="1290" on="1"/>
        <pt x="174" y="1290" on="1"/>
        <pt x="486" y="528" on="1"/>
        <pt x="549" y="567" on="0"/>
        <pt x="601" y="704" on="0"/>
        <pt x="601" y="823" on="1"/>
        <pt x="601" y="1290" on="1"/>
      </contour>
      <contour>
        <pt x="313" y="382" on="1"/>
        <pt x="377" y="382" on="0"/>
        <pt x="377" y="232" on="0"/>
        <pt x="313" y="232" on="1"/>
        <pt x="252" y="232" on="0"/>
        <pt x="252" y="382" on="0"/>
      </contour>
    </TTGlyph>
    <TTGlyph name="alefpatahhb" xMin="72" yMin="-293" xMax="703" yMax="1290">
      <contour>
        <pt x="692" y="1290" on="1"/>
        <pt x="692" y="822" on="1"/>
        <pt x="692" y="761" on="0"/>
        <pt x="682" y="668" on="0"/>
        <pt x="666" y="611" on="1"/>
        <pt x="633" y="495" on="0"/>
        <pt x="522" y="440" on="1"/>
        <pt x="703" y="0" on="1"/>
        <pt x="600" y="0" on="1"/>
        <pt x="284" y="771" on="1"/>
        <pt x="219" y="729" on="0"/>
        <pt x="163" y="576" on="0"/>
        <pt x="163" y="452" on="1"/>
        <pt x="163" y="0" on="1"/>
        <pt x="72" y="0" on="1"/>
        <pt x="72" y="453" on="1"/>
        <pt x="72" y="570" on="0"/>
        <pt x="100" y="672" on="1"/>
        <pt x="117" y="732" on="0"/>
        <pt x="193" y="827" on="0"/>
        <pt x="250" y="855" on="1"/>
        <pt x="72" y="1290" on="1"/>
        <pt x="174" y="1290" on="1"/>
        <pt x="486" y="528" on="1"/>
        <pt x="549" y="567" on="0"/>
        <pt x="601" y="704" on="0"/>
        <pt x="601" y="823" on="1"/>
        <pt x="601" y="1290" on="1"/>
      </contour>
      <contour>
        <pt x="552" y="-293" on="1"/>
        <pt x="195" y="-293" on="1"/>
        <pt x="195" y="-221" on="1"/>
        <pt x="552" y="-221" on="1"/>
      </contour>
    </TTGlyph>
    <TTGlyph name="alefqamatshb" xMin="72" yMin="-494" xMax="703" yMax="1290">
      <contour>
        <pt x="692" y="1290" on="1"/>
        <pt x="692" y="822" on="1"/>
        <pt x="692" y="761" on="0"/>
        <pt x="682" y="668" on="0"/>
        <pt x="666" y="611" on="1"/>
        <pt x="633" y="495" on="0"/>
        <pt x="522" y="440" on="1"/>
        <pt x="703" y="0" on="1"/>
        <pt x="600" y="0" on="1"/>
        <pt x="284" y="771" on="1"/>
        <pt x="219" y="729" on="0"/>
        <pt x="163" y="576" on="0"/>
        <pt x="163" y="452" on="1"/>
        <pt x="163" y="0" on="1"/>
        <pt x="72" y="0" on="1"/>
        <pt x="72" y="453" on="1"/>
        <pt x="72" y="570" on="0"/>
        <pt x="100" y="672" on="1"/>
        <pt x="117" y="732" on="0"/>
        <pt x="193" y="827" on="0"/>
        <pt x="250" y="855" on="1"/>
        <pt x="72" y="1290" on="1"/>
        <pt x="174" y="1290" on="1"/>
        <pt x="486" y="528" on="1"/>
        <pt x="549" y="567" on="0"/>
        <pt x="601" y="704" on="0"/>
        <pt x="601" y="823" on="1"/>
        <pt x="601" y="1290" on="1"/>
      </contour>
      <contour>
        <pt x="552" y="-293" on="1"/>
        <pt x="409" y="-293" on="1"/>
        <pt x="409" y="-494" on="1"/>
        <pt x="338" y="-494" on="1"/>
        <pt x="338" y="-293" on="1"/>
        <pt x="195" y="-293" on="1"/>
        <pt x="195" y="-221" on="1"/>
        <pt x="552" y="-221" on="1"/>
      </contour>
    </TTGlyph>
    <TTGlyph name="ampersand" xMin="66" yMin="-20" xMax="836" yMax="1483">
      <contour>
        <pt x="328" y="-20" on="1"/>
        <pt x="206" y="-20" on="0"/>
        <pt x="66" y="177" on="0"/>
        <pt x="66" y="528" on="0"/>
        <pt x="153" y="650" on="1"/>
        <pt x="196" y="712" on="0"/>
        <pt x="285" y="788" on="1"/>
        <pt x="210" y="928" on="0"/>
        <pt x="166" y="1095" on="0"/>
        <pt x="166" y="1335" on="0"/>
        <pt x="270" y="1483" on="0"/>
        <pt x="451" y="1483" on="0"/>
        <pt x="555" y="1331" on="0"/>
        <pt x="555" y="1058" on="0"/>
        <pt x="480" y="863" on="0"/>
        <pt x="391" y="774" on="1"/>
        <pt x="627" y="352" on="1"/>
        <pt x="684" y="470" on="0"/>
        <pt x="684" y="645" on="1"/>
        <pt x="778" y="645" on="1"/>
        <pt x="778" y="552" on="0"/>
        <pt x="720" y="330" on="0"/>
        <pt x="680" y="260" on="1"/>
        <pt x="836" y="0" on="1"/>
        <pt x="727" y="0" on="1"/>
        <pt x="629" y="178" on="1"/>
        <pt x="554" y="66" on="0"/>
        <pt x="417" y="-20" on="0"/>
      </contour>
      <contour>
        <pt x="356" y="1393" on="1"/>
        <pt x="310" y="1393" on="0"/>
        <pt x="260" y="1290" on="0"/>
        <pt x="260" y="1107" on="0"/>
        <pt x="310" y="913" on="0"/>
        <pt x="348" y="850" on="1"/>
        <pt x="410" y="913" on="0"/>
        <pt x="461" y="1081" on="0"/>
        <pt x="461" y="1194" on="1"/>
        <pt x="461" y="1393" on="0"/>
      </contour>
      <contour>
        <pt x="230" y="627" on="0"/>
        <pt x="162" y="471" on="0"/>
        <pt x="162" y="221" on="0"/>
        <pt x="256" y="74" on="0"/>
        <pt x="408" y="74" on="0"/>
        <pt x="526" y="166" on="0"/>
        <pt x="580" y="262" on="1"/>
        <pt x="326" y="717" on="1"/>
      </contour>
    </TTGlyph>
    <TTGlyph name="aring" xMin="78" yMin="-20" xMax="643" yMax="1624">
      <contour>
        <pt x="185" y="1523" on="0"/>
        <pt x="292" y="1624" on="0"/>
        <pt x="471" y="1624" on="0"/>
        <pt x="583" y="1524" on="0"/>
        <pt x="583" y="1353" on="0"/>
        <pt x="475" y="1251" on="0"/>
        <pt x="291" y="1251" on="0"/>
        <pt x="185" y="1351" on="0"/>
      </contour>
      <contour>
        <pt x="505" y="1490" on="0"/>
        <pt x="442" y="1554" on="0"/>
        <pt x="330" y="1554" on="0"/>
        <pt x="263" y="1489" on="0"/>
        <pt x="263" y="1384" on="0"/>
        <pt x="325" y="1321" on="0"/>
        <pt x="438" y="1321" on="0"/>
        <pt x="505" y="1385" on="0"/>
      </contour>
      <contour>
        <pt x="154" y="1036" on="1"/>
        <pt x="266" y="1106" on="0"/>
        <pt x="526" y="1106" on="0"/>
        <pt x="643" y="936" on="0"/>
        <pt x="643" y="739" on="1"/>
        <pt x="643" y="0" on="1"/>
        <pt x="565" y="0" on="1"/>
        <pt x="553" y="152" on="1"/>
        <pt x="549" y="152" on="1"/>
        <pt x="471" y="-20" on="0"/>
        <pt x="313" y="-20" on="1"/>
        <pt x="206" y="-20" on="0"/>
        <pt x="142" y="64" on="1"/>
        <pt x="78" y="149" on="0"/>
        <pt x="78" y="446" on="0"/>
        <pt x="264" y="627" on="0"/>
        <pt x="432" y="635" on="1"/>
        <pt x="549" y="641" on="1"/>
        <pt x="549" y="731" on="1"/>
        <pt x="549" y="884" on="0"/>
        <pt x="472" y="1022" on="0"/>
        <pt x="292" y="1022" on="0"/>
        <pt x="195" y="961" on="1"/>
      </contour>
      <contour>
        <pt x="178" y="289" on="1"/>
        <pt x="178" y="174" on="0"/>
        <pt x="260" y="61" on="0"/>
        <pt x="334" y="61" on="1"/>
        <pt x="436" y="61" on="0"/>
        <pt x="549" y="263" on="0"/>
        <pt x="549" y="446" on="1"/>
        <pt x="549" y="559" on="1"/>
        <pt x="436" y="553" on="1"/>
        <pt x="178" y="540" on="0"/>
      </contour>
    </TTGlyph>
    <TTGlyph name="asciicircum" xMin="37" yMin="758" xMax="782" yMax="1460">
      <contour>
        <pt x="782" y="758" on="1"/>
        <pt x="680" y="758" on="1"/>
        <pt x="410" y="1348" on="1"/>
        <pt x="137" y="758" on="1"/>
        <pt x="37" y="758" on="1"/>
        <pt x="375" y="1460" on="1"/>
        <pt x="442" y="1460" on="1"/>
      </contour>
    </TTGlyph>
    <TTGlyph name="asciitilde" xMin="59" yMin="618" xMax="760" yMax="827">
      <contour>
        <pt x="580" y="625" on="1"/>
        <pt x="529" y="625" on="0"/>
        <pt x="467" y="644" on="0"/>
        <pt x="333" y="718" on="0"/>
        <pt x="273" y="739" on="0"/>
        <pt x="200" y="739" on="0"/>
        <pt x="101" y="674" on="0"/>
        <pt x="59" y="618" on="1"/>
        <pt x="59" y="717" on="1"/>
        <pt x="134" y="823" on="0"/>
        <pt x="244" y="823" on="1"/>
        <pt x="285" y="823" on="0"/>
        <pt x="356" y="804" on="0"/>
        <pt x="521" y="711" on="0"/>
        <pt x="627" y="711" on="0"/>
        <pt x="722" y="774" on="0"/>
        <pt x="760" y="827" on="1"/>
        <pt x="760" y="729" on="1"/>
        <pt x="686" y="625" on="0"/>
      </contour>
    </TTGlyph>
    <TTGlyph name="asterisk" xMin="94" yMin="975" xMax="651" yMax="1556">
      <contour>
        <pt x="406" y="1307" on="1"/>
        <pt x="637" y="1364" on="1"/>
        <pt x="651" y="1257" on="1"/>
        <pt x="424" y="1249" on="1"/>
        <pt x="580" y="1022" on="1"/>
        <pt x="483" y="977" on="1"/>
        <pt x="375" y="1214" on="1"/>
        <pt x="258" y="975" on="1"/>
        <pt x="166" y="1022" on="1"/>
        <pt x="315" y="1249" on="1"/>
        <pt x="94" y="1255" on="1"/>
        <pt x="111" y="1362" on="1"/>
        <pt x="340" y="1307" on="1"/>
        <pt x="313" y="1556" on="1"/>
        <pt x="434" y="1556" on="1"/>
      </contour>
    </TTGlyph>
    <TTGlyph name="at" xMin="111" yMin="-180" xMax="1130" yMax="1473">
      <contour>
        <pt x="584" y="-180" on="1"/>
        <pt x="354" y="-180" on="0"/>
        <pt x="111" y="209" on="0"/>
        <pt x="111" y="580" on="1"/>
        <pt x="111" y="588" on="0"/>
        <pt x="111" y="595" on="1"/>
        <pt x="111" y="856" on="0"/>
        <pt x="244" y="1258" on="0"/>
        <pt x="490" y="1473" on="0"/>
        <pt x="649" y="1473" on="1"/>
        <pt x="652" y="1473" on="0"/>
        <pt x="655" y="1473" on="1"/>
        <pt x="792" y="1473" on="0"/>
        <pt x="1013" y="1286" on="0"/>
        <pt x="1130" y="949" on="0"/>
        <pt x="1130" y="735" on="1"/>
        <pt x="1130" y="231" on="0"/>
        <pt x="905" y="231" on="1"/>
        <pt x="824" y="231" on="0"/>
        <pt x="750" y="335" on="0"/>
        <pt x="748" y="438" on="1"/>
        <pt x="739" y="438" on="1"/>
        <pt x="722" y="329" on="0"/>
        <pt x="648" y="231" on="0"/>
        <pt x="582" y="231" on="1"/>
        <pt x="494" y="231" on="0"/>
        <pt x="397" y="418" on="0"/>
        <pt x="397" y="588" on="1"/>
        <pt x="397" y="1061" on="0"/>
        <pt x="659" y="1061" on="1"/>
        <pt x="745" y="1061" on="0"/>
        <pt x="823" y="1032" on="1"/>
        <pt x="803" y="555" on="1"/>
        <pt x="803" y="494" on="1"/>
        <pt x="803" y="326" on="0"/>
        <pt x="905" y="326" on="1"/>
        <pt x="972" y="326" on="0"/>
        <pt x="1032" y="527" on="0"/>
        <pt x="1032" y="741" on="1"/>
        <pt x="1032" y="745" on="0"/>
        <pt x="1032" y="749" on="1"/>
        <pt x="1032" y="931" on="0"/>
        <pt x="937" y="1224" on="0"/>
        <pt x="765" y="1384" on="0"/>
        <pt x="658" y="1384" on="1"/>
        <pt x="656" y="1384" on="0"/>
        <pt x="653" y="1384" on="1"/>
        <pt x="520" y="1384" on="0"/>
        <pt x="314" y="1186" on="0"/>
        <pt x="203" y="829" on="0"/>
        <pt x="203" y="596" on="1"/>
        <pt x="203" y="269" on="0"/>
        <pt x="409" y="-94" on="0"/>
        <pt x="590" y="-94" on="1"/>
        <pt x="657" y="-94" on="0"/>
        <pt x="777" y="-56" on="0"/>
        <pt x="815" y="-25" on="1"/>
        <pt x="815" y="-119" on="1"/>
        <pt x="715" y="-180" on="0"/>
      </contour>
      <contour>
        <pt x="649" y="979" on="1"/>
        <pt x="574" y="979" on="0"/>
        <pt x="496" y="778" on="0"/>
        <pt x="496" y="584" on="1"/>
        <pt x="496" y="326" on="0"/>
        <pt x="600" y="326" on="1"/>
        <pt x="645" y="326" on="0"/>
        <pt x="696" y="492" on="0"/>
        <pt x="705" y="666" on="1"/>
        <pt x="721" y="971" on="1"/>
        <pt x="692" y="979" on="0"/>
      </contour>
    </TTGlyph>
    <TTGlyph name="atilde" xMin="78" yMin="-20" xMax="677" yMax="1454">
      <contour>
        <pt x="517" y="1243" on="1"/>
        <pt x="485" y="1243" on="0"/>
        <pt x="411" y="1283" on="0"/>
        <pt x="383" y="1306" on="1"/>
        <pt x="307" y="1370" on="0"/>
        <pt x="243" y="1370" on="0"/>
        <pt x="199" y="1300" on="0"/>
        <pt x="190" y="1241" on="1"/>
        <pt x="116" y="1241" on="1"/>
        <pt x="128" y="1341" on="0"/>
        <pt x="212" y="1452" on="0"/>
        <pt x="282" y="1452" on="1"/>
        <pt x="314" y="1452" on="0"/>
        <pt x="387" y="1412" on="0"/>
        <pt x="414" y="1388" on="1"/>
        <pt x="487" y="1325" on="0"/>
        <pt x="524" y="1325" on="1"/>
        <pt x="583" y="1325" on="0"/>
        <pt x="603" y="1454" on="1"/>
        <pt x="677" y="1454" on="1"/>
        <pt x="668" y="1353" on="0"/>
        <pt x="584" y="1243" on="0"/>
      </contour>
      <contour>
        <pt x="154" y="1036" on="1"/>
        <pt x="266" y="1106" on="0"/>
        <pt x="526" y="1106" on="0"/>
        <pt x="643" y="936" on="0"/>
        <pt x="643" y="739" on="1"/>
        <pt x="643" y="0" on="1"/>
        <pt x="565" y="0" on="1"/>
        <pt x="553" y="152" on="1"/>
        <pt x="549" y="152" on="1"/>
        <pt x="471" y="-20" on="0"/>
        <pt x="313" y="-20" on="1"/>
        <pt x="206" y="-20" on="0"/>
        <pt x="142" y="64" on="1"/>
        <pt x="78" y="149" on="0"/>
        <pt x="78" y="446" on="0"/>
        <pt x="264" y="627" on="0"/>
        <pt x="432" y="635" on="1"/>
        <pt x="549" y="641" on="1"/>
        <pt x="549" y="731" on="1"/>
        <pt x="549" y="884" on="0"/>
        <pt x="472" y="1022" on="0"/>
        <pt x="292" y="1022" on="0"/>
        <pt x="195" y="961" on="1"/>
      </contour>
      <contour>
        <pt x="178" y="289" on="1"/>
        <pt x="178" y="174" on="0"/>
        <pt x="260" y="61" on="0"/>
        <pt x="334" y="61" on="1"/>
        <pt x="436" y="61" on="0"/>
        <pt x="549" y="263" on="0"/>
        <pt x="549" y="446" on="1"/>
        <pt x="549" y="559" on="1"/>
        <pt x="436" y="553" on="1"/>
        <pt x="178" y="540" on="0"/>
      </contour>
    </TTGlyph>
    <TTGlyph name="b" xMin="145" yMin="-20" xMax="799" yMax="1556">
      <contour>
        <pt x="481" y="1104" on="1"/>
        <pt x="799" y="1104" on="0"/>
        <pt x="799" y="545" on="1"/>
        <pt x="799" y="269" on="0"/>
        <pt x="641" y="-20" on="0"/>
        <pt x="492" y="-20" on="1"/>
        <pt x="413" y="-20" on="0"/>
        <pt x="286" y="67" on="0"/>
        <pt x="244" y="150" on="1"/>
        <pt x="236" y="150" on="1"/>
        <pt x="223" y="0" on="1"/>
        <pt x="145" y="0" on="1"/>
        <pt x="145" y="1556" on="1"/>
        <pt x="240" y="1556" on="1"/>
        <pt x="240" y="1073" on="1"/>
        <pt x="236" y="942" on="1"/>
        <pt x="244" y="942" on="1"/>
        <pt x="330" y="1104" on="0"/>
      </contour>
      <contour>
        <pt x="240" y="545" on="1"/>
        <pt x="240" y="520" on="1"/>
        <pt x="240" y="66" on="0"/>
        <pt x="481" y="66" on="1"/>
        <pt x="592" y="66" on="0"/>
        <pt x="700" y="301" on="0"/>
        <pt x="700" y="783" on="0"/>
        <pt x="593" y="1016" on="0"/>
        <pt x="352" y="1016" on="0"/>
        <pt x="240" y="796" on="0"/>
      </contour>
    </TTGlyph>
    <TTGlyph name="backslash" xMin="51" yMin="0" xMax="674" yMax="1462">
      <contour>
        <pt x="674" y="0" on="1"/>
        <pt x="573" y="0" on="1"/>
        <pt x="51" y="1462" on="1"/>
        <pt x="147" y="1462" on="1"/>
      </contour>
    </TTGlyph>
    <TTGlyph name="bar" xMin="362" yMin="-492" xMax="457" yMax="1556">
      <contour>
        <pt x="457" y="-492" on="1"/>
        <pt x="362" y="-492" on="1"/>
        <pt x="362" y="1556" on="1"/>
        <pt x="457" y="1556" on="1"/>
      </contour>
    </TTGlyph>
    <TTGlyph name="betdageshhb" xMin="94" yMin="0" xMax="717" yMax="1310">
      <contour>
        <pt x="94" y="1300" on="1"/>
        <pt x="196" y="1310" on="0"/>
        <pt x="365" y="1310" on="0"/>
        <pt x="459" y="1293" on="0"/>
        <pt x="545" y="1246" on="0"/>
        <pt x="572" y="1206" on="1"/>
        <pt x="631" y="1120" on="0"/>
        <pt x="631" y="950" on="1"/>
        <pt x="631" y="84" on="1"/>
        <pt x="717" y="84" on="1"/>
        <pt x="717" y="0" on="1"/>
        <pt x="95" y="0" on="1"/>
        <pt x="95" y="84" on="1"/>
        <pt x="536" y="84" on="1"/>
        <pt x="536" y="950" on="1"/>
        <pt x="536" y="1085" on="0"/>
        <pt x="499" y="1150" on="1"/>
        <pt x="468" y="1205" on="0"/>
        <pt x="387" y="1218" on="1"/>
        <pt x="353" y="1224" on="0"/>
        <pt x="306" y="1224" on="1"/>
        <pt x="226" y="1224" on="0"/>
        <pt x="124" y="1216" on="1"/>
        <pt x="94" y="1213" on="1"/>
      </contour>
      <contour>
        <pt x="283" y="745" on="1"/>
        <pt x="347" y="745" on="0"/>
        <pt x="347" y="595" on="0"/>
        <pt x="283" y="595" on="1"/>
        <pt x="222" y="595" on="0"/>
        <pt x="222" y="745" on="0"/>
      </contour>
    </TTGlyph>
    <TTGlyph name="braceleft" xMin="109" yMin="-324" xMax="633" yMax="1462">
      <contour>
        <pt x="414" y="1147" on="1"/>
        <pt x="414" y="831" on="1"/>
        <pt x="414" y="709" on="0"/>
        <pt x="323" y="593" on="0"/>
        <pt x="219" y="573" on="1"/>
        <pt x="219" y="565" on="1"/>
        <pt x="325" y="546" on="0"/>
        <pt x="414" y="427" on="0"/>
        <pt x="414" y="307" on="1"/>
        <pt x="414" y="-8" on="1"/>
        <pt x="414" y="-127" on="0"/>
        <pt x="521" y="-242" on="0"/>
        <pt x="633" y="-244" on="1"/>
        <pt x="633" y="-324" on="1"/>
        <pt x="482" y="-320" on="0"/>
        <pt x="315" y="-151" on="0"/>
        <pt x="315" y="-4" on="1"/>
        <pt x="315" y="319" on="1"/>
        <pt x="315" y="407" on="0"/>
        <pt x="277" y="493" on="0"/>
        <pt x="188" y="535" on="0"/>
        <pt x="109" y="535" on="1"/>
        <pt x="109" y="604" on="1"/>
        <pt x="255" y="604" on="0"/>
        <pt x="295" y="686" on="1"/>
        <pt x="315" y="731" on="0"/>
        <pt x="315" y="819" on="1"/>
        <pt x="315" y="1143" on="1"/>
        <pt x="315" y="1290" on="0"/>
        <pt x="483" y="1458" on="0"/>
        <pt x="633" y="1462" on="1"/>
        <pt x="633" y="1382" on="1"/>
        <pt x="521" y="1380" on="0"/>
        <pt x="414" y="1266" on="0"/>
      </contour>
    </TTGlyph>
    <TTGlyph name="braceright" xMin="104" yMin="-324" xMax="629" yMax="1462">
      <contour>
        <pt x="422" y="1143" on="1"/>
        <pt x="422" y="819" on="1"/>
        <pt x="422" y="731" on="0"/>
        <pt x="461" y="646" on="0"/>
        <pt x="506" y="624" on="1"/>
        <pt x="552" y="604" on="0"/>
        <pt x="629" y="604" on="1"/>
        <pt x="629" y="535" on="1"/>
        <pt x="482" y="535" on="0"/>
        <pt x="442" y="452" on="1"/>
        <pt x="422" y="409" on="0"/>
        <pt x="422" y="319" on="1"/>
        <pt x="422" y="-4" on="1"/>
        <pt x="422" y="-151" on="0"/>
        <pt x="255" y="-320" on="0"/>
        <pt x="104" y="-324" on="1"/>
        <pt x="104" y="-244" on="1"/>
        <pt x="216" y="-242" on="0"/>
        <pt x="324" y="-127" on="0"/>
        <pt x="324" y="-8" on="1"/>
        <pt x="324" y="307" on="1"/>
        <pt x="324" y="427" on="0"/>
        <pt x="414" y="546" on="0"/>
        <pt x="518" y="565" on="1"/>
        <pt x="518" y="573" on="1"/>
        <pt x="416" y="592" on="0"/>
        <pt x="324" y="710" on="0"/>
        <pt x="324" y="831" on="1"/>
        <pt x="324" y="1147" on="1"/>
        <pt x="324" y="1266" on="0"/>
        <pt x="216" y="1380" on="0"/>
        <pt x="104" y="1382" on="1"/>
        <pt x="104" y="1462" on="1"/>
        <pt x="254" y="1458" on="0"/>
        <pt x="422" y="1290" on="0"/>
      </contour>
    </TTGlyph>
    <TTGlyph name="bracketleft" xMin="174" yMin="-324" xMax="571" yMax="1462">
      <contour>
        <pt x="571" y="1372" on="1"/>
        <pt x="268" y="1372" on="1"/>
        <pt x="268" y="-233" on="1"/>
        <pt x="571" y="-233" on="1"/>
        <pt x="571" y="-324" on="1"/>
        <pt x="174" y="-324" on="1"/>
        <pt x="174" y="1462" on="1"/>
        <pt x="571" y="1462" on="1"/>
      </contour>
    </TTGlyph>
    <TTGlyph name="bracketright" xMin="74" yMin="-324" xMax="471" yMax="1462">
      <contour>
        <pt x="471" y="-324" on="1"/>
        <pt x="74" y="-324" on="1"/>
        <pt x="74" y="-233" on="1"/>
        <pt x="377" y="-233" on="1"/>
        <pt x="377" y="1372" on="1"/>
        <pt x="74" y="1372" on="1"/>
        <pt x="74" y="1462" on="1"/>
        <pt x="471" y="1462" on="1"/>
      </contour>
    </TTGlyph>
    <TTGlyph name="breve" xMin="360" yMin="1245" xMax="795" yMax="1479">
      <contour>
        <pt x="571" y="1245" on="1"/>
        <pt x="374" y="1245" on="0"/>
        <pt x="360" y="1479" on="1"/>
        <pt x="428" y="1479" on="1"/>
        <pt x="435" y="1406" on="0"/>
        <pt x="511" y="1329" on="0"/>
        <pt x="575" y="1329" on="1"/>
        <pt x="704" y="1329" on="0"/>
        <pt x="723" y="1479" on="1"/>
        <pt x="795" y="1479" on="1"/>
        <pt x="792" y="1369" on="0"/>
        <pt x="674" y="1245" on="0"/>
      </contour>
    </TTGlyph>
    <TTGlyph name="brokenbar" xMin="362" yMin="-492" xMax="457" yMax="1556">
      <contour>
        <pt x="457" y="758" on="1"/>
        <pt x="362" y="758" on="1"/>
        <pt x="362" y="1556" on="1"/>
        <pt x="457" y="1556" on="1"/>
      </contour>
      <contour>
        <pt x="457" y="-492" on="1"/>
        <pt x="362" y="-492" on="1"/>
        <pt x="362" y="307" on="1"/>
        <pt x="457" y="307" on="1"/>
      </contour>
    </TTGlyph>
    <TTGlyph name="bullet" xMin="168" yMin="506" xMax="602" yMax="989">
      <contour>
        <pt x="280" y="989" on="0"/>
        <pt x="490" y="989" on="0"/>
        <pt x="602" y="867" on="0"/>
        <pt x="602" y="631" on="0"/>
        <pt x="490" y="506" on="0"/>
        <pt x="282" y="506" on="0"/>
        <pt x="168" y="631" on="0"/>
        <pt x="168" y="867" on="0"/>
      </contour>
    </TTGlyph>
    <TTGlyph name="c" xMin="96" yMin="-20" xMax="594" yMax="1106">
      <contour>
        <pt x="424" y="-20" on="1"/>
        <pt x="262" y="-20" on="0"/>
        <pt x="96" y="263" on="0"/>
        <pt x="96" y="816" on="0"/>
        <pt x="264" y="1106" on="0"/>
        <pt x="426" y="1106" on="1"/>
        <pt x="527" y="1106" on="0"/>
        <pt x="594" y="1069" on="1"/>
        <pt x="557" y="985" on="1"/>
        <pt x="491" y="1016" on="0"/>
        <pt x="434" y="1016" on="1"/>
        <pt x="195" y="1016" on="0"/>
        <pt x="195" y="66" on="0"/>
        <pt x="434" y="66" on="1"/>
        <pt x="504" y="66" on="0"/>
        <pt x="588" y="98" on="1"/>
        <pt x="588" y="18" on="1"/>
        <pt x="557" y="1" on="0"/>
        <pt x="461" y="-20" on="0"/>
      </contour>
    </TTGlyph>
    <TTGlyph name="caron" xMin="342" yMin="1241" xMax="813" yMax="1569">
      <contour>
        <pt x="813" y="1569" on="1"/>
        <pt x="813" y="1550" on="1"/>
        <pt x="757" y="1478" on="0"/>
        <pt x="647" y="1295" on="0"/>
        <pt x="623" y="1241" on="1"/>
        <pt x="528" y="1241" on="1"/>
        <pt x="458" y="1390" on="0"/>
        <pt x="342" y="1550" on="1"/>
        <pt x="342" y="1569" on="1"/>
        <pt x="385" y="1569" on="1"/>
        <pt x="434" y="1522" on="0"/>
        <pt x="559" y="1377" on="0"/>
        <pt x="578" y="1356" on="1"/>
        <pt x="627" y="1411" on="1"/>
        <pt x="738" y="1544" on="0"/>
        <pt x="766" y="1569" on="1"/>
      </contour>
    </TTGlyph>
    <TTGlyph name="ccedilla" xMin="96" yMin="-492" xMax="594" yMax="1106">
      <contour>
        <pt x="434" y="1016" on="1"/>
        <pt x="195" y="1016" on="0"/>
        <pt x="195" y="66" on="0"/>
        <pt x="434" y="66" on="1"/>
        <pt x="504" y="66" on="0"/>
        <pt x="588" y="98" on="1"/>
        <pt x="588" y="18" on="1"/>
        <pt x="557" y="1" on="0"/>
        <pt x="461" y="-20" on="0"/>
        <pt x="424" y="-20" on="1"/>
        <pt x="421" y="-20" on="1"/>
        <pt x="379" y="-115" on="1"/>
        <pt x="539" y="-154" on="0"/>
        <pt x="539" y="-291" on="1"/>
        <pt x="539" y="-389" on="0"/>
        <pt x="416" y="-492" on="0"/>
        <pt x="305" y="-492" on="1"/>
        <pt x="244" y="-492" on="0"/>
        <pt x="219" y="-481" on="1"/>
        <pt x="219" y="-403" on="1"/>
        <pt x="252" y="-414" on="0"/>
        <pt x="297" y="-414" on="1"/>
        <pt x="373" y="-414" on="0"/>
        <pt x="449" y="-349" on="0"/>
        <pt x="449" y="-235" on="0"/>
        <pt x="365" y="-173" on="0"/>
        <pt x="283" y="-160" on="1"/>
        <pt x="350" y="-12" on="1"/>
        <pt x="96" y="50" on="0"/>
        <pt x="96" y="537" on="1"/>
        <pt x="96" y="816" on="0"/>
        <pt x="264" y="1106" on="0"/>
        <pt x="426" y="1106" on="1"/>
        <pt x="527" y="1106" on="0"/>
        <pt x="594" y="1069" on="1"/>
        <pt x="557" y="985" on="1"/>
        <pt x="491" y="1016" on="0"/>
      </contour>
    </TTGlyph>
    <TTGlyph name="cedilla" xMin="59" yMin="-492" xMax="379" yMax="0">
      <contour>
        <pt x="379" y="-291" on="1"/>
        <pt x="379" y="-389" on="0"/>
        <pt x="256" y="-492" on="0"/>
        <pt x="145" y="-492" on="1"/>
        <pt x="84" y="-492" on="0"/>
        <pt x="59" y="-481" on="1"/>
        <pt x="59" y="-403" on="1"/>
        <pt x="92" y="-414" on="0"/>
        <pt x="137" y="-414" on="1"/>
        <pt x="213" y="-414" on="0"/>
        <pt x="289" y="-349" on="0"/>
        <pt x="289" y="-235" on="0"/>
        <pt x="205" y="-173" on="0"/>
        <pt x="123" y="-160" on="1"/>
        <pt x="195" y="0" on="1"/>
        <pt x="270" y="0" on="1"/>
        <pt x="219" y="-115" on="1"/>
        <pt x="379" y="-154" on="0"/>
      </contour>
    </TTGlyph>
    <TTGlyph name="cent" xMin="168" yMin="-20" xMax="666" yMax="1483">
      <contour>
        <pt x="520" y="1483" on="1"/>
        <pt x="520" y="1315" on="1"/>
        <pt x="608" y="1309" on="0"/>
        <pt x="666" y="1278" on="1"/>
        <pt x="629" y="1192" on="1"/>
        <pt x="557" y="1221" on="0"/>
        <pt x="506" y="1221" on="1"/>
        <pt x="383" y="1221" on="0"/>
        <pt x="268" y="982" on="0"/>
        <pt x="268" y="748" on="1"/>
        <pt x="268" y="279" on="0"/>
        <pt x="506" y="279" on="1"/>
        <pt x="575" y="279" on="0"/>
        <pt x="659" y="311" on="1"/>
        <pt x="659" y="227" on="1"/>
        <pt x="608" y="197" on="0"/>
        <pt x="520" y="188" on="1"/>
        <pt x="520" y="-20" on="1"/>
        <pt x="438" y="-20" on="1"/>
        <pt x="438" y="193" on="1"/>
        <pt x="168" y="240" on="0"/>
        <pt x="168" y="1254" on="0"/>
        <pt x="438" y="1309" on="1"/>
        <pt x="438" y="1483" on="1"/>
      </contour>
    </TTGlyph>
    <TTGlyph name="circumflex" xMin="342" yMin="1241" xMax="813" yMax="1569">
      <contour>
        <pt x="813" y="1241" on="1"/>
        <pt x="766" y="1241" on="1"/>
        <pt x="724" y="1283" on="0"/>
        <pt x="675" y="1342" on="1"/>
        <pt x="578" y="1454" on="1"/>
        <pt x="559" y="1433" on="0"/>
        <pt x="515" y="1382" on="1"/>
        <pt x="434" y="1288" on="0"/>
        <pt x="385" y="1241" on="1"/>
        <pt x="342" y="1241" on="1"/>
        <pt x="342" y="1260" on="1"/>
        <pt x="464" y="1428" on="0"/>
        <pt x="528" y="1569" on="1"/>
        <pt x="623" y="1569" on="1"/>
        <pt x="646" y="1515" on="0"/>
        <pt x="701" y="1424" on="1"/>
        <pt x="761" y="1329" on="0"/>
        <pt x="813" y="1260" on="1"/>
      </contour>
    </TTGlyph>
    <TTGlyph name="colon" xMin="133" yMin="-16" xMax="289" yMax="1087">
      <contour>
        <pt x="133" y="1087" on="0"/>
        <pt x="289" y="1087" on="0"/>
        <pt x="289" y="981" on="1"/>
        <pt x="289" y="927" on="0"/>
        <pt x="246" y="874" on="0"/>
        <pt x="211" y="874" on="1"/>
        <pt x="133" y="874" on="0"/>
      </contour>
      <contour>
        <pt x="133" y="197" on="0"/>
        <pt x="289" y="197" on="0"/>
        <pt x="289" y="90" on="1"/>
        <pt x="289" y="36" on="0"/>
        <pt x="246" y="-16" on="0"/>
        <pt x="211" y="-16" on="1"/>
        <pt x="133" y="-16" on="0"/>
      </contour>
    </TTGlyph>
    <TTGlyph name="comma" xMin="78" yMin="-264" xMax="307" yMax="205">
      <contour>
        <pt x="293" y="205" on="1"/>
        <pt x="307" y="182" on="1"/>
        <pt x="240" y="-47" on="0"/>
        <pt x="141" y="-264" on="1"/>
        <pt x="78" y="-264" on="1"/>
        <pt x="152" y="-12" on="0"/>
        <pt x="178" y="205" on="1"/>
      </contour>
    </TTGlyph>
    <TTGlyph name="copyright" xMin="100" yMin="-20" xMax="1604" yMax="1483">
      <contour>
        <pt x="645" y="-20" on="0"/>
        <pt x="295" y="186" on="0"/>
        <pt x="100" y="532" on="0"/>
        <pt x="100" y="931" on="0"/>
        <pt x="301" y="1282" on="0"/>
        <pt x="651" y="1483" on="0"/>
        <pt x="1052" y="1483" on="0"/>
        <pt x="1403" y="1282" on="0"/>
        <pt x="1604" y="932" on="0"/>
        <pt x="1604" y="533" on="0"/>
        <pt x="1408" y="186" on="0"/>
        <pt x="1059" y="-20" on="0"/>
      </contour>
      <contour>
        <pt x="1511" y="904" on="0"/>
        <pt x="1339" y="1208" on="0"/>
        <pt x="1032" y="1391" on="0"/>
        <pt x="677" y="1391" on="0"/>
        <pt x="369" y="1212" on="0"/>
        <pt x="193" y="905" on="0"/>
        <pt x="193" y="552" on="0"/>
        <pt x="369" y="250" on="0"/>
        <pt x="674" y="72" on="0"/>
        <pt x="1030" y="72" on="0"/>
        <pt x="1333" y="249" on="0"/>
        <pt x="1511" y="553" on="0"/>
      </contour>
      <contour>
        <pt x="879" y="279" on="1"/>
        <pt x="692" y="279" on="0"/>
        <pt x="489" y="510" on="0"/>
        <pt x="489" y="932" on="0"/>
        <pt x="711" y="1182" on="0"/>
        <pt x="897" y="1182" on="1"/>
        <pt x="1017" y="1182" on="0"/>
        <pt x="1124" y="1130" on="1"/>
        <pt x="1087" y="1047" on="1"/>
        <pt x="989" y="1092" on="0"/>
        <pt x="897" y="1092" on="1"/>
        <pt x="755" y="1092" on="0"/>
        <pt x="594" y="902" on="0"/>
        <pt x="594" y="733" on="1"/>
        <pt x="594" y="369" on="0"/>
        <pt x="889" y="369" on="1"/>
        <pt x="974" y="369" on="0"/>
        <pt x="1087" y="412" on="1"/>
        <pt x="1087" y="324" on="1"/>
        <pt x="985" y="279" on="0"/>
      </contour>
    </TTGlyph>
    <TTGlyph name="currency" xMin="125" yMin="281" xMax="1008" yMax="1163">
      <contour>
        <pt x="961" y="862" on="0"/>
        <pt x="961" y="584" on="0"/>
        <pt x="872" y="475" on="1"/>
        <pt x="1008" y="338" on="1"/>
        <pt x="950" y="281" on="1"/>
        <pt x="813" y="416" on="1"/>
        <pt x="706" y="330" on="0"/>
        <pt x="423" y="330" on="0"/>
        <pt x="317" y="418" on="1"/>
        <pt x="184" y="283" on="1"/>
        <pt x="127" y="342" on="1"/>
        <pt x="260" y="475" on="1"/>
        <pt x="174" y="585" on="0"/>
        <pt x="174" y="859" on="0"/>
        <pt x="260" y="969" on="1"/>
        <pt x="125" y="1106" on="1"/>
        <pt x="182" y="1163" on="1"/>
        <pt x="317" y="1026" on="1"/>
        <pt x="426" y="1116" on="0"/>
        <pt x="707" y="1116" on="0"/>
        <pt x="813" y="1028" on="1"/>
        <pt x="948" y="1163" on="1"/>
        <pt x="1008" y="1106" on="1"/>
        <pt x="872" y="971" on="1"/>
      </contour>
      <contour>
        <pt x="559" y="1040" on="1"/>
        <pt x="436" y="1040" on="0"/>
        <pt x="252" y="855" on="0"/>
        <pt x="252" y="733" on="1"/>
        <pt x="252" y="728" on="0"/>
        <pt x="252" y="723" on="1"/>
        <pt x="252" y="590" on="0"/>
        <pt x="434" y="408" on="0"/>
        <pt x="700" y="408" on="0"/>
        <pt x="885" y="591" on="0"/>
        <pt x="885" y="723" on="1"/>
        <pt x="885" y="728" on="0"/>
        <pt x="885" y="733" on="1"/>
        <pt x="885" y="854" on="0"/>
        <pt x="698" y="1040" on="0"/>
        <pt x="575" y="1040" on="1"/>
        <pt x="571" y="1040" on="0"/>
        <pt x="563" y="1040" on="0"/>
      </contour>
    </TTGlyph>
    <TTGlyph name="d" xMin="94" yMin="-20" xMax="748" yMax="1556">
      <contour>
        <pt x="748" y="0" on="1"/>
        <pt x="670" y="0" on="1"/>
        <pt x="662" y="152" on="1"/>
        <pt x="653" y="152" on="1"/>
        <pt x="572" y="-20" on="0"/>
        <pt x="410" y="-20" on="1"/>
        <pt x="94" y="-20" on="0"/>
        <pt x="94" y="541" on="1"/>
        <pt x="94" y="818" on="0"/>
        <pt x="253" y="1106" on="0"/>
        <pt x="406" y="1106" on="1"/>
        <pt x="479" y="1106" on="0"/>
        <pt x="610" y="1022" on="0"/>
        <pt x="649" y="948" on="1"/>
        <pt x="657" y="948" on="1"/>
        <pt x="653" y="1069" on="1"/>
        <pt x="653" y="1556" on="1"/>
        <pt x="748" y="1556" on="1"/>
      </contour>
      <contour>
        <pt x="653" y="479" on="1"/>
        <pt x="653" y="541" on="1"/>
        <pt x="653" y="786" on="0"/>
        <pt x="535" y="1016" on="0"/>
        <pt x="298" y="1016" on="0"/>
        <pt x="193" y="777" on="0"/>
        <pt x="193" y="301" on="0"/>
        <pt x="301" y="63" on="0"/>
        <pt x="531" y="63" on="0"/>
        <pt x="653" y="275" on="0"/>
      </contour>
    </TTGlyph>
    <TTGlyph name="dagger" xMin="123" yMin="0" xMax="760" yMax="1556">
      <contour>
        <pt x="465" y="1128" on="1"/>
        <pt x="760" y="1147" on="1"/>
        <pt x="760" y="1055" on="1"/>
        <pt x="465" y="1065" on="1"/>
        <pt x="489" y="0" on="1"/>
        <pt x="373" y="0" on="1"/>
        <pt x="397" y="1065" on="1"/>
        <pt x="123" y="1055" on="1"/>
        <pt x="123" y="1147" on="1"/>
        <pt x="397" y="1128" on="1"/>
        <pt x="373" y="1556" on="1"/>
        <pt x="489" y="1556" on="1"/>
      </contour>
    </TTGlyph>
    <TTGlyph name="daggerdbl" xMin="123" yMin="0" xMax="760" yMax="1556">
      <contour>
        <pt x="465" y="1174" on="1"/>
        <pt x="760" y="1192" on="1"/>
        <pt x="760" y="1100" on="1"/>
        <pt x="465" y="1110" on="1"/>
        <pt x="475" y="786" on="1"/>
        <pt x="465" y="446" on="1"/>
        <pt x="760" y="457" on="1"/>
        <pt x="760" y="365" on="1"/>
        <pt x="465" y="381" on="1"/>
        <pt x="489" y="0" on="1"/>
        <pt x="373" y="0" on="1"/>
        <pt x="397" y="381" on="1"/>
        <pt x="123" y="365" on="1"/>
        <pt x="123" y="457" on="1"/>
        <pt x="397" y="446" on="1"/>
        <pt x="385" y="786" on="1"/>
        <pt x="397" y="1110" on="1"/>
        <pt x="123" y="1100" on="1"/>
        <pt x="123" y="1192" on="1"/>
        <pt x="397" y="1174" on="1"/>
        <pt x="373" y="1556" on="1"/>
        <pt x="489" y="1556" on="1"/>
      </contour>
    </TTGlyph>
    <TTGlyph name="daletdageshhb" xMin="17" yMin="0" xMax="647" yMax="1290">
      <contour>
        <pt x="647" y="1290" on="1"/>
        <pt x="647" y="1217" on="1"/>
        <pt x="580" y="1194" on="0"/>
        <pt x="498" y="1131" on="0"/>
        <pt x="478" y="1102" on="1"/>
        <pt x="433" y="1033" on="0"/>
        <pt x="433" y="928" on="1"/>
        <pt x="433" y="0" on="1"/>
        <pt x="338" y="0" on="1"/>
        <pt x="338" y="928" on="1"/>
        <pt x="338" y="987" on="0"/>
        <pt x="366" y="1088" on="0"/>
        <pt x="386" y="1118" on="1"/>
        <pt x="427" y="1180" on="0"/>
        <pt x="458" y="1198" on="1"/>
        <pt x="472" y="1206" on="1"/>
        <pt x="17" y="1206" on="1"/>
        <pt x="17" y="1290" on="1"/>
      </contour>
      <contour>
        <pt x="220" y="745" on="1"/>
        <pt x="284" y="745" on="0"/>
        <pt x="284" y="595" on="0"/>
        <pt x="220" y="595" on="1"/>
        <pt x="159" y="595" on="0"/>
        <pt x="159" y="745" on="0"/>
      </contour>
    </TTGlyph>
    <TTGlyph name="degree" xMin="139" yMin="885" xMax="737" yMax="1483">
      <contour>
        <pt x="312" y="1483" on="0"/>
        <pt x="564" y="1483" on="0"/>
        <pt x="737" y="1316" on="0"/>
        <pt x="737" y="1052" on="0"/>
        <pt x="564" y="885" on="0"/>
        <pt x="309" y="885" on="0"/>
        <pt x="139" y="1050" on="0"/>
        <pt x="139" y="1316" on="0"/>
      </contour>
      <contour>
        <pt x="523" y="967" on="0"/>
        <pt x="647" y="1091" on="0"/>
        <pt x="647" y="1276" on="0"/>
        <pt x="527" y="1401" on="0"/>
        <pt x="348" y="1401" on="0"/>
        <pt x="288" y="1337" on="1"/>
        <pt x="229" y="1272" on="0"/>
        <pt x="229" y="1092" on="0"/>
        <pt x="351" y="967" on="0"/>
      </contour>
    </TTGlyph>
    <TTGlyph name="dieresis" xMin="348" yMin="1305" xMax="778" yMax="1470">
      <contour>
        <pt x="348" y="1429" on="0"/>
        <pt x="385" y="1470" on="0"/>
        <pt x="438" y="1470" on="0"/>
        <pt x="473" y="1429" on="0"/>
        <pt x="473" y="1347" on="0"/>
        <pt x="438" y="1305" on="0"/>
        <pt x="385" y="1305" on="0"/>
        <pt x="348" y="1347" on="0"/>
      </contour>
      <contour>
        <pt x="653" y="1429" on="0"/>
        <pt x="689" y="1470" on="0"/>
        <pt x="742" y="1470" on="0"/>
        <pt x="778" y="1429" on="0"/>
        <pt x="778" y="1347" on="0"/>
        <pt x="742" y="1305" on="0"/>
        <pt x="689" y="1305" on="0"/>
        <pt x="653" y="1348" on="0"/>
      </contour>
    </TTGlyph>
    <TTGlyph name="divide" xMin="59" yMin="266" xMax="760" yMax="1178">
      <contour>
        <pt x="410" y="965" on="1"/>
        <pt x="332" y="965" on="0"/>
        <pt x="332" y="1178" on="0"/>
        <pt x="487" y="1178" on="0"/>
        <pt x="487" y="1071" on="1"/>
        <pt x="487" y="1017" on="0"/>
        <pt x="445" y="965" on="0"/>
      </contour>
      <contour>
        <pt x="760" y="682" on="1"/>
        <pt x="59" y="682" on="1"/>
        <pt x="59" y="764" on="1"/>
        <pt x="760" y="764" on="1"/>
      </contour>
      <contour>
        <pt x="410" y="266" on="1"/>
        <pt x="332" y="266" on="0"/>
        <pt x="332" y="479" on="0"/>
        <pt x="487" y="479" on="0"/>
        <pt x="487" y="373" on="1"/>
        <pt x="487" y="319" on="0"/>
        <pt x="445" y="266" on="0"/>
      </contour>
    </TTGlyph>
    <TTGlyph name="dollar" xMin="94" yMin="-119" xMax="727" yMax="1556">
      <contour>
        <pt x="449" y="1556" on="1"/>
        <pt x="449" y="1374" on="1"/>
        <pt x="590" y="1369" on="0"/>
        <pt x="707" y="1313" on="1"/>
        <pt x="670" y="1227" on="1"/>
        <pt x="553" y="1281" on="0"/>
        <pt x="449" y="1284" on="1"/>
        <pt x="449" y="776" on="1"/>
        <pt x="599" y="715" on="0"/>
        <pt x="727" y="561" on="0"/>
        <pt x="727" y="320" on="0"/>
        <pt x="576" y="150" on="0"/>
        <pt x="449" y="129" on="1"/>
        <pt x="449" y="-119" on="1"/>
        <pt x="367" y="-119" on="1"/>
        <pt x="367" y="123" on="1"/>
        <pt x="192" y="123" on="0"/>
        <pt x="94" y="176" on="1"/>
        <pt x="94" y="279" on="1"/>
        <pt x="145" y="249" on="0"/>
        <pt x="294" y="215" on="0"/>
        <pt x="367" y="215" on="1"/>
        <pt x="367" y="709" on="1"/>
        <pt x="221" y="769" on="0"/>
        <pt x="104" y="924" on="0"/>
        <pt x="104" y="1174" on="0"/>
        <pt x="250" y="1350" on="0"/>
        <pt x="367" y="1370" on="1"/>
        <pt x="367" y="1556" on="1"/>
      </contour>
      <contour>
        <pt x="367" y="1278" on="1"/>
        <pt x="294" y="1262" on="0"/>
        <pt x="201" y="1138" on="0"/>
        <pt x="201" y="960" on="0"/>
        <pt x="240" y="905" on="1"/>
        <pt x="281" y="851" on="0"/>
        <pt x="367" y="809" on="1"/>
      </contour>
      <contour>
        <pt x="580" y="301" on="1"/>
        <pt x="629" y="360" on="0"/>
        <pt x="629" y="523" on="0"/>
        <pt x="545" y="635" on="0"/>
        <pt x="449" y="676" on="1"/>
        <pt x="449" y="223" on="1"/>
        <pt x="530" y="242" on="0"/>
      </contour>
    </TTGlyph>
    <TTGlyph name="dotaccent" xMin="131" yMin="1292" xMax="256" yMax="1481">
      <contour>
        <pt x="131" y="1430" on="0"/>
        <pt x="167" y="1481" on="0"/>
        <pt x="224" y="1481" on="0"/>
        <pt x="256" y="1431" on="0"/>
        <pt x="256" y="1343" on="0"/>
        <pt x="224" y="1292" on="0"/>
        <pt x="168" y="1292" on="0"/>
        <pt x="131" y="1344" on="0"/>
      </contour>
    </TTGlyph>
    <TTGlyph name="dotlessi" xMin="145" yMin="0" xMax="240" yMax="1085">
      <contour>
        <pt x="240" y="0" on="1"/>
        <pt x="145" y="0" on="1"/>
        <pt x="145" y="1085" on="1"/>
        <pt x="240" y="1085" on="1"/>
      </contour>
    </TTGlyph>
    <TTGlyph name="e" xMin="96" yMin="-20" xMax="707" yMax="1106">
      <contour>
        <pt x="453" y="-20" on="1"/>
        <pt x="281" y="-20" on="0"/>
        <pt x="188" y="126" on="1"/>
        <pt x="96" y="274" on="0"/>
        <pt x="96" y="813" on="0"/>
        <pt x="261" y="1106" on="0"/>
        <pt x="416" y="1106" on="1"/>
        <pt x="551" y="1106" on="0"/>
        <pt x="707" y="850" on="0"/>
        <pt x="707" y="631" on="1"/>
        <pt x="707" y="543" on="1"/>
        <pt x="193" y="543" on="1"/>
        <pt x="197" y="70" on="0"/>
        <pt x="457" y="70" on="1"/>
        <pt x="560" y="70" on="0"/>
        <pt x="672" y="137" on="1"/>
        <pt x="672" y="45" on="1"/>
        <pt x="568" y="-20" on="0"/>
      </contour>
      <contour>
        <pt x="612" y="629" on="1"/>
        <pt x="612" y="808" on="0"/>
        <pt x="503" y="1020" on="0"/>
        <pt x="410" y="1020" on="1"/>
        <pt x="214" y="1020" on="0"/>
        <pt x="195" y="629" on="1"/>
      </contour>
    </TTGlyph>
    <TTGlyph name="eacute" xMin="96" yMin="-20" xMax="707" yMax="1569">
      <contour>
        <pt x="659" y="1569" on="1"/>
        <pt x="659" y="1552" on="1"/>
        <pt x="622" y="1486" on="0"/>
        <pt x="460" y="1300" on="0"/>
        <pt x="390" y="1241" on="1"/>
        <pt x="343" y="1241" on="1"/>
        <pt x="343" y="1262" on="1"/>
        <pt x="469" y="1426" on="0"/>
        <pt x="534" y="1569" on="1"/>
      </contour>
      <contour>
        <pt x="453" y="-20" on="1"/>
        <pt x="281" y="-20" on="0"/>
        <pt x="188" y="126" on="1"/>
        <pt x="96" y="274" on="0"/>
        <pt x="96" y="813" on="0"/>
        <pt x="261" y="1106" on="0"/>
        <pt x="416" y="1106" on="1"/>
        <pt x="551" y="1106" on="0"/>
        <pt x="707" y="850" on="0"/>
        <pt x="707" y="631" on="1"/>
        <pt x="707" y="543" on="1"/>
        <pt x="193" y="543" on="1"/>
        <pt x="197" y="70" on="0"/>
        <pt x="457" y="70" on="1"/>
        <pt x="560" y="70" on="0"/>
        <pt x="672" y="137" on="1"/>
        <pt x="672" y="45" on="1"/>
        <pt x="568" y="-20" on="0"/>
      </contour>
      <contour>
        <pt x="612" y="629" on="1"/>
        <pt x="612" y="808" on="0"/>
        <pt x="503" y="1020" on="0"/>
        <pt x="410" y="1020" on="1"/>
        <pt x="214" y="1020" on="0"/>
        <pt x="195" y="629" on="1"/>
      </contour>
    </TTGlyph>
    <TTGlyph name="ecircumflex" xMin="96" yMin="-20" xMax="707" yMax="1569">
      <contour>
        <pt x="648" y="1241" on="1"/>
        <pt x="601" y="1241" on="1"/>
        <pt x="559" y="1283" on="0"/>
        <pt x="510" y="1342" on="1"/>
        <pt x="413" y="1454" on="1"/>
        <pt x="394" y="1433" on="0"/>
        <pt x="350" y="1382" on="1"/>
        <pt x="269" y="1288" on="0"/>
        <pt x="220" y="1241" on="1"/>
        <pt x="177" y="1241" on="1"/>
        <pt x="177" y="1260" on="1"/>
        <pt x="298" y="1428" on="0"/>
        <pt x="363" y="1569" on="1"/>
        <pt x="458" y="1569" on="1"/>
        <pt x="481" y="1515" on="0"/>
        <pt x="536" y="1424" on="1"/>
        <pt x="596" y="1329" on="0"/>
        <pt x="648" y="1260" on="1"/>
      </contour>
      <contour>
        <pt x="453" y="-20" on="1"/>
        <pt x="281" y="-20" on="0"/>
        <pt x="188" y="126" on="1"/>
        <pt x="96" y="274" on="0"/>
        <pt x="96" y="813" on="0"/>
        <pt x="261" y="1106" on="0"/>
        <pt x="416" y="1106" on="1"/>
        <pt x="551" y="1106" on="0"/>
        <pt x="707" y="850" on="0"/>
        <pt x="707" y="631" on="1"/>
        <pt x="707" y="543" on="1"/>
        <pt x="193" y="543" on="1"/>
        <pt x="197" y="70" on="0"/>
        <pt x="457" y="70" on="1"/>
        <pt x="560" y="70" on="0"/>
        <pt x="672" y="137" on="1"/>
        <pt x="672" y="45" on="1"/>
        <pt x="568" y="-20" on="0"/>
      </contour>
      <contour>
        <pt x="612" y="629" on="1"/>
        <pt x="612" y="808" on="0"/>
        <pt x="503" y="1020" on="0"/>
        <pt x="410" y="1020" on="1"/>
        <pt x="214" y="1020" on="0"/>
        <pt x="195" y="629" on="1"/>
      </contour>
    </TTGlyph>
    <TTGlyph name="edieresis" xMin="96" yMin="-20" xMax="707" yMax="1470">
      <contour>
        <pt x="195" y="1429" on="0"/>
        <pt x="232" y="1470" on="0"/>
        <pt x="285" y="1470" on="0"/>
        <pt x="320" y="1429" on="0"/>
        <pt x="320" y="1347" on="0"/>
        <pt x="285" y="1305" on="0"/>
        <pt x="232" y="1305" on="0"/>
        <pt x="195" y="1347" on="0"/>
      </contour>
      <contour>
        <pt x="500" y="1429" on="0"/>
        <pt x="536" y="1470" on="0"/>
        <pt x="589" y="1470" on="0"/>
        <pt x="625" y="1429" on="0"/>
        <pt x="625" y="1347" on="0"/>
        <pt x="589" y="1305" on="0"/>
        <pt x="536" y="1305" on="0"/>
        <pt x="500" y="1348" on="0"/>
      </contour>
      <contour>
        <pt x="453" y="-20" on="1"/>
        <pt x="281" y="-20" on="0"/>
        <pt x="188" y="126" on="1"/>
        <pt x="96" y="274" on="0"/>
        <pt x="96" y="813" on="0"/>
        <pt x="261" y="1106" on="0"/>
        <pt x="416" y="1106" on="1"/>
        <pt x="551" y="1106" on="0"/>
        <pt x="707" y="850" on="0"/>
        <pt x="707" y="631" on="1"/>
        <pt x="707" y="543" on="1"/>
        <pt x="193" y="543" on="1"/>
        <pt x="197" y="70" on="0"/>
        <pt x="457" y="70" on="1"/>
        <pt x="560" y="70" on="0"/>
        <pt x="672" y="137" on="1"/>
        <pt x="672" y="45" on="1"/>
        <pt x="568" y="-20" on="0"/>
      </contour>
      <contour>
        <pt x="612" y="629" on="1"/>
        <pt x="612" y="808" on="0"/>
        <pt x="503" y="1020" on="0"/>
        <pt x="410" y="1020" on="1"/>
        <pt x="214" y="1020" on="0"/>
        <pt x="195" y="629" on="1"/>
      </contour>
    </TTGlyph>
    <TTGlyph name="egrave" xMin="96" yMin="-20" xMax="707" yMax="1569">
      <contour>
        <pt x="197" y="1569" on="1"/>
        <pt x="322" y="1569" on="1"/>
        <pt x="351" y="1502" on="0"/>
        <pt x="457" y="1332" on="0"/>
        <pt x="513" y="1262" on="1"/>
        <pt x="513" y="1241" on="1"/>
        <pt x="465" y="1241" on="1"/>
        <pt x="402" y="1292" on="0"/>
        <pt x="234" y="1483" on="0"/>
        <pt x="197" y="1552" on="1"/>
      </contour>
      <contour>
        <pt x="453" y="-20" on="1"/>
        <pt x="281" y="-20" on="0"/>
        <pt x="188" y="126" on="1"/>
        <pt x="96" y="274" on="0"/>
        <pt x="96" y="813" on="0"/>
        <pt x="261" y="1106" on="0"/>
        <pt x="416" y="1106" on="1"/>
        <pt x="551" y="1106" on="0"/>
        <pt x="707" y="850" on="0"/>
        <pt x="707" y="631" on="1"/>
        <pt x="707" y="543" on="1"/>
        <pt x="193" y="543" on="1"/>
        <pt x="197" y="70" on="0"/>
        <pt x="457" y="70" on="1"/>
        <pt x="560" y="70" on="0"/>
        <pt x="672" y="137" on="1"/>
        <pt x="672" y="45" on="1"/>
        <pt x="568" y="-20" on="0"/>
      </contour>
      <contour>
        <pt x="612" y="629" on="1"/>
        <pt x="612" y="808" on="0"/>
        <pt x="503" y="1020" on="0"/>
        <pt x="410" y="1020" on="1"/>
        <pt x="214" y="1020" on="0"/>
        <pt x="195" y="629" on="1"/>
      </contour>
    </TTGlyph>
    <TTGlyph name="eight" xMin="72" yMin="-20" xMax="750" yMax="1483">
      <contour>
        <pt x="106" y="1143" on="1"/>
        <pt x="106" y="1294" on="0"/>
        <pt x="277" y="1483" on="0"/>
        <pt x="550" y="1483" on="0"/>
        <pt x="634" y="1393" on="1"/>
        <pt x="719" y="1305" on="0"/>
        <pt x="719" y="1147" on="1"/>
        <pt x="719" y="904" on="0"/>
        <pt x="479" y="762" on="1"/>
        <pt x="587" y="689" on="0"/>
        <pt x="640" y="633" on="1"/>
        <pt x="750" y="517" on="0"/>
        <pt x="750" y="195" on="0"/>
        <pt x="565" y="-20" on="0"/>
        <pt x="268" y="-20" on="0"/>
        <pt x="72" y="186" on="0"/>
        <pt x="72" y="350" on="1"/>
        <pt x="72" y="477" on="0"/>
        <pt x="183" y="675" on="0"/>
        <pt x="317" y="762" on="1"/>
        <pt x="106" y="924" on="0"/>
      </contour>
      <contour>
        <pt x="618" y="1259" on="0"/>
        <pt x="509" y="1393" on="0"/>
        <pt x="316" y="1393" on="0"/>
        <pt x="207" y="1258" on="0"/>
        <pt x="207" y="1036" on="0"/>
        <pt x="297" y="882" on="0"/>
        <pt x="410" y="807" on="1"/>
        <pt x="618" y="932" on="0"/>
        <pt x="618" y="1139" on="1"/>
      </contour>
      <contour>
        <pt x="222" y="559" on="1"/>
        <pt x="174" y="477" on="0"/>
        <pt x="174" y="222" on="0"/>
        <pt x="306" y="70" on="0"/>
        <pt x="520" y="70" on="0"/>
        <pt x="647" y="228" on="0"/>
        <pt x="647" y="367" on="1"/>
        <pt x="647" y="546" on="0"/>
        <pt x="440" y="688" on="1"/>
        <pt x="391" y="721" on="1"/>
        <pt x="270" y="644" on="0"/>
      </contour>
    </TTGlyph>
    <TTGlyph name="ellipsis" xMin="133" yMin="-16" xMax="1133" yMax="197">
      <contour>
        <pt x="133" y="197" on="0"/>
        <pt x="289" y="197" on="0"/>
        <pt x="289" y="90" on="1"/>
        <pt x="289" y="36" on="0"/>
        <pt x="246" y="-16" on="0"/>
        <pt x="211" y="-16" on="1"/>
        <pt x="133" y="-16" on="0"/>
      </contour>
      <contour>
        <pt x="555" y="197" on="0"/>
        <pt x="711" y="197" on="0"/>
        <pt x="711" y="90" on="1"/>
        <pt x="711" y="36" on="0"/>
        <pt x="668" y="-16" on="0"/>
        <pt x="633" y="-16" on="1"/>
        <pt x="555" y="-16" on="0"/>
      </contour>
      <contour>
        <pt x="977" y="197" on="0"/>
        <pt x="1133" y="197" on="0"/>
        <pt x="1133" y="90" on="1"/>
        <pt x="1133" y="36" on="0"/>
        <pt x="1090" y="-16" on="0"/>
        <pt x="1055" y="-16" on="1"/>
        <pt x="977" y="-16" on="0"/>
      </contour>
    </TTGlyph>
    <TTGlyph name="emdash" xMin="82" yMin="512" xMax="1966" yMax="594">
      <contour>
        <pt x="1966" y="512" on="1"/>
        <pt x="82" y="512" on="1"/>
        <pt x="82" y="594" on="1"/>
        <pt x="1966" y="594" on="1"/>
      </contour>
    </TTGlyph>
    <TTGlyph name="endash" xMin="82" yMin="512" xMax="942" yMax="594">
      <contour>
        <pt x="942" y="512" on="1"/>
        <pt x="82" y="512" on="1"/>
        <pt x="82" y="594" on="1"/>
        <pt x="942" y="594" on="1"/>
      </contour>
    </TTGlyph>
    <TTGlyph name="equal" xMin="59" yMin="465" xMax="760" yMax="977">
      <contour>
        <pt x="760" y="895" on="1"/>
        <pt x="59" y="895" on="1"/>
        <pt x="59" y="977" on="1"/>
        <pt x="760" y="977" on="1"/>
      </contour>
      <contour>
        <pt x="760" y="465" on="1"/>
        <pt x="59" y="465" on="1"/>
        <pt x="59" y="547" on="1"/>
        <pt x="760" y="547" on="1"/>
      </contour>
    </TTGlyph>
    <TTGlyph name="eth" xMin="94" yMin="-20" xMax="762" yMax="1556">
      <contour>
        <pt x="762" y="514" on="1"/>
        <pt x="762" y="-20" on="0"/>
        <pt x="424" y="-20" on="1"/>
        <pt x="276" y="-20" on="0"/>
        <pt x="94" y="251" on="0"/>
        <pt x="94" y="703" on="0"/>
        <pt x="255" y="954" on="0"/>
        <pt x="560" y="954" on="0"/>
        <pt x="633" y="831" on="1"/>
        <pt x="641" y="831" on="1"/>
        <pt x="589" y="1125" on="0"/>
        <pt x="403" y="1341" on="1"/>
        <pt x="229" y="1239" on="1"/>
        <pt x="190" y="1305" on="1"/>
        <pt x="350" y="1399" on="1"/>
        <pt x="296" y="1450" on="0"/>
        <pt x="238" y="1495" on="1"/>
        <pt x="285" y="1556" on="1"/>
        <pt x="360" y="1509" on="0"/>
        <pt x="426" y="1444" on="1"/>
        <pt x="614" y="1554" on="1"/>
        <pt x="653" y="1489" on="1"/>
        <pt x="479" y="1386" on="1"/>
        <pt x="762" y="1061" on="0"/>
      </contour>
      <contour>
        <pt x="432" y="864" on="1"/>
        <pt x="314" y="864" on="0"/>
        <pt x="190" y="659" on="0"/>
        <pt x="190" y="279" on="0"/>
        <pt x="319" y="66" on="0"/>
        <pt x="552" y="66" on="0"/>
        <pt x="666" y="271" on="0"/>
        <pt x="666" y="483" on="1"/>
        <pt x="666" y="649" on="0"/>
        <pt x="536" y="864" on="0"/>
      </contour>
    </TTGlyph>
    <TTGlyph name="exclam" xMin="147" yMin="-16" xMax="303" yMax="1462">
      <contour>
        <pt x="252" y="367" on="1"/>
        <pt x="197" y="367" on="1"/>
        <pt x="162" y="1462" on="1"/>
        <pt x="287" y="1462" on="1"/>
      </contour>
      <contour>
        <pt x="147" y="197" on="0"/>
        <pt x="303" y="197" on="0"/>
        <pt x="303" y="90" on="1"/>
        <pt x="303" y="36" on="0"/>
        <pt x="260" y="-16" on="0"/>
        <pt x="225" y="-16" on="1"/>
        <pt x="147" y="-16" on="0"/>
      </contour>
    </TTGlyph>
    <TTGlyph name="exclamdown" xMin="147" yMin="-391" xMax="303" yMax="1087">
      <contour>
        <pt x="225" y="1087" on="1"/>
        <pt x="260" y="1087" on="0"/>
        <pt x="303" y="1035" on="0"/>
        <pt x="303" y="981" on="1"/>
        <pt x="303" y="874" on="0"/>
        <pt x="147" y="874" on="0"/>
        <pt x="147" y="1087" on="0"/>
      </contour>
      <contour>
        <pt x="287" y="-391" on="1"/>
        <pt x="162" y="-391" on="1"/>
        <pt x="197" y="705" on="1"/>
        <pt x="252" y="705" on="1"/>
      </contour>
    </TTGlyph>
    <TTGlyph name="f" xMin="20" yMin="0" xMax="504" yMax="1567">
      <contour>
        <pt x="158" y="1178" on="1"/>
        <pt x="158" y="1385" on="0"/>
        <pt x="256" y="1567" on="0"/>
        <pt x="377" y="1567" on="1"/>
        <pt x="448" y="1567" on="0"/>
        <pt x="504" y="1542" on="1"/>
        <pt x="471" y="1454" on="1"/>
        <pt x="420" y="1479" on="0"/>
        <pt x="375" y="1479" on="1"/>
        <pt x="303" y="1476" on="0"/>
        <pt x="254" y="1351" on="0"/>
        <pt x="252" y="1176" on="1"/>
        <pt x="252" y="1085" on="1"/>
        <pt x="422" y="1085" on="1"/>
        <pt x="422" y="1001" on="1"/>
        <pt x="252" y="1001" on="1"/>
        <pt x="252" y="0" on="1"/>
        <pt x="158" y="0" on="1"/>
        <pt x="158" y="1001" on="1"/>
        <pt x="20" y="1001" on="1"/>
        <pt x="20" y="1055" on="1"/>
        <pt x="158" y="1096" on="1"/>
      </contour>
    </TTGlyph>
    <TTGlyph name="finalkafdageshhb" xMin="41" yMin="-492" xMax="539" yMax="1310">
      <contour>
        <pt x="201" y="1310" on="1"/>
        <pt x="539" y="1310" on="0"/>
        <pt x="539" y="721" on="1"/>
        <pt x="539" y="-492" on="1"/>
        <pt x="442" y="-492" on="1"/>
        <pt x="442" y="721" on="1"/>
        <pt x="442" y="1220" on="0"/>
        <pt x="200" y="1220" on="1"/>
        <pt x="119" y="1220" on="0"/>
        <pt x="41" y="1170" on="1"/>
        <pt x="41" y="1273" on="1"/>
        <pt x="112" y="1310" on="0"/>
      </contour>
      <contour>
        <pt x="193" y="745" on="1"/>
        <pt x="257" y="745" on="0"/>
        <pt x="257" y="595" on="0"/>
        <pt x="193" y="595" on="1"/>
        <pt x="132" y="595" on="0"/>
        <pt x="132" y="745" on="0"/>
      </contour>
    </TTGlyph>
    <TTGlyph name="finalpedageshhb" xMin="94" yMin="-492" xMax="772" yMax="1310">
      <contour>
        <pt x="392" y="441" on="1"/>
        <pt x="240" y="441" on="0"/>
        <pt x="94" y="663" on="0"/>
        <pt x="94" y="1059" on="0"/>
        <pt x="274" y="1310" on="0"/>
        <pt x="424" y="1310" on="1"/>
        <pt x="772" y="1310" on="0"/>
        <pt x="772" y="645" on="1"/>
        <pt x="772" y="-492" on="1"/>
        <pt x="677" y="-492" on="1"/>
        <pt x="677" y="645" on="1"/>
        <pt x="677" y="1220" on="0"/>
        <pt x="424" y="1220" on="1"/>
        <pt x="363" y="1220" on="0"/>
        <pt x="267" y="1150" on="0"/>
        <pt x="239" y="1094" on="1"/>
        <pt x="182" y="982" on="0"/>
        <pt x="182" y="859" on="1"/>
        <pt x="182" y="662" on="0"/>
        <pt x="249" y="580" on="1"/>
        <pt x="301" y="516" on="0"/>
        <pt x="399" y="516" on="1"/>
        <pt x="413" y="516" on="1"/>
        <pt x="397" y="441" on="1"/>
      </contour>
      <contour>
        <pt x="407" y="922" on="1"/>
        <pt x="471" y="922" on="0"/>
        <pt x="471" y="772" on="0"/>
        <pt x="407" y="772" on="1"/>
        <pt x="346" y="772" on="0"/>
        <pt x="346" y="922" on="0"/>
      </contour>
    </TTGlyph>
    <TTGlyph name="five" xMin="98" yMin="-20" xMax="727" yMax="1462">
      <contour>
        <pt x="647" y="1368" on="1"/>
        <pt x="233" y="1368" on="1"/>
        <pt x="197" y="854" on="1"/>
        <pt x="289" y="874" on="0"/>
        <pt x="371" y="874" on="1"/>
        <pt x="535" y="874" on="0"/>
        <pt x="727" y="656" on="0"/>
        <pt x="727" y="465" on="1"/>
        <pt x="727" y="244" on="0"/>
        <pt x="517" y="-20" on="0"/>
        <pt x="342" y="-20" on="1"/>
        <pt x="186" y="-20" on="0"/>
        <pt x="98" y="35" on="1"/>
        <pt x="98" y="145" on="1"/>
        <pt x="208" y="68" on="0"/>
        <pt x="471" y="68" on="0"/>
        <pt x="627" y="286" on="0"/>
        <pt x="627" y="622" on="0"/>
        <pt x="490" y="788" on="0"/>
        <pt x="365" y="788" on="1"/>
        <pt x="263" y="788" on="0"/>
        <pt x="158" y="758" on="1"/>
        <pt x="109" y="821" on="1"/>
        <pt x="152" y="1462" on="1"/>
        <pt x="647" y="1462" on="1"/>
      </contour>
    </TTGlyph>
    <TTGlyph name="florin" xMin="80" yMin="-492" xMax="731" yMax="1483">
      <contour>
        <pt x="354" y="1126" on="1"/>
        <pt x="354" y="1309" on="0"/>
        <pt x="457" y="1483" on="0"/>
        <pt x="573" y="1483" on="1"/>
        <pt x="648" y="1483" on="0"/>
        <pt x="731" y="1444" on="1"/>
        <pt x="690" y="1358" on="1"/>
        <pt x="627" y="1391" on="0"/>
        <pt x="578" y="1391" on="1"/>
        <pt x="505" y="1390" on="0"/>
        <pt x="452" y="1268" on="0"/>
        <pt x="449" y="1110" on="1"/>
        <pt x="449" y="930" on="1"/>
        <pt x="639" y="930" on="1"/>
        <pt x="639" y="846" on="1"/>
        <pt x="449" y="846" on="1"/>
        <pt x="449" y="-111" on="1"/>
        <pt x="449" y="-309" on="0"/>
        <pt x="338" y="-492" on="0"/>
        <pt x="207" y="-492" on="1"/>
        <pt x="138" y="-492" on="0"/>
        <pt x="80" y="-479" on="1"/>
        <pt x="80" y="-385" on="1"/>
        <pt x="152" y="-403" on="0"/>
        <pt x="201" y="-403" on="1"/>
        <pt x="283" y="-403" on="0"/>
        <pt x="354" y="-279" on="0"/>
        <pt x="354" y="-147" on="1"/>
        <pt x="354" y="846" on="1"/>
        <pt x="193" y="846" on="1"/>
        <pt x="193" y="899" on="1"/>
        <pt x="354" y="938" on="1"/>
      </contour>
    </TTGlyph>
    <TTGlyph name="four" xMin="37" yMin="0" xMax="793" yMax="1479">
      <contour>
        <pt x="637" y="422" on="1"/>
        <pt x="793" y="422" on="1"/>
        <pt x="793" y="332" on="1"/>
        <pt x="637" y="332" on="1"/>
        <pt x="637" y="0" on="1"/>
        <pt x="541" y="0" on="1"/>
        <pt x="541" y="332" on="1"/>
        <pt x="37" y="332" on="1"/>
        <pt x="37" y="416" on="1"/>
        <pt x="516" y="1479" on="1"/>
        <pt x="637" y="1479" on="1"/>
      </contour>
      <contour>
        <pt x="541" y="422" on="1"/>
        <pt x="541" y="1128" on="1"/>
        <pt x="541" y="1243" on="0"/>
        <pt x="549" y="1366" on="1"/>
        <pt x="543" y="1366" on="1"/>
        <pt x="469" y="1178" on="1"/>
        <pt x="137" y="422" on="1"/>
      </contour>
    </TTGlyph>
    <TTGlyph name="fraction" xMin="-297" yMin="0" xMax="563" yMax="1462">
      <contour>
        <pt x="-205" y="0" on="1"/>
        <pt x="-297" y="0" on="1"/>
        <pt x="471" y="1462" on="1"/>
        <pt x="563" y="1462" on="1"/>
      </contour>
    </TTGlyph>
    <TTGlyph name="g" xMin="35" yMin="-492" xMax="731" yMax="1106">
      <contour>
        <pt x="358" y="145" on="1"/>
        <pt x="426" y="145" on="1"/>
        <pt x="572" y="145" on="0"/>
        <pt x="731" y="-6" on="0"/>
        <pt x="731" y="-147" on="1"/>
        <pt x="731" y="-306" on="0"/>
        <pt x="516" y="-492" on="0"/>
        <pt x="340" y="-492" on="1"/>
        <pt x="193" y="-492" on="0"/>
        <pt x="35" y="-343" on="0"/>
        <pt x="35" y="-203" on="1"/>
        <pt x="35" y="5" on="0"/>
        <pt x="250" y="86" on="1"/>
        <pt x="139" y="134" on="0"/>
        <pt x="139" y="240" on="1"/>
        <pt x="139" y="286" on="0"/>
        <pt x="199" y="362" on="0"/>
        <pt x="264" y="410" on="1"/>
        <pt x="182" y="448" on="0"/>
        <pt x="96" y="616" on="0"/>
        <pt x="96" y="733" on="1"/>
        <pt x="96" y="906" on="0"/>
        <pt x="242" y="1106" on="0"/>
        <pt x="369" y="1106" on="1"/>
        <pt x="436" y="1106" on="0"/>
        <pt x="483" y="1085" on="1"/>
        <pt x="713" y="1085" on="1"/>
        <pt x="713" y="1018" on="1"/>
        <pt x="565" y="1001" on="1"/>
        <pt x="594" y="963" on="0"/>
        <pt x="633" y="819" on="0"/>
        <pt x="633" y="741" on="1"/>
        <pt x="633" y="582" on="0"/>
        <pt x="490" y="387" on="0"/>
        <pt x="373" y="387" on="1"/>
        <pt x="349" y="387" on="1"/>
        <pt x="328" y="389" on="1"/>
        <pt x="276" y="352" on="0"/>
        <pt x="225" y="285" on="0"/>
        <pt x="225" y="197" on="0"/>
        <pt x="297" y="145" on="0"/>
      </contour>
      <contour>
        <pt x="541" y="877" on="0"/>
        <pt x="451" y="1028" on="0"/>
        <pt x="280" y="1028" on="0"/>
        <pt x="188" y="873" on="0"/>
        <pt x="188" y="601" on="0"/>
        <pt x="284" y="461" on="0"/>
        <pt x="367" y="461" on="1"/>
        <pt x="541" y="461" on="0"/>
        <pt x="541" y="741" on="1"/>
      </contour>
      <contour>
        <pt x="426" y="53" on="1"/>
        <pt x="356" y="53" on="1"/>
        <pt x="258" y="53" on="0"/>
        <pt x="129" y="-83" on="0"/>
        <pt x="129" y="-300" on="0"/>
        <pt x="238" y="-414" on="0"/>
        <pt x="344" y="-414" on="1"/>
        <pt x="479" y="-414" on="0"/>
        <pt x="635" y="-274" on="0"/>
        <pt x="635" y="-152" on="1"/>
        <pt x="635" y="-53" on="0"/>
        <pt x="528" y="53" on="0"/>
      </contour>
    </TTGlyph>
    <TTGlyph name="gereshhb" xMin="43" yMin="820" xMax="273" yMax="1290">
      <contour>
        <pt x="260" y="1290" on="1"/>
        <pt x="273" y="1270" on="1"/>
        <pt x="220" y="1101" on="0"/>
        <pt x="191" y="1027" on="1"/>
        <pt x="106" y="820" on="1"/>
        <pt x="43" y="820" on="1"/>
        <pt x="90" y="974" on="0"/>
        <pt x="130" y="1203" on="0"/>
        <pt x="137" y="1246" on="1"/>
        <pt x="144" y="1290" on="1"/>
      </contour>
    </TTGlyph>
    <TTGlyph name="germandbls" xMin="145" yMin="-20" xMax="752" yMax="1567">
      <contour>
        <pt x="145" y="0" on="1"/>
        <pt x="145" y="1204" on="1"/>
        <pt x="145" y="1376" on="0"/>
        <pt x="291" y="1567" on="0"/>
        <pt x="415" y="1567" on="1"/>
        <pt x="659" y="1567" on="0"/>
        <pt x="659" y="1290" on="1"/>
        <pt x="659" y="1170" on="0"/>
        <pt x="477" y="935" on="0"/>
        <pt x="477" y="862" on="1"/>
        <pt x="477" y="805" on="0"/>
        <pt x="524" y="713" on="0"/>
        <pt x="588" y="633" on="1"/>
        <pt x="647" y="563" on="1"/>
        <pt x="752" y="443" on="0"/>
        <pt x="752" y="148" on="0"/>
        <pt x="681" y="63" on="1"/>
        <pt x="610" y="-20" on="0"/>
        <pt x="379" y="-20" on="0"/>
        <pt x="317" y="33" on="1"/>
        <pt x="317" y="133" on="1"/>
        <pt x="361" y="103" on="0"/>
        <pt x="440" y="70" on="0"/>
        <pt x="492" y="70" on="1"/>
        <pt x="570" y="70" on="0"/>
        <pt x="655" y="186" on="0"/>
        <pt x="655" y="291" on="1"/>
        <pt x="655" y="351" on="0"/>
        <pt x="610" y="462" on="0"/>
        <pt x="450" y="655" on="0"/>
        <pt x="385" y="795" on="0"/>
        <pt x="385" y="913" on="0"/>
        <pt x="425" y="1003" on="0"/>
        <pt x="474" y="1064" on="1"/>
        <pt x="563" y="1176" on="0"/>
        <pt x="563" y="1294" on="1"/>
        <pt x="563" y="1477" on="0"/>
        <pt x="416" y="1477" on="1"/>
        <pt x="331" y="1477" on="0"/>
        <pt x="240" y="1342" on="0"/>
        <pt x="240" y="1214" on="1"/>
        <pt x="240" y="0" on="1"/>
      </contour>
    </TTGlyph>
    <TTGlyph name="gershayimhb" xMin="43" yMin="820" xMax="555" yMax="1290">
      <contour>
        <pt x="260" y="1290" on="1"/>
        <pt x="273" y="1270" on="1"/>
        <pt x="220" y="1101" on="0"/>
        <pt x="191" y="1027" on="1"/>
        <pt x="106" y="820" on="1"/>
        <pt x="43" y="820" on="1"/>
        <pt x="90" y="974" on="0"/>
        <pt x="130" y="1203" on="0"/>
        <pt x="137" y="1246" on="1"/>
        <pt x="144" y="1290" on="1"/>
      </contour>
      <contour>
        <pt x="542" y="1290" on="1"/>
        <pt x="555" y="1270" on="1"/>
        <pt x="502" y="1101" on="0"/>
        <pt x="473" y="1027" on="1"/>
        <pt x="388" y="820" on="1"/>
        <pt x="325" y="820" on="1"/>
        <pt x="372" y="974" on="0"/>
        <pt x="412" y="1203" on="0"/>
        <pt x="419" y="1246" on="1"/>
        <pt x="426" y="1290" on="1"/>
      </contour>
    </TTGlyph>
    <TTGlyph name="gimeldageshhb" xMin="115" yMin="-4" xMax="515" yMax="1310">
      <contour>
        <pt x="278" y="1310" on="1"/>
        <pt x="515" y="1310" on="0"/>
        <pt x="515" y="1019" on="1"/>
        <pt x="515" y="0" on="1"/>
        <pt x="435" y="0" on="1"/>
        <pt x="425" y="213" on="1"/>
        <pt x="418" y="213" on="1"/>
        <pt x="389" y="124" on="0"/>
        <pt x="364" y="87" on="1"/>
        <pt x="302" y="-4" on="0"/>
        <pt x="178" y="-4" on="1"/>
        <pt x="148" y="-4" on="0"/>
        <pt x="115" y="7" on="1"/>
        <pt x="133" y="101" on="1"/>
        <pt x="156" y="88" on="0"/>
        <pt x="187" y="88" on="1"/>
        <pt x="304" y="88" on="0"/>
        <pt x="420" y="309" on="0"/>
        <pt x="420" y="511" on="1"/>
        <pt x="420" y="1019" on="1"/>
        <pt x="420" y="1110" on="0"/>
        <pt x="394" y="1162" on="1"/>
        <pt x="364" y="1224" on="0"/>
        <pt x="270" y="1224" on="1"/>
        <pt x="235" y="1224" on="0"/>
        <pt x="173" y="1207" on="1"/>
        <pt x="173" y="1295" on="1"/>
        <pt x="228" y="1310" on="0"/>
      </contour>
      <contour>
        <pt x="253" y="745" on="1"/>
        <pt x="317" y="745" on="0"/>
        <pt x="317" y="595" on="0"/>
        <pt x="253" y="595" on="1"/>
        <pt x="192" y="595" on="0"/>
        <pt x="192" y="745" on="0"/>
      </contour>
    </TTGlyph>
    <TTGlyph name="grave" xMin="434" yMin="1241" xMax="750" yMax="1569">
      <contour>
        <pt x="434" y="1569" on="1"/>
        <pt x="559" y="1569" on="1"/>
        <pt x="588" y="1502" on="0"/>
        <pt x="694" y="1332" on="0"/>
        <pt x="750" y="1262" on="1"/>
        <pt x="750" y="1241" on="1"/>
        <pt x="702" y="1241" on="1"/>
        <pt x="639" y="1292" on="0"/>
        <pt x="471" y="1483" on="0"/>
        <pt x="434" y="1552" on="1"/>
      </contour>
    </TTGlyph>
    <TTGlyph name="greater" xMin="57" yMin="287" xMax="760" yMax="1157">
      <contour>
        <pt x="760" y="758" on="1"/>
        <pt x="760" y="690" on="1"/>
        <pt x="57" y="287" on="1"/>
        <pt x="57" y="389" on="1"/>
        <pt x="657" y="723" on="1"/>
        <pt x="57" y="1057" on="1"/>
        <pt x="57" y="1157" on="1"/>
      </contour>
    </TTGlyph>
    <TTGlyph name="guillemotleft" xMin="82" yMin="147" xMax="774" yMax="907">
      <contour>
        <pt x="430" y="872" on="1"/>
        <pt x="211" y="528" on="1"/>
        <pt x="430" y="184" on="1"/>
        <pt x="369" y="147" on="1"/>
        <pt x="82" y="514" on="1"/>
        <pt x="82" y="541" on="1"/>
        <pt x="369" y="907" on="1"/>
      </contour>
      <contour>
        <pt x="774" y="872" on="1"/>
        <pt x="557" y="528" on="1"/>
        <pt x="774" y="184" on="1"/>
        <pt x="715" y="147" on="1"/>
        <pt x="426" y="514" on="1"/>
        <pt x="426" y="541" on="1"/>
        <pt x="715" y="907" on="1"/>
      </contour>
    </TTGlyph>
    <TTGlyph name="guillemotright" xMin="82" yMin="147" xMax="774" yMax="907">
      <contour>
        <pt x="430" y="541" on="1"/>
        <pt x="430" y="514" on="1"/>
        <pt x="141" y="147" on="1"/>
        <pt x="82" y="184" on="1"/>
        <pt x="299" y="528" on="1"/>
        <pt x="82" y="872" on="1"/>
        <pt x="141" y="907" on="1"/>
      </contour>
      <contour>
        <pt x="774" y="541" on="1"/>
        <pt x="774" y="514" on="1"/>
        <pt x="487" y="147" on="1"/>
        <pt x="426" y="184" on="1"/>
        <pt x="645" y="528" on="1"/>
        <pt x="426" y="872" on="1"/>
        <pt x="487" y="907" on="1"/>
      </contour>
    </TTGlyph>
    <TTGlyph name="guilsinglleft" xMin="82" yMin="147" xMax="430" yMax="907">
      <contour>
        <pt x="430" y="872" on="1"/>
        <pt x="211" y="528" on="1"/>
        <pt x="430" y="184" on="1"/>
        <pt x="369" y="147" on="1"/>
        <pt x="82" y="514" on="1"/>
        <pt x="82" y="541" on="1"/>
        <pt x="369" y="907" on="1"/>
      </contour>
    </TTGlyph>
    <TTGlyph name="guilsinglright" xMin="82" yMin="147" xMax="430" yMax="907">
      <contour>
        <pt x="430" y="541" on="1"/>
        <pt x="430" y="514" on="1"/>
        <pt x="143" y="147" on="1"/>
        <pt x="82" y="184" on="1"/>
        <pt x="301" y="528" on="1"/>
        <pt x="82" y="872" on="1"/>
        <pt x="143" y="907" on="1"/>
      </contour>
    </TTGlyph>
    <TTGlyph name="h" xMin="145" yMin="0" xMax="729" yMax="1556">
      <contour>
        <pt x="240" y="1556" on="1"/>
        <pt x="240" y="1051" on="1"/>
        <pt x="240" y="977" on="0"/>
        <pt x="236" y="936" on="1"/>
        <pt x="244" y="936" on="1"/>
        <pt x="276" y="1018" on="0"/>
        <pt x="340" y="1061" on="1"/>
        <pt x="404" y="1106" on="0"/>
        <pt x="475" y="1106" on="1"/>
        <pt x="610" y="1106" on="0"/>
        <pt x="729" y="930" on="0"/>
        <pt x="729" y="748" on="1"/>
        <pt x="729" y="0" on="1"/>
        <pt x="635" y="0" on="1"/>
        <pt x="635" y="748" on="1"/>
        <pt x="635" y="894" on="0"/>
        <pt x="559" y="1018" on="0"/>
        <pt x="471" y="1018" on="1"/>
        <pt x="355" y="1018" on="0"/>
        <pt x="240" y="811" on="0"/>
        <pt x="240" y="594" on="1"/>
        <pt x="240" y="0" on="1"/>
        <pt x="145" y="0" on="1"/>
        <pt x="145" y="1556" on="1"/>
      </contour>
    </TTGlyph>
    <TTGlyph name="hedageshhb" xMin="145" yMin="0" xMax="775" yMax="1310">
      <contour>
        <pt x="145" y="1290" on="1"/>
        <pt x="349" y="1310" on="0"/>
        <pt x="503" y="1310" on="0"/>
        <pt x="630" y="1282" on="0"/>
        <pt x="730" y="1205" on="0"/>
        <pt x="775" y="1061" on="0"/>
        <pt x="775" y="950" on="1"/>
        <pt x="775" y="0" on="1"/>
        <pt x="679" y="0" on="1"/>
        <pt x="679" y="950" on="1"/>
        <pt x="679" y="1040" on="0"/>
        <pt x="651" y="1148" on="0"/>
        <pt x="579" y="1206" on="0"/>
        <pt x="486" y="1224" on="0"/>
        <pt x="376" y="1224" on="0"/>
        <pt x="145" y="1203" on="1"/>
      </contour>
      <contour>
        <pt x="145" y="0" on="1"/>
        <pt x="145" y="813" on="1"/>
        <pt x="240" y="813" on="1"/>
        <pt x="240" y="0" on="1"/>
      </contour>
      <contour>
        <pt x="458" y="745" on="1"/>
        <pt x="522" y="745" on="0"/>
        <pt x="522" y="595" on="0"/>
        <pt x="458" y="595" on="1"/>
        <pt x="397" y="595" on="0"/>
        <pt x="397" y="745" on="0"/>
      </contour>
    </TTGlyph>
    <TTGlyph name="hungarumlaut" xMin="289" yMin="1241" xMax="844" yMax="1569">
      <contour>
        <pt x="578" y="1569" on="1"/>
        <pt x="578" y="1552" on="1"/>
        <pt x="537" y="1480" on="0"/>
        <pt x="468" y="1387" on="1"/>
        <pt x="399" y="1297" on="0"/>
        <pt x="336" y="1241" on="1"/>
        <pt x="289" y="1241" on="1"/>
        <pt x="289" y="1262" on="1"/>
        <pt x="333" y="1319" on="0"/>
        <pt x="435" y="1512" on="0"/>
        <pt x="459" y="1569" on="1"/>
      </contour>
      <contour>
        <pt x="844" y="1569" on="1"/>
        <pt x="844" y="1552" on="1"/>
        <pt x="807" y="1480" on="0"/>
        <pt x="666" y="1299" on="0"/>
        <pt x="602" y="1241" on="1"/>
        <pt x="555" y="1241" on="1"/>
        <pt x="555" y="1262" on="1"/>
        <pt x="599" y="1319" on="0"/>
        <pt x="701" y="1512" on="0"/>
        <pt x="725" y="1569" on="1"/>
      </contour>
    </TTGlyph>
    <TTGlyph name="hyphen" xMin="53" yMin="502" xMax="463" yMax="604">
      <contour>
        <pt x="463" y="502" on="1"/>
        <pt x="53" y="502" on="1"/>
        <pt x="53" y="604" on="1"/>
        <pt x="463" y="604" on="1"/>
      </contour>
    </TTGlyph>
    <TTGlyph name="i" xMin="131" yMin="0" xMax="256" yMax="1481">
      <contour>
        <pt x="131" y="1430" on="0"/>
        <pt x="167" y="1481" on="0"/>
        <pt x="224" y="1481" on="0"/>
        <pt x="256" y="1431" on="0"/>
        <pt x="256" y="1343" on="0"/>
        <pt x="224" y="1292" on="0"/>
        <pt x="168" y="1292" on="0"/>
        <pt x="131" y="1344" on="0"/>
      </contour>
      <contour>
        <pt x="240" y="0" on="1"/>
        <pt x="145" y="0" on="1"/>
        <pt x="145" y="1085" on="1"/>
        <pt x="240" y="1085" on="1"/>
      </contour>
    </TTGlyph>
    <TTGlyph name="iacute" xMin="113" yMin="0" xMax="429" yMax="1569">
      <contour>
        <pt x="429" y="1569" on="1"/>
        <pt x="429" y="1552" on="1"/>
        <pt x="392" y="1486" on="0"/>
        <pt x="230" y="1300" on="0"/>
        <pt x="160" y="1241" on="1"/>
        <pt x="113" y="1241" on="1"/>
        <pt x="113" y="1262" on="1"/>
        <pt x="239" y="1426" on="0"/>
        <pt x="304" y="1569" on="1"/>
      </contour>
      <contour>
        <pt x="240" y="0" on="1"/>
        <pt x="145" y="0" on="1"/>
        <pt x="145" y="1085" on="1"/>
        <pt x="240" y="1085" on="1"/>
      </contour>
    </TTGlyph>
    <TTGlyph name="icircumflex" xMin="-42" yMin="0" xMax="429" yMax="1569">
      <contour>
        <pt x="429" y="1241" on="1"/>
        <pt x="382" y="1241" on="1"/>
        <pt x="340" y="1283" on="0"/>
        <pt x="291" y="1342" on="1"/>
        <pt x="194" y="1454" on="1"/>
        <pt x="175" y="1433" on="0"/>
        <pt x="131" y="1382" on="1"/>
        <pt x="50" y="1288" on="0"/>
        <pt x="1" y="1241" on="1"/>
        <pt x="-42" y="1241" on="1"/>
        <pt x="-42" y="1260" on="1"/>
        <pt x="80" y="1428" on="0"/>
        <pt x="144" y="1569" on="1"/>
        <pt x="239" y="1569" on="1"/>
        <pt x="262" y="1515" on="0"/>
        <pt x="317" y="1424" on="1"/>
        <pt x="377" y="1329" on="0"/>
        <pt x="429" y="1260" on="1"/>
      </contour>
      <contour>
        <pt x="240" y="0" on="1"/>
        <pt x="145" y="0" on="1"/>
        <pt x="145" y="1085" on="1"/>
        <pt x="240" y="1085" on="1"/>
      </contour>
    </TTGlyph>
    <TTGlyph name="idieresis" xMin="-20" yMin="0" xMax="410" yMax="1470">
      <contour>
        <pt x="-20" y="1429" on="0"/>
        <pt x="17" y="1470" on="0"/>
        <pt x="70" y="1470" on="0"/>
        <pt x="105" y="1429" on="0"/>
        <pt x="105" y="1347" on="0"/>
        <pt x="70" y="1305" on="0"/>
        <pt x="17" y="1305" on="0"/>
        <pt x="-20" y="1347" on="0"/>
      </contour>
      <contour>
        <pt x="285" y="1429" on="0"/>
        <pt x="321" y="1470" on="0"/>
        <pt x="374" y="1470" on="0"/>
        <pt x="410" y="1429" on="0"/>
        <pt x="410" y="1347" on="0"/>
        <pt x="374" y="1305" on="0"/>
        <pt x="321" y="1305" on="0"/>
        <pt x="285" y="1348" on="0"/>
      </contour>
      <contour>
        <pt x="240" y="0" on="1"/>
        <pt x="145" y="0" on="1"/>
        <pt x="145" y="1085" on="1"/>
        <pt x="240" y="1085" on="1"/>
      </contour>
    </TTGlyph>
    <TTGlyph name="igrave" xMin="-32" yMin="0" xMax="284" yMax="1569">
      <contour>
        <pt x="-32" y="1569" on="1"/>
        <pt x="93" y="1569" on="1"/>
        <pt x="122" y="1502" on="0"/>
        <pt x="228" y="1332" on="0"/>
        <pt x="284" y="1262" on="1"/>
        <pt x="284" y="1241" on="1"/>
        <pt x="236" y="1241" on="1"/>
        <pt x="173" y="1292" on="0"/>
        <pt x="5" y="1483" on="0"/>
        <pt x="-32" y="1552" on="1"/>
      </contour>
      <contour>
        <pt x="240" y="0" on="1"/>
        <pt x="145" y="0" on="1"/>
        <pt x="145" y="1085" on="1"/>
        <pt x="240" y="1085" on="1"/>
      </contour>
    </TTGlyph>
    <TTGlyph name="j" xMin="-4" yMin="-492" xMax="256" yMax="1481">
      <contour>
        <pt x="131" y="1430" on="0"/>
        <pt x="167" y="1481" on="0"/>
        <pt x="224" y="1481" on="0"/>
        <pt x="256" y="1431" on="0"/>
        <pt x="256" y="1343" on="0"/>
        <pt x="224" y="1292" on="0"/>
        <pt x="168" y="1292" on="0"/>
        <pt x="131" y="1344" on="0"/>
      </contour>
      <contour>
        <pt x="240" y="1085" on="1"/>
        <pt x="240" y="-201" on="1"/>
        <pt x="240" y="-350" on="0"/>
        <pt x="154" y="-492" on="0"/>
        <pt x="63" y="-492" on="1"/>
        <pt x="22" y="-492" on="0"/>
        <pt x="-4" y="-475" on="1"/>
        <pt x="-4" y="-385" on="1"/>
        <pt x="27" y="-401" on="0"/>
        <pt x="59" y="-401" on="1"/>
        <pt x="105" y="-401" on="0"/>
        <pt x="145" y="-312" on="0"/>
        <pt x="145" y="-215" on="1"/>
        <pt x="145" y="1085" on="1"/>
      </contour>
    </TTGlyph>
    <TTGlyph name="k" xMin="145" yMin="0" xMax="696" yMax="1556">
      <contour>
        <pt x="240" y="0" on="1"/>
        <pt x="145" y="0" on="1"/>
        <pt x="145" y="1556" on="1"/>
        <pt x="240" y="1556" on="1"/>
        <pt x="240" y="719" on="1"/>
        <pt x="233" y="537" on="1"/>
        <pt x="242" y="537" on="1"/>
        <pt x="303" y="647" on="1"/>
        <pt x="571" y="1085" on="1"/>
        <pt x="674" y="1085" on="1"/>
        <pt x="424" y="686" on="1"/>
        <pt x="696" y="0" on="1"/>
        <pt x="596" y="0" on="1"/>
        <pt x="360" y="598" on="1"/>
        <pt x="240" y="440" on="1"/>
      </contour>
    </TTGlyph>
    <TTGlyph name="kafdageshhb" xMin="41" yMin="-20" xMax="539" yMax="1310">
      <contour>
        <pt x="201" y="1310" on="1"/>
        <pt x="539" y="1310" on="0"/>
        <pt x="539" y="721" on="1"/>
        <pt x="539" y="532" on="1"/>
        <pt x="539" y="-20" on="0"/>
        <pt x="201" y="-20" on="1"/>
        <pt x="132" y="-20" on="0"/>
        <pt x="68" y="0" on="1"/>
        <pt x="47" y="7" on="1"/>
        <pt x="47" y="99" on="1"/>
        <pt x="104" y="66" on="0"/>
        <pt x="200" y="66" on="1"/>
        <pt x="310" y="66" on="0"/>
        <pt x="370" y="168" on="1"/>
        <pt x="405" y="228" on="0"/>
        <pt x="429" y="343" on="0"/>
        <pt x="437" y="402" on="0"/>
        <pt x="439" y="439" on="1"/>
        <pt x="442" y="494" on="0"/>
        <pt x="442" y="532" on="1"/>
        <pt x="442" y="721" on="1"/>
        <pt x="442" y="1220" on="0"/>
        <pt x="200" y="1220" on="1"/>
        <pt x="119" y="1220" on="0"/>
        <pt x="41" y="1170" on="1"/>
        <pt x="41" y="1273" on="1"/>
        <pt x="112" y="1310" on="0"/>
      </contour>
      <contour>
        <pt x="193" y="745" on="1"/>
        <pt x="257" y="745" on="0"/>
        <pt x="257" y="595" on="0"/>
        <pt x="193" y="595" on="1"/>
        <pt x="132" y="595" on="0"/>
        <pt x="132" y="745" on="0"/>
      </contour>
    </TTGlyph>
    <TTGlyph name="l" xMin="145" yMin="0" xMax="240" yMax="1556">
      <contour>
        <pt x="240" y="0" on="1"/>
        <pt x="145" y="0" on="1"/>
        <pt x="145" y="1556" on="1"/>
        <pt x="240" y="1556" on="1"/>
      </contour>
    </TTGlyph>
    <TTGlyph name="lameddageshhb" xMin="45" yMin="0" xMax="574" yMax="1569">
      <contour>
        <pt x="574" y="1296" on="1"/>
        <pt x="574" y="1186" on="1"/>
        <pt x="416" y="507" on="1"/>
        <pt x="325" y="0" on="1"/>
        <pt x="228" y="0" on="1"/>
        <pt x="317" y="496" on="1"/>
        <pt x="486" y="1204" on="1"/>
        <pt x="45" y="1204" on="1"/>
        <pt x="45" y="1569" on="1"/>
        <pt x="140" y="1569" on="1"/>
        <pt x="140" y="1296" on="1"/>
      </contour>
      <contour>
        <pt x="147" y="745" on="1"/>
        <pt x="211" y="745" on="0"/>
        <pt x="211" y="595" on="0"/>
        <pt x="147" y="595" on="1"/>
        <pt x="86" y="595" on="0"/>
        <pt x="86" y="745" on="0"/>
      </contour>
    </TTGlyph>
    <TTGlyph name="less" xMin="59" yMin="287" xMax="762" yMax="1157">
      <contour>
        <pt x="762" y="1057" on="1"/>
        <pt x="162" y="723" on="1"/>
        <pt x="762" y="389" on="1"/>
        <pt x="762" y="287" on="1"/>
        <pt x="59" y="690" on="1"/>
        <pt x="59" y="758" on="1"/>
        <pt x="762" y="1157" on="1"/>
      </contour>
    </TTGlyph>
    <TTGlyph name="logicalnot" xMin="59" yMin="250" xMax="739" yMax="764">
      <contour>
        <pt x="739" y="250" on="1"/>
        <pt x="657" y="250" on="1"/>
        <pt x="657" y="682" on="1"/>
        <pt x="59" y="682" on="1"/>
        <pt x="59" y="764" on="1"/>
        <pt x="739" y="764" on="1"/>
      </contour>
    </TTGlyph>
    <TTGlyph name="m" xMin="145" yMin="0" xMax="1161" yMax="1106">
      <contour>
        <pt x="463" y="1106" on="1"/>
        <pt x="633" y="1106" on="0"/>
        <pt x="680" y="918" on="1"/>
        <pt x="719" y="1018" on="0"/>
        <pt x="833" y="1106" on="0"/>
        <pt x="924" y="1106" on="1"/>
        <pt x="1047" y="1106" on="0"/>
        <pt x="1161" y="916" on="0"/>
        <pt x="1161" y="709" on="1"/>
        <pt x="1161" y="0" on="1"/>
        <pt x="1067" y="0" on="1"/>
        <pt x="1067" y="739" on="1"/>
        <pt x="1067" y="1012" on="0"/>
        <pt x="907" y="1012" on="1"/>
        <pt x="799" y="1012" on="0"/>
        <pt x="700" y="825" on="0"/>
        <pt x="700" y="635" on="1"/>
        <pt x="700" y="0" on="1"/>
        <pt x="606" y="0" on="1"/>
        <pt x="606" y="739" on="1"/>
        <pt x="606" y="877" on="0"/>
        <pt x="528" y="1012" on="0"/>
        <pt x="446" y="1012" on="1"/>
        <pt x="339" y="1012" on="0"/>
        <pt x="240" y="817" on="0"/>
        <pt x="240" y="596" on="1"/>
        <pt x="240" y="0" on="1"/>
        <pt x="145" y="0" on="1"/>
        <pt x="145" y="1085" on="1"/>
        <pt x="225" y="1085" on="1"/>
        <pt x="233" y="934" on="1"/>
        <pt x="242" y="934" on="1"/>
        <pt x="306" y="1106" on="0"/>
      </contour>
    </TTGlyph>
    <TTGlyph name="memdageshhb" xMin="59" yMin="0" xMax="718" yMax="1310">
      <contour>
        <pt x="349" y="1276" on="0"/>
        <pt x="436" y="1310" on="0"/>
        <pt x="544" y="1310" on="0"/>
        <pt x="628" y="1269" on="0"/>
        <pt x="679" y="1199" on="0"/>
        <pt x="694" y="1142" on="1"/>
        <pt x="718" y="1047" on="0"/>
        <pt x="718" y="883" on="1"/>
        <pt x="718" y="0" on="1"/>
        <pt x="401" y="0" on="1"/>
        <pt x="401" y="84" on="1"/>
        <pt x="623" y="84" on="1"/>
        <pt x="623" y="883" on="1"/>
        <pt x="623" y="1075" on="0"/>
        <pt x="604" y="1128" on="1"/>
        <pt x="580" y="1196" on="0"/>
        <pt x="542" y="1214" on="1"/>
        <pt x="518" y="1224" on="0"/>
        <pt x="435" y="1224" on="0"/>
        <pt x="350" y="1179" on="0"/>
        <pt x="324" y="1146" on="1"/>
        <pt x="271" y="1078" on="0"/>
        <pt x="255" y="1028" on="1"/>
        <pt x="248" y="1005" on="1"/>
        <pt x="155" y="0" on="1"/>
        <pt x="59" y="0" on="1"/>
        <pt x="152" y="1005" on="1"/>
        <pt x="154" y="1028" on="0"/>
        <pt x="154" y="1059" on="1"/>
        <pt x="154" y="1126" on="0"/>
        <pt x="110" y="1245" on="1"/>
        <pt x="93" y="1290" on="1"/>
        <pt x="194" y="1290" on="1"/>
        <pt x="222" y="1225" on="0"/>
        <pt x="237" y="1155" on="1"/>
        <pt x="243" y="1155" on="1"/>
        <pt x="274" y="1217" on="0"/>
        <pt x="324" y="1256" on="1"/>
      </contour>
      <contour>
        <pt x="430" y="745" on="1"/>
        <pt x="494" y="745" on="0"/>
        <pt x="494" y="595" on="0"/>
        <pt x="430" y="595" on="1"/>
        <pt x="369" y="595" on="0"/>
        <pt x="369" y="745" on="0"/>
      </contour>
    </TTGlyph>
    <TTGlyph name="multiply" xMin="59" yMin="373" xMax="760" yMax="1073">
      <contour>
        <pt x="760" y="1016" on="1"/>
        <pt x="467" y="723" on="1"/>
        <pt x="754" y="434" on="1"/>
        <pt x="696" y="377" on="1"/>
        <pt x="408" y="666" on="1"/>
        <pt x="117" y="373" on="1"/>
        <pt x="59" y="432" on="1"/>
        <pt x="350" y="723" on="1"/>
        <pt x="61" y="1012" on="1"/>
        <pt x="119" y="1069" on="1"/>
        <pt x="408" y="780" on="1"/>
        <pt x="700" y="1073" on="1"/>
      </contour>
    </TTGlyph>
    <TTGlyph name="n" xMin="145" yMin="0" xMax="729" yMax="1106">
      <contour>
        <pt x="477" y="1106" on="1"/>
        <pt x="605" y="1106" on="0"/>
        <pt x="729" y="935" on="0"/>
        <pt x="729" y="750" on="1"/>
        <pt x="729" y="0" on="1"/>
        <pt x="635" y="0" on="1"/>
        <pt x="635" y="748" on="1"/>
        <pt x="635" y="1018" on="0"/>
        <pt x="475" y="1018" on="1"/>
        <pt x="353" y="1018" on="0"/>
        <pt x="240" y="816" on="0"/>
        <pt x="240" y="596" on="1"/>
        <pt x="240" y="0" on="1"/>
        <pt x="145" y="0" on="1"/>
        <pt x="145" y="1085" on="1"/>
        <pt x="225" y="1085" on="1"/>
        <pt x="233" y="934" on="1"/>
        <pt x="242" y="934" on="1"/>
        <pt x="275" y="1014" on="0"/>
        <pt x="403" y="1106" on="0"/>
      </contour>
    </TTGlyph>
    <TTGlyph name="nine" xMin="82" yMin="-20" xMax="711" yMax="1483">
      <contour>
        <pt x="375" y="559" on="1"/>
        <pt x="238" y="559" on="0"/>
        <pt x="82" y="805" on="0"/>
        <pt x="82" y="1232" on="0"/>
        <pt x="251" y="1483" on="0"/>
        <pt x="553" y="1483" on="0"/>
        <pt x="711" y="1162" on="0"/>
        <pt x="711" y="858" on="1"/>
        <pt x="711" y="422" on="0"/>
        <pt x="493" y="-20" on="0"/>
        <pt x="281" y="-20" on="1"/>
        <pt x="241" y="-20" on="0"/>
        <pt x="162" y="-6" on="0"/>
        <pt x="145" y="2" on="1"/>
        <pt x="145" y="98" on="1"/>
        <pt x="200" y="74" on="0"/>
        <pt x="289" y="74" on="1"/>
        <pt x="434" y="74" on="0"/>
        <pt x="601" y="409" on="0"/>
        <pt x="612" y="721" on="1"/>
        <pt x="604" y="721" on="1"/>
        <pt x="570" y="644" on="0"/>
        <pt x="451" y="559" on="0"/>
      </contour>
      <contour>
        <pt x="395" y="1389" on="1"/>
        <pt x="295" y="1389" on="0"/>
        <pt x="182" y="1200" on="0"/>
        <pt x="182" y="839" on="0"/>
        <pt x="287" y="651" on="0"/>
        <pt x="489" y="651" on="0"/>
        <pt x="610" y="820" on="0"/>
        <pt x="610" y="1087" on="0"/>
        <pt x="557" y="1286" on="0"/>
        <pt x="461" y="1389" on="0"/>
      </contour>
    </TTGlyph>
    <TTGlyph name="ntilde" xMin="145" yMin="0" xMax="729" yMax="1454">
      <contour>
        <pt x="566" y="1243" on="1"/>
        <pt x="534" y="1243" on="0"/>
        <pt x="460" y="1283" on="0"/>
        <pt x="432" y="1306" on="1"/>
        <pt x="356" y="1370" on="0"/>
        <pt x="292" y="1370" on="0"/>
        <pt x="248" y="1300" on="0"/>
        <pt x="239" y="1241" on="1"/>
        <pt x="165" y="1241" on="1"/>
        <pt x="177" y="1341" on="0"/>
        <pt x="261" y="1452" on="0"/>
        <pt x="331" y="1452" on="1"/>
        <pt x="363" y="1452" on="0"/>
        <pt x="436" y="1412" on="0"/>
        <pt x="463" y="1388" on="1"/>
        <pt x="536" y="1325" on="0"/>
        <pt x="573" y="1325" on="1"/>
        <pt x="632" y="1325" on="0"/>
        <pt x="652" y="1454" on="1"/>
        <pt x="726" y="1454" on="1"/>
        <pt x="717" y="1353" on="0"/>
        <pt x="633" y="1243" on="0"/>
      </contour>
      <contour>
        <pt x="477" y="1106" on="1"/>
        <pt x="605" y="1106" on="0"/>
        <pt x="729" y="935" on="0"/>
        <pt x="729" y="750" on="1"/>
        <pt x="729" y="0" on="1"/>
        <pt x="635" y="0" on="1"/>
        <pt x="635" y="748" on="1"/>
        <pt x="635" y="1018" on="0"/>
        <pt x="475" y="1018" on="1"/>
        <pt x="353" y="1018" on="0"/>
        <pt x="240" y="816" on="0"/>
        <pt x="240" y="596" on="1"/>
        <pt x="240" y="0" on="1"/>
        <pt x="145" y="0" on="1"/>
        <pt x="145" y="1085" on="1"/>
        <pt x="225" y="1085" on="1"/>
        <pt x="233" y="934" on="1"/>
        <pt x="242" y="934" on="1"/>
        <pt x="275" y="1014" on="0"/>
        <pt x="403" y="1106" on="0"/>
      </contour>
    </TTGlyph>
    <TTGlyph name="numbersign" xMin="37" yMin="0" xMax="829" yMax="1462">
      <contour>
        <pt x="829" y="1042" on="1"/>
        <pt x="829" y="956" on="1"/>
        <pt x="653" y="956" on="1"/>
        <pt x="608" y="557" on="1"/>
        <pt x="782" y="557" on="1"/>
        <pt x="782" y="467" on="1"/>
        <pt x="598" y="467" on="1"/>
        <pt x="545" y="0" on="1"/>
        <pt x="463" y="0" on="1"/>
        <pt x="518" y="467" on="1"/>
        <pt x="285" y="467" on="1"/>
        <pt x="231" y="0" on="1"/>
        <pt x="154" y="0" on="1"/>
        <pt x="205" y="467" on="1"/>
        <pt x="37" y="467" on="1"/>
        <pt x="37" y="557" on="1"/>
        <pt x="215" y="557" on="1"/>
        <pt x="260" y="956" on="1"/>
        <pt x="82" y="956" on="1"/>
        <pt x="82" y="1042" on="1"/>
        <pt x="270" y="1042" on="1"/>
        <pt x="317" y="1462" on="1"/>
        <pt x="399" y="1462" on="1"/>
        <pt x="350" y="1042" on="1"/>
        <pt x="586" y="1042" on="1"/>
        <pt x="635" y="1462" on="1"/>
        <pt x="711" y="1462" on="1"/>
        <pt x="664" y="1042" on="1"/>
      </contour>
      <contour>
        <pt x="340" y="956" on="1"/>
        <pt x="295" y="557" on="1"/>
        <pt x="528" y="557" on="1"/>
        <pt x="575" y="956" on="1"/>
      </contour>
    </TTGlyph>
    <TTGlyph name="nundageshhb" xMin="39" yMin="0" xMax="429" yMax="1310">
      <contour>
        <pt x="192" y="1310" on="1"/>
        <pt x="429" y="1310" on="0"/>
        <pt x="429" y="1019" on="1"/>
        <pt x="429" y="329" on="1"/>
        <pt x="429" y="261" on="0"/>
        <pt x="410" y="97" on="0"/>
        <pt x="400" y="48" on="1"/>
        <pt x="390" y="0" on="1"/>
        <pt x="39" y="0" on="1"/>
        <pt x="39" y="84" on="1"/>
        <pt x="307" y="84" on="1"/>
        <pt x="334" y="211" on="0"/>
        <pt x="334" y="329" on="1"/>
        <pt x="334" y="1019" on="1"/>
        <pt x="334" y="1110" on="0"/>
        <pt x="308" y="1162" on="1"/>
        <pt x="278" y="1224" on="0"/>
        <pt x="184" y="1224" on="1"/>
        <pt x="149" y="1224" on="0"/>
        <pt x="87" y="1207" on="1"/>
        <pt x="87" y="1295" on="1"/>
        <pt x="142" y="1310" on="0"/>
      </contour>
      <contour>
        <pt x="167" y="745" on="1"/>
        <pt x="231" y="745" on="0"/>
        <pt x="231" y="595" on="0"/>
        <pt x="167" y="595" on="1"/>
        <pt x="106" y="595" on="0"/>
        <pt x="106" y="745" on="0"/>
      </contour>
    </TTGlyph>
    <TTGlyph name="o" xMin="94" yMin="-20" xMax="756" yMax="1106">
      <contour>
        <pt x="426" y="1106" on="1"/>
        <pt x="582" y="1106" on="0"/>
        <pt x="756" y="812" on="0"/>
        <pt x="756" y="271" on="0"/>
        <pt x="583" y="-20" on="0"/>
        <pt x="263" y="-20" on="0"/>
        <pt x="94" y="271" on="0"/>
        <pt x="94" y="545" on="1"/>
        <pt x="94" y="1106" on="0"/>
      </contour>
      <contour>
        <pt x="424" y="1016" on="1"/>
        <pt x="304" y="1016" on="0"/>
        <pt x="193" y="783" on="0"/>
        <pt x="193" y="545" on="1"/>
        <pt x="193" y="70" on="0"/>
        <pt x="424" y="70" on="1"/>
        <pt x="657" y="70" on="0"/>
        <pt x="657" y="1016" on="0"/>
      </contour>
    </TTGlyph>
    <TTGlyph name="oacute" xMin="94" yMin="-20" xMax="756" yMax="1569">
      <contour>
        <pt x="657" y="1569" on="1"/>
        <pt x="657" y="1552" on="1"/>
        <pt x="620" y="1486" on="0"/>
        <pt x="458" y="1300" on="0"/>
        <pt x="388" y="1241" on="1"/>
        <pt x="341" y="1241" on="1"/>
        <pt x="341" y="1262" on="1"/>
        <pt x="467" y="1426" on="0"/>
        <pt x="532" y="1569" on="1"/>
      </contour>
      <contour>
        <pt x="426" y="1106" on="1"/>
        <pt x="582" y="1106" on="0"/>
        <pt x="756" y="812" on="0"/>
        <pt x="756" y="271" on="0"/>
        <pt x="583" y="-20" on="0"/>
        <pt x="263" y="-20" on="0"/>
        <pt x="94" y="271" on="0"/>
        <pt x="94" y="545" on="1"/>
        <pt x="94" y="1106" on="0"/>
      </contour>
      <contour>
        <pt x="424" y="1016" on="1"/>
        <pt x="304" y="1016" on="0"/>
        <pt x="193" y="783" on="0"/>
        <pt x="193" y="545" on="1"/>
        <pt x="193" y="70" on="0"/>
        <pt x="424" y="70" on="1"/>
        <pt x="657" y="70" on="0"/>
        <pt x="657" y="1016" on="0"/>
      </contour>
    </TTGlyph>
    <TTGlyph name="ocircumflex" xMin="94" yMin="-20" xMax="756" yMax="1569">
      <contour>
        <pt x="662" y="1241" on="1"/>
        <pt x="615" y="1241" on="1"/>
        <pt x="573" y="1283" on="0"/>
        <pt x="524" y="1342" on="1"/>
        <pt x="427" y="1454" on="1"/>
        <pt x="408" y="1433" on="0"/>
        <pt x="364" y="1382" on="1"/>
        <pt x="283" y="1288" on="0"/>
        <pt x="234" y="1241" on="1"/>
        <pt x="191" y="1241" on="1"/>
        <pt x="191" y="1260" on="1"/>
        <pt x="312" y="1428" on="0"/>
        <pt x="377" y="1569" on="1"/>
        <pt x="472" y="1569" on="1"/>
        <pt x="495" y="1515" on="0"/>
        <pt x="550" y="1424" on="1"/>
        <pt x="610" y="1329" on="0"/>
        <pt x="662" y="1260" on="1"/>
      </contour>
      <contour>
        <pt x="426" y="1106" on="1"/>
        <pt x="582" y="1106" on="0"/>
        <pt x="756" y="812" on="0"/>
        <pt x="756" y="271" on="0"/>
        <pt x="583" y="-20" on="0"/>
        <pt x="263" y="-20" on="0"/>
        <pt x="94" y="271" on="0"/>
        <pt x="94" y="545" on="1"/>
        <pt x="94" y="1106" on="0"/>
      </contour>
      <contour>
        <pt x="424" y="1016" on="1"/>
        <pt x="304" y="1016" on="0"/>
        <pt x="193" y="783" on="0"/>
        <pt x="193" y="545" on="1"/>
        <pt x="193" y="70" on="0"/>
        <pt x="424" y="70" on="1"/>
        <pt x="657" y="70" on="0"/>
        <pt x="657" y="1016" on="0"/>
      </contour>
    </TTGlyph>
    <TTGlyph name="odieresis" xMin="94" yMin="-20" xMax="756" yMax="1470">
      <contour>
        <pt x="210" y="1429" on="0"/>
        <pt x="247" y="1470" on="0"/>
        <pt x="300" y="1470" on="0"/>
        <pt x="335" y="1429" on="0"/>
        <pt x="335" y="1347" on="0"/>
        <pt x="300" y="1305" on="0"/>
        <pt x="247" y="1305" on="0"/>
        <pt x="210" y="1347" on="0"/>
      </contour>
      <contour>
        <pt x="515" y="1429" on="0"/>
        <pt x="551" y="1470" on="0"/>
        <pt x="604" y="1470" on="0"/>
        <pt x="640" y="1429" on="0"/>
        <pt x="640" y="1347" on="0"/>
        <pt x="604" y="1305" on="0"/>
        <pt x="551" y="1305" on="0"/>
        <pt x="515" y="1348" on="0"/>
      </contour>
      <contour>
        <pt x="426" y="1106" on="1"/>
        <pt x="582" y="1106" on="0"/>
        <pt x="756" y="812" on="0"/>
        <pt x="756" y="271" on="0"/>
        <pt x="583" y="-20" on="0"/>
        <pt x="263" y="-20" on="0"/>
        <pt x="94" y="271" on="0"/>
        <pt x="94" y="545" on="1"/>
        <pt x="94" y="1106" on="0"/>
      </contour>
      <contour>
        <pt x="424" y="1016" on="1"/>
        <pt x="304" y="1016" on="0"/>
        <pt x="193" y="783" on="0"/>
        <pt x="193" y="545" on="1"/>
        <pt x="193" y="70" on="0"/>
        <pt x="424" y="70" on="1"/>
        <pt x="657" y="70" on="0"/>
        <pt x="657" y="1016" on="0"/>
      </contour>
    </TTGlyph>
    <TTGlyph name="oe" xMin="94" yMin="-20" xMax="1266" yMax="1106">
      <contour>
        <pt x="1012" y="-20" on="1"/>
        <pt x="794" y="-20" on="0"/>
        <pt x="705" y="211" on="1"/>
        <pt x="626" y="-20" on="0"/>
        <pt x="422" y="-20" on="1"/>
        <pt x="263" y="-20" on="0"/>
        <pt x="94" y="271" on="0"/>
        <pt x="94" y="545" on="1"/>
        <pt x="94" y="1106" on="0"/>
        <pt x="426" y="1106" on="1"/>
        <pt x="619" y="1106" on="0"/>
        <pt x="702" y="879" on="1"/>
        <pt x="782" y="1106" on="0"/>
        <pt x="975" y="1106" on="1"/>
        <pt x="1110" y="1106" on="0"/>
        <pt x="1266" y="850" on="0"/>
        <pt x="1266" y="631" on="1"/>
        <pt x="1266" y="543" on="1"/>
        <pt x="752" y="543" on="1"/>
        <pt x="756" y="66" on="0"/>
        <pt x="1016" y="66" on="1"/>
        <pt x="1119" y="66" on="0"/>
        <pt x="1231" y="133" on="1"/>
        <pt x="1231" y="45" on="1"/>
        <pt x="1127" y="-20" on="0"/>
      </contour>
      <contour>
        <pt x="1171" y="629" on="1"/>
        <pt x="1171" y="641" on="1"/>
        <pt x="1171" y="812" on="0"/>
        <pt x="1062" y="1018" on="0"/>
        <pt x="969" y="1018" on="1"/>
        <pt x="774" y="1018" on="0"/>
        <pt x="754" y="629" on="1"/>
      </contour>
      <contour>
        <pt x="655" y="520" on="1"/>
        <pt x="655" y="545" on="1"/>
        <pt x="655" y="1016" on="0"/>
        <pt x="424" y="1016" on="1"/>
        <pt x="304" y="1016" on="0"/>
        <pt x="193" y="783" on="0"/>
        <pt x="193" y="545" on="1"/>
        <pt x="193" y="66" on="0"/>
        <pt x="655" y="66" on="0"/>
      </contour>
    </TTGlyph>
    <TTGlyph name="ogonek" xMin="68" yMin="-446" xMax="311" yMax="0">
      <contour>
        <pt x="158" y="-260" on="1"/>
        <pt x="158" y="-369" on="0"/>
        <pt x="254" y="-369" on="1"/>
        <pt x="293" y="-369" on="0"/>
        <pt x="311" y="-360" on="1"/>
        <pt x="311" y="-434" on="1"/>
        <pt x="281" y="-446" on="0"/>
        <pt x="236" y="-446" on="1"/>
        <pt x="68" y="-446" on="0"/>
        <pt x="68" y="-270" on="1"/>
        <pt x="68" y="-195" on="0"/>
        <pt x="155" y="-46" on="0"/>
        <pt x="215" y="0" on="1"/>
        <pt x="289" y="0" on="1"/>
        <pt x="219" y="-70" on="0"/>
        <pt x="158" y="-193" on="0"/>
      </contour>
    </TTGlyph>
    <TTGlyph name="ograve" xMin="94" yMin="-20" xMax="756" yMax="1569">
      <contour>
        <pt x="206" y="1569" on="1"/>
        <pt x="331" y="1569" on="1"/>
        <pt x="360" y="1502" on="0"/>
        <pt x="466" y="1332" on="0"/>
        <pt x="522" y="1262" on="1"/>
        <pt x="522" y="1241" on="1"/>
        <pt x="474" y="1241" on="1"/>
        <pt x="411" y="1292" on="0"/>
        <pt x="243" y="1483" on="0"/>
        <pt x="206" y="1552" on="1"/>
      </contour>
      <contour>
        <pt x="426" y="1106" on="1"/>
        <pt x="582" y="1106" on="0"/>
        <pt x="756" y="812" on="0"/>
        <pt x="756" y="271" on="0"/>
        <pt x="583" y="-20" on="0"/>
        <pt x="263" y="-20" on="0"/>
        <pt x="94" y="271" on="0"/>
        <pt x="94" y="545" on="1"/>
        <pt x="94" y="1106" on="0"/>
      </contour>
      <contour>
        <pt x="424" y="1016" on="1"/>
        <pt x="304" y="1016" on="0"/>
        <pt x="193" y="783" on="0"/>
        <pt x="193" y="545" on="1"/>
        <pt x="193" y="70" on="0"/>
        <pt x="424" y="70" on="1"/>
        <pt x="657" y="70" on="0"/>
        <pt x="657" y="1016" on="0"/>
      </contour>
    </TTGlyph>
    <TTGlyph name="one" xMin="150" yMin="0" xMax="512" yMax="1462">
      <contour>
        <pt x="512" y="0" on="1"/>
        <pt x="416" y="0" on="1"/>
        <pt x="416" y="1075" on="1"/>
        <pt x="416" y="1196" on="0"/>
        <pt x="424" y="1358" on="1"/>
        <pt x="404" y="1331" on="0"/>
        <pt x="326" y="1253" on="1"/>
        <pt x="201" y="1139" on="1"/>
        <pt x="150" y="1202" on="1"/>
        <pt x="432" y="1462" on="1"/>
        <pt x="512" y="1462" on="1"/>
      </contour>
    </TTGlyph>
    <TTGlyph name="onehalf" xMin="52" yMin="0" xMax="1335" yMax="1462">
      <contour>
        <pt x="367" y="586" on="1"/>
        <pt x="281" y="586" on="1"/>
        <pt x="281" y="1200" on="1"/>
        <pt x="281" y="1286" on="0"/>
        <pt x="287" y="1370" on="1"/>
        <pt x="255" y="1339" on="0"/>
        <pt x="201" y="1296" on="0"/>
        <pt x="101" y="1225" on="1"/>
        <pt x="52" y="1290" on="1"/>
        <pt x="289" y="1462" on="1"/>
        <pt x="367" y="1462" on="1"/>
      </contour>
      <contour>
        <pt x="344" y="0" on="1"/>
        <pt x="252" y="0" on="1"/>
        <pt x="1020" y="1462" on="1"/>
        <pt x="1112" y="1462" on="1"/>
      </contour>
      <contour>
        <pt x="1087" y="898" on="1"/>
        <pt x="1197" y="898" on="0"/>
        <pt x="1321" y="774" on="0"/>
        <pt x="1321" y="666" on="1"/>
        <pt x="1321" y="580" on="0"/>
        <pt x="1246" y="425" on="0"/>
        <pt x="1110" y="259" on="1"/>
        <pt x="965" y="83" on="1"/>
        <pt x="1335" y="83" on="1"/>
        <pt x="1335" y="1" on="1"/>
        <pt x="864" y="1" on="1"/>
        <pt x="864" y="79" on="1"/>
        <pt x="1042" y="302" on="1"/>
        <pt x="1112" y="388" on="0"/>
        <pt x="1196" y="514" on="0"/>
        <pt x="1227" y="601" on="0"/>
        <pt x="1227" y="733" on="0"/>
        <pt x="1151" y="812" on="0"/>
        <pt x="1085" y="812" on="1"/>
        <pt x="997" y="812" on="0"/>
        <pt x="921" y="730" on="1"/>
        <pt x="866" y="791" on="1"/>
        <pt x="961" y="898" on="0"/>
      </contour>
    </TTGlyph>
    <TTGlyph name="onequarter" xMin="52" yMin="0" xMax="1304" yMax="1462">
      <contour>
        <pt x="367" y="586" on="1"/>
        <pt x="281" y="586" on="1"/>
        <pt x="281" y="1200" on="1"/>
        <pt x="281" y="1286" on="0"/>
        <pt x="287" y="1370" on="1"/>
        <pt x="255" y="1339" on="0"/>
        <pt x="201" y="1296" on="0"/>
        <pt x="101" y="1225" on="1"/>
        <pt x="52" y="1290" on="1"/>
        <pt x="289" y="1462" on="1"/>
        <pt x="367" y="1462" on="1"/>
      </contour>
      <contour>
        <pt x="368" y="0" on="1"/>
        <pt x="276" y="0" on="1"/>
        <pt x="1044" y="1462" on="1"/>
        <pt x="1136" y="1462" on="1"/>
      </contour>
      <contour>
        <pt x="1204" y="292" on="1"/>
        <pt x="1304" y="292" on="1"/>
        <pt x="1304" y="210" on="1"/>
        <pt x="1204" y="210" on="1"/>
        <pt x="1204" y="1" on="1"/>
        <pt x="1118" y="1" on="1"/>
        <pt x="1118" y="210" on="1"/>
        <pt x="784" y="210" on="1"/>
        <pt x="784" y="275" on="1"/>
        <pt x="1124" y="883" on="1"/>
        <pt x="1204" y="883" on="1"/>
      </contour>
      <contour>
        <pt x="1118" y="292" on="1"/>
        <pt x="1118" y="574" on="1"/>
        <pt x="1118" y="701" on="0"/>
        <pt x="1122" y="744" on="1"/>
        <pt x="1118" y="732" on="0"/>
        <pt x="1042" y="578" on="0"/>
        <pt x="885" y="292" on="1"/>
      </contour>
    </TTGlyph>
    <TTGlyph name="onesuperior" xMin="82" yMin="586" xMax="397" yMax="1462">
      <contour>
        <pt x="397" y="586" on="1"/>
        <pt x="311" y="586" on="1"/>
        <pt x="311" y="1200" on="1"/>
        <pt x="311" y="1286" on="0"/>
        <pt x="317" y="1370" on="1"/>
        <pt x="285" y="1339" on="0"/>
        <pt x="231" y="1296" on="0"/>
        <pt x="131" y="1225" on="1"/>
        <pt x="82" y="1290" on="1"/>
        <pt x="319" y="1462" on="1"/>
        <pt x="397" y="1462" on="1"/>
      </contour>
    </TTGlyph>
    <TTGlyph name="ordfeminine" xMin="57" yMin="805" xMax="463" yMax="1479">
      <contour>
        <pt x="115" y="1434" on="1"/>
        <pt x="196" y="1479" on="0"/>
        <pt x="380" y="1479" on="0"/>
        <pt x="463" y="1380" on="0"/>
        <pt x="463" y="1272" on="1"/>
        <pt x="463" y="817" on="1"/>
        <pt x="406" y="817" on="1"/>
        <pt x="391" y="901" on="1"/>
        <pt x="383" y="901" on="1"/>
        <pt x="314" y="805" on="0"/>
        <pt x="211" y="805" on="1"/>
        <pt x="143" y="805" on="0"/>
        <pt x="57" y="905" on="0"/>
        <pt x="57" y="1081" on="0"/>
        <pt x="168" y="1179" on="0"/>
        <pt x="289" y="1190" on="1"/>
        <pt x="381" y="1198" on="1"/>
        <pt x="381" y="1270" on="1"/>
        <pt x="381" y="1345" on="0"/>
        <pt x="333" y="1409" on="0"/>
        <pt x="214" y="1409" on="0"/>
        <pt x="143" y="1370" on="1"/>
      </contour>
      <contour>
        <pt x="143" y="987" on="1"/>
        <pt x="143" y="874" on="0"/>
        <pt x="238" y="874" on="1"/>
        <pt x="306" y="874" on="0"/>
        <pt x="381" y="977" on="0"/>
        <pt x="381" y="1069" on="1"/>
        <pt x="381" y="1135" on="1"/>
        <pt x="319" y="1128" on="1"/>
        <pt x="223" y="1119" on="0"/>
        <pt x="143" y="1056" on="0"/>
      </contour>
    </TTGlyph>
    <TTGlyph name="ordmasculine" xMin="70" yMin="805" xMax="549" yMax="1479">
      <contour>
        <pt x="70" y="1303" on="0"/>
        <pt x="197" y="1479" on="0"/>
        <pt x="426" y="1479" on="0"/>
        <pt x="549" y="1311" on="0"/>
        <pt x="549" y="978" on="0"/>
        <pt x="427" y="805" on="0"/>
        <pt x="192" y="805" on="0"/>
        <pt x="70" y="977" on="0"/>
      </contour>
      <contour>
        <pt x="309" y="1405" on="1"/>
        <pt x="160" y="1405" on="0"/>
        <pt x="160" y="1143" on="1"/>
        <pt x="160" y="1005" on="0"/>
        <pt x="231" y="879" on="0"/>
        <pt x="390" y="879" on="0"/>
        <pt x="459" y="1003" on="0"/>
        <pt x="459" y="1281" on="0"/>
        <pt x="388" y="1405" on="0"/>
      </contour>
    </TTGlyph>
    <TTGlyph name="oslash" xMin="68" yMin="-143" xMax="782" yMax="1190">
      <contour>
        <pt x="680" y="940" on="1"/>
        <pt x="756" y="792" on="0"/>
        <pt x="756" y="271" on="0"/>
        <pt x="583" y="-20" on="0"/>
        <pt x="422" y="-20" on="1"/>
        <pt x="308" y="-20" on="0"/>
        <pt x="238" y="49" on="1"/>
        <pt x="143" y="-143" on="1"/>
        <pt x="68" y="-102" on="1"/>
        <pt x="180" y="125" on="1"/>
        <pt x="94" y="271" on="0"/>
        <pt x="94" y="545" on="1"/>
        <pt x="94" y="1106" on="0"/>
        <pt x="426" y="1106" on="1"/>
        <pt x="543" y="1106" on="0"/>
        <pt x="623" y="1020" on="1"/>
        <pt x="707" y="1190" on="1"/>
        <pt x="782" y="1149" on="1"/>
      </contour>
      <contour>
        <pt x="424" y="1016" on="1"/>
        <pt x="304" y="1016" on="0"/>
        <pt x="193" y="783" on="0"/>
        <pt x="193" y="345" on="0"/>
        <pt x="231" y="231" on="1"/>
        <pt x="578" y="930" on="1"/>
        <pt x="522" y="1016" on="0"/>
      </contour>
      <contour>
        <pt x="424" y="70" on="1"/>
        <pt x="657" y="70" on="0"/>
        <pt x="657" y="545" on="1"/>
        <pt x="657" y="724" on="0"/>
        <pt x="625" y="829" on="1"/>
        <pt x="283" y="137" on="1"/>
        <pt x="334" y="70" on="0"/>
      </contour>
    </TTGlyph>
    <TTGlyph name="otilde" xMin="94" yMin="-20" xMax="756" yMax="1454">
      <contour>
        <pt x="545" y="1243" on="1"/>
        <pt x="513" y="1243" on="0"/>
        <pt x="439" y="1283" on="0"/>
        <pt x="411" y="1306" on="1"/>
        <pt x="335" y="1370" on="0"/>
        <pt x="271" y="1370" on="0"/>
        <pt x="227" y="1300" on="0"/>
        <pt x="218" y="1241" on="1"/>
        <pt x="144" y="1241" on="1"/>
        <pt x="156" y="1341" on="0"/>
        <pt x="240" y="1452" on="0"/>
        <pt x="310" y="1452" on="1"/>
        <pt x="342" y="1452" on="0"/>
        <pt x="415" y="1412" on="0"/>
        <pt x="442" y="1388" on="1"/>
        <pt x="515" y="1325" on="0"/>
        <pt x="552" y="1325" on="1"/>
        <pt x="611" y="1325" on="0"/>
        <pt x="631" y="1454" on="1"/>
        <pt x="705" y="1454" on="1"/>
        <pt x="696" y="1353" on="0"/>
        <pt x="612" y="1243" on="0"/>
      </contour>
      <contour>
        <pt x="426" y="1106" on="1"/>
        <pt x="582" y="1106" on="0"/>
        <pt x="756" y="812" on="0"/>
        <pt x="756" y="271" on="0"/>
        <pt x="583" y="-20" on="0"/>
        <pt x="263" y="-20" on="0"/>
        <pt x="94" y="271" on="0"/>
        <pt x="94" y="545" on="1"/>
        <pt x="94" y="1106" on="0"/>
      </contour>
      <contour>
        <pt x="424" y="1016" on="1"/>
        <pt x="304" y="1016" on="0"/>
        <pt x="193" y="783" on="0"/>
        <pt x="193" y="545" on="1"/>
        <pt x="193" y="70" on="0"/>
        <pt x="424" y="70" on="1"/>
        <pt x="657" y="70" on="0"/>
        <pt x="657" y="1016" on="0"/>
      </contour>
    </TTGlyph>
    <TTGlyph name="overscore" xMin="-8" yMin="1556" xMax="850" yMax="1638">
      <contour>
        <pt x="850" y="1556" on="1"/>
        <pt x="-8" y="1556" on="1"/>
        <pt x="-8" y="1638" on="1"/>
        <pt x="850" y="1638" on="1"/>
      </contour>
    </TTGlyph>
    <TTGlyph name="p" xMin="145" yMin="-492" xMax="799" yMax="1106">
      <contour>
        <pt x="481" y="1106" on="1"/>
        <pt x="799" y="1106" on="0"/>
        <pt x="799" y="545" on="1"/>
        <pt x="799" y="273" on="0"/>
        <pt x="642" y="-20" on="0"/>
        <pt x="494" y="-20" on="1"/>
        <pt x="412" y="-20" on="0"/>
        <pt x="277" y="71" on="0"/>
        <pt x="242" y="150" on="1"/>
        <pt x="233" y="150" on="1"/>
        <pt x="240" y="31" on="1"/>
        <pt x="240" y="-492" on="1"/>
        <pt x="145" y="-492" on="1"/>
        <pt x="145" y="1085" on="1"/>
        <pt x="223" y="1085" on="1"/>
        <pt x="233" y="936" on="1"/>
        <pt x="242" y="936" on="1"/>
        <pt x="282" y="1018" on="0"/>
        <pt x="407" y="1106" on="0"/>
      </contour>
      <contour>
        <pt x="240" y="582" on="1"/>
        <pt x="240" y="551" on="1"/>
        <pt x="240" y="302" on="0"/>
        <pt x="358" y="66" on="0"/>
        <pt x="591" y="66" on="0"/>
        <pt x="700" y="300" on="0"/>
        <pt x="700" y="786" on="0"/>
        <pt x="595" y="1016" on="0"/>
        <pt x="355" y="1016" on="0"/>
        <pt x="240" y="805" on="0"/>
      </contour>
    </TTGlyph>
    <TTGlyph name="paragraph" xMin="150" yMin="-260" xMax="768" yMax="1556">
      <contour>
        <pt x="768" y="-260" on="1"/>
        <pt x="674" y="-260" on="1"/>
        <pt x="674" y="1460" on="1"/>
        <pt x="528" y="1460" on="1"/>
        <pt x="528" y="-260" on="1"/>
        <pt x="434" y="-260" on="1"/>
        <pt x="434" y="559" on="1"/>
        <pt x="404" y="541" on="0"/>
        <pt x="365" y="541" on="1"/>
        <pt x="254" y="541" on="0"/>
        <pt x="150" y="786" on="0"/>
        <pt x="150" y="1300" on="0"/>
        <pt x="278" y="1556" on="0"/>
        <pt x="414" y="1556" on="1"/>
        <pt x="768" y="1556" on="1"/>
      </contour>
    </TTGlyph>
    <TTGlyph name="parenleft" xMin="104" yMin="-324" xMax="481" yMax="1462">
      <contour>
        <pt x="481" y="1462" on="1"/>
        <pt x="346" y="1262" on="0"/>
        <pt x="209" y="801" on="0"/>
        <pt x="209" y="320" on="0"/>
        <pt x="354" y="-152" on="0"/>
        <pt x="479" y="-324" on="1"/>
        <pt x="401" y="-324" on="1"/>
        <pt x="257" y="-156" on="0"/>
        <pt x="104" y="304" on="0"/>
        <pt x="104" y="819" on="0"/>
        <pt x="260" y="1291" on="0"/>
        <pt x="401" y="1462" on="1"/>
      </contour>
    </TTGlyph>
    <TTGlyph name="parenright" xMin="84" yMin="-324" xMax="461" yMax="1462">
      <contour>
        <pt x="164" y="1462" on="1"/>
        <pt x="308" y="1291" on="0"/>
        <pt x="461" y="816" on="0"/>
        <pt x="461" y="305" on="0"/>
        <pt x="307" y="-158" on="0"/>
        <pt x="164" y="-324" on="1"/>
        <pt x="86" y="-324" on="1"/>
        <pt x="214" y="-143" on="0"/>
        <pt x="356" y="327" on="0"/>
        <pt x="356" y="804" on="0"/>
        <pt x="217" y="1264" on="0"/>
        <pt x="84" y="1462" on="1"/>
      </contour>
    </TTGlyph>
    <TTGlyph name="pedageshhb" xMin="94" yMin="-20" xMax="772" yMax="1310">
      <contour>
        <pt x="392" y="441" on="1"/>
        <pt x="240" y="441" on="0"/>
        <pt x="94" y="663" on="0"/>
        <pt x="94" y="1059" on="0"/>
        <pt x="274" y="1310" on="0"/>
        <pt x="424" y="1310" on="1"/>
        <pt x="772" y="1310" on="0"/>
        <pt x="772" y="645" on="1"/>
        <pt x="772" y="311" on="0"/>
        <pt x="580" y="-20" on="0"/>
        <pt x="407" y="-20" on="1"/>
        <pt x="302" y="-20" on="0"/>
        <pt x="215" y="-5" on="1"/>
        <pt x="186" y="0" on="1"/>
        <pt x="186" y="89" on="1"/>
        <pt x="289" y="70" on="0"/>
        <pt x="407" y="70" on="1"/>
        <pt x="450" y="70" on="0"/>
        <pt x="524" y="101" on="0"/>
        <pt x="594" y="181" on="0"/>
        <pt x="618" y="244" on="1"/>
        <pt x="673" y="386" on="0"/>
        <pt x="673" y="645" on="1"/>
        <pt x="673" y="978" on="0"/>
        <pt x="599" y="1105" on="1"/>
        <pt x="563" y="1167" on="0"/>
        <pt x="479" y="1220" on="0"/>
        <pt x="363" y="1220" on="0"/>
        <pt x="267" y="1150" on="0"/>
        <pt x="239" y="1094" on="1"/>
        <pt x="182" y="982" on="0"/>
        <pt x="182" y="859" on="1"/>
        <pt x="182" y="662" on="0"/>
        <pt x="249" y="580" on="1"/>
        <pt x="301" y="516" on="0"/>
        <pt x="399" y="516" on="1"/>
        <pt x="413" y="516" on="1"/>
        <pt x="397" y="441" on="1"/>
      </contour>
      <contour>
        <pt x="433" y="922" on="1"/>
        <pt x="497" y="922" on="0"/>
        <pt x="497" y="772" on="0"/>
        <pt x="433" y="772" on="1"/>
        <pt x="372" y="772" on="0"/>
        <pt x="372" y="922" on="0"/>
      </contour>
    </TTGlyph>
    <TTGlyph name="percent" xMin="94" yMin="-20" xMax="1114" yMax="1483">
      <contour>
        <pt x="94" y="1249" on="0"/>
        <pt x="196" y="1483" on="0"/>
        <pt x="395" y="1483" on="0"/>
        <pt x="500" y="1250" on="0"/>
        <pt x="500" y="807" on="0"/>
        <pt x="392" y="565" on="0"/>
        <pt x="197" y="565" on="0"/>
        <pt x="94" y="803" on="0"/>
      </contour>
      <contour>
        <pt x="410" y="0" on="1"/>
        <pt x="322" y="0" on="1"/>
        <pt x="797" y="1462" on="1"/>
        <pt x="885" y="1462" on="1"/>
      </contour>
      <contour>
        <pt x="293" y="1405" on="1"/>
        <pt x="235" y="1405" on="0"/>
        <pt x="184" y="1222" on="0"/>
        <pt x="184" y="833" on="0"/>
        <pt x="236" y="649" on="0"/>
        <pt x="297" y="649" on="1"/>
        <pt x="356" y="649" on="0"/>
        <pt x="410" y="834" on="0"/>
        <pt x="410" y="1028" on="1"/>
        <pt x="410" y="1405" on="0"/>
      </contour>
      <contour>
        <pt x="709" y="667" on="0"/>
        <pt x="811" y="897" on="0"/>
        <pt x="1009" y="897" on="0"/>
        <pt x="1114" y="664" on="0"/>
        <pt x="1114" y="219" on="0"/>
        <pt x="1006" y="-20" on="0"/>
        <pt x="812" y="-20" on="0"/>
        <pt x="709" y="220" on="0"/>
      </contour>
      <contour>
        <pt x="907" y="819" on="1"/>
        <pt x="849" y="819" on="0"/>
        <pt x="799" y="636" on="0"/>
        <pt x="799" y="247" on="0"/>
        <pt x="850" y="63" on="0"/>
        <pt x="911" y="63" on="1"/>
        <pt x="970" y="63" on="0"/>
        <pt x="1024" y="248" on="0"/>
        <pt x="1024" y="442" on="1"/>
        <pt x="1024" y="819" on="0"/>
      </contour>
    </TTGlyph>
    <TTGlyph name="period" xMin="133" yMin="-16" xMax="289" yMax="197">
      <contour>
        <pt x="133" y="197" on="0"/>
        <pt x="289" y="197" on="0"/>
        <pt x="289" y="90" on="1"/>
        <pt x="289" y="36" on="0"/>
        <pt x="246" y="-16" on="0"/>
        <pt x="211" y="-16" on="1"/>
        <pt x="133" y="-16" on="0"/>
      </contour>
    </TTGlyph>
    <TTGlyph name="periodcentered" xMin="133" yMin="614" xMax="289" yMax="827">
      <contour>
        <pt x="133" y="827" on="0"/>
        <pt x="289" y="827" on="0"/>
        <pt x="289" y="721" on="1"/>
        <pt x="289" y="667" on="0"/>
        <pt x="246" y="614" on="0"/>
        <pt x="211" y="614" on="1"/>
        <pt x="133" y="614" on="0"/>
      </contour>
    </TTGlyph>
    <TTGlyph name="perthousand" xMin="94" yMin="-20" xMax="1599" yMax="1483">
      <contour>
        <pt x="94" y="1249" on="0"/>
        <pt x="196" y="1483" on="0"/>
        <pt x="395" y="1483" on="0"/>
        <pt x="500" y="1250" on="0"/>
        <pt x="500" y="807" on="0"/>
        <pt x="392" y="565" on="0"/>
        <pt x="197" y="565" on="0"/>
        <pt x="94" y="803" on="0"/>
      </contour>
      <contour>
        <pt x="412" y="0" on="1"/>
        <pt x="319" y="0" on="1"/>
        <pt x="797" y="1462" on="1"/>
        <pt x="885" y="1462" on="1"/>
      </contour>
      <contour>
        <pt x="293" y="1405" on="1"/>
        <pt x="235" y="1405" on="0"/>
        <pt x="184" y="1222" on="0"/>
        <pt x="184" y="833" on="0"/>
        <pt x="236" y="649" on="0"/>
        <pt x="297" y="649" on="1"/>
        <pt x="356" y="649" on="0"/>
        <pt x="410" y="834" on="0"/>
        <pt x="410" y="1028" on="1"/>
        <pt x="410" y="1405" on="0"/>
      </contour>
      <contour>
        <pt x="709" y="667" on="0"/>
        <pt x="811" y="897" on="0"/>
        <pt x="1009" y="897" on="0"/>
        <pt x="1114" y="664" on="0"/>
        <pt x="1114" y="219" on="0"/>
        <pt x="1006" y="-20" on="0"/>
        <pt x="812" y="-20" on="0"/>
        <pt x="709" y="220" on="0"/>
      </contour>
      <contour>
        <pt x="1296" y="897" on="0"/>
        <pt x="1494" y="897" on="0"/>
        <pt x="1599" y="664" on="0"/>
        <pt x="1599" y="222" on="0"/>
        <pt x="1491" y="-20" on="0"/>
        <pt x="1297" y="-20" on="0"/>
        <pt x="1194" y="219" on="0"/>
        <pt x="1194" y="663" on="0"/>
      </contour>
      <contour>
        <pt x="907" y="819" on="1"/>
        <pt x="849" y="819" on="0"/>
        <pt x="799" y="636" on="0"/>
        <pt x="799" y="247" on="0"/>
        <pt x="850" y="63" on="0"/>
        <pt x="911" y="63" on="1"/>
        <pt x="970" y="63" on="0"/>
        <pt x="1024" y="248" on="0"/>
        <pt x="1024" y="442" on="1"/>
        <pt x="1024" y="819" on="0"/>
      </contour>
      <contour>
        <pt x="1393" y="819" on="1"/>
        <pt x="1335" y="819" on="0"/>
        <pt x="1284" y="636" on="0"/>
        <pt x="1284" y="247" on="0"/>
        <pt x="1336" y="63" on="0"/>
        <pt x="1397" y="63" on="1"/>
        <pt x="1456" y="63" on="0"/>
        <pt x="1509" y="247" on="0"/>
        <pt x="1509" y="442" on="1"/>
        <pt x="1509" y="819" on="0"/>
      </contour>
    </TTGlyph>
    <TTGlyph name="plus" xMin="59" yMin="250" xMax="760" yMax="1198">
      <contour>
        <pt x="451" y="764" on="1"/>
        <pt x="760" y="764" on="1"/>
        <pt x="760" y="682" on="1"/>
        <pt x="451" y="682" on="1"/>
        <pt x="451" y="250" on="1"/>
        <pt x="369" y="250" on="1"/>
        <pt x="369" y="682" on="1"/>
        <pt x="59" y="682" on="1"/>
        <pt x="59" y="764" on="1"/>
        <pt x="369" y="764" on="1"/>
        <pt x="369" y="1198" on="1"/>
        <pt x="451" y="1198" on="1"/>
      </contour>
    </TTGlyph>
    <TTGlyph name="plusminus" xMin="59" yMin="0" xMax="760" yMax="1198">
      <contour>
        <pt x="451" y="764" on="1"/>
        <pt x="760" y="764" on="1"/>
        <pt x="760" y="682" on="1"/>
        <pt x="451" y="682" on="1"/>
        <pt x="451" y="250" on="1"/>
        <pt x="369" y="250" on="1"/>
        <pt x="369" y="682" on="1"/>
        <pt x="59" y="682" on="1"/>
        <pt x="59" y="764" on="1"/>
        <pt x="369" y="764" on="1"/>
        <pt x="369" y="1198" on="1"/>
        <pt x="451" y="1198" on="1"/>
      </contour>
      <contour>
        <pt x="760" y="0" on="1"/>
        <pt x="59" y="0" on="1"/>
        <pt x="59" y="82" on="1"/>
        <pt x="760" y="82" on="1"/>
      </contour>
    </TTGlyph>
    <TTGlyph name="q" xMin="94" yMin="-492" xMax="748" yMax="1106">
      <contour>
        <pt x="653" y="158" on="1"/>
        <pt x="568" y="-20" on="0"/>
        <pt x="410" y="-20" on="1"/>
        <pt x="94" y="-20" on="0"/>
        <pt x="94" y="541" on="1"/>
        <pt x="94" y="823" on="0"/>
        <pt x="259" y="1106" on="0"/>
        <pt x="567" y="1106" on="0"/>
        <pt x="649" y="940" on="1"/>
        <pt x="657" y="940" on="1"/>
        <pt x="672" y="1085" on="1"/>
        <pt x="748" y="1085" on="1"/>
        <pt x="748" y="-492" on="1"/>
        <pt x="653" y="-492" on="1"/>
        <pt x="653" y="-23" on="1"/>
        <pt x="653" y="44" on="0"/>
        <pt x="662" y="158" on="1"/>
      </contour>
      <contour>
        <pt x="653" y="492" on="1"/>
        <pt x="653" y="541" on="1"/>
        <pt x="653" y="786" on="0"/>
        <pt x="535" y="1016" on="0"/>
        <pt x="298" y="1016" on="0"/>
        <pt x="193" y="777" on="0"/>
        <pt x="193" y="291" on="0"/>
        <pt x="302" y="66" on="0"/>
        <pt x="532" y="66" on="0"/>
        <pt x="653" y="284" on="0"/>
      </contour>
    </TTGlyph>
</ttFont>
